M48
;DRILL file {KiCad 5.0.0+dfsg1-2} date Tue Nov 13 23:51:13 2018
;FORMAT={-:-/ absolute / inch / decimal}
FMAT,2
INCH,TZ
T1C0.0157
T2C0.0256
T3C0.0276
T4C0.0394
%
G90
G05
M72
T1
X8.275Y-6.95
X8.4082Y-6.5585
X8.4332Y-6.75
X8.45Y-6.35
X8.6082Y-5.6585
X8.625Y-6.325
X8.625Y-6.425
X8.675Y-6.075
X8.7Y-5.825
X8.7Y-5.9
X8.725Y-6.025
X8.7832Y-6.4835
X8.825Y-6.3
X8.98Y-5.94
X9.Y-5.325
X9.Y-5.45
X9.004Y-5.728
X9.02Y-5.94
X9.025Y-6.15
X9.0332Y-6.3835
X9.0582Y-5.7585
X9.3Y-6.75
X9.3132Y-6.5335
X9.5Y-5.6
X9.5Y-6.9
X9.5332Y-5.7307
X9.5582Y-5.9585
X9.6832Y-5.6335
X9.7Y-5.5835
X9.7014Y-5.6938
X9.7307Y-5.7231
X9.9Y-6.275
X9.9332Y-6.4085
T4
X9.9Y-5.1
X9.9Y-5.2
X9.9Y-5.3
X9.9Y-5.4
X8.15Y-5.975
X8.15Y-6.075
X8.15Y-6.175
X8.15Y-6.275
X8.9Y-5.1
X9.Y-5.1
X9.1Y-5.1
X9.2Y-5.1
X9.3Y-5.1
X9.4Y-5.1
X9.5Y-5.1
X9.6Y-5.1
X8.15Y-5.1
X8.15Y-5.2
X8.15Y-5.3
X8.15Y-5.4
X8.15Y-5.5
X8.15Y-5.6
X8.15Y-5.7
X8.15Y-5.8
X8.5082Y-5.0985
X8.6082Y-5.0985
X8.175Y-6.65
X8.175Y-6.75
X8.175Y-6.85
X8.275Y-6.65
X8.275Y-6.75
X8.275Y-6.85
X9.3082Y-6.6422
X9.4082Y-6.6422
X8.5Y-6.9
X8.6Y-6.9
X8.7Y-6.9
X8.8Y-6.9
X8.9Y-6.9
X9.Y-6.9
X9.1Y-6.9
X9.2Y-6.9
T2
X9.8169Y-5.5807G85X9.8011Y-5.5807
G05
X9.8169Y-5.7713G85X9.8011Y-5.7713
G05
T3
X9.9369Y-5.5685G85X9.9172Y-5.5685
G05
X9.9369Y-5.7835G85X9.9172Y-5.7835
G05
T0
M30
