%TF.GenerationSoftware,KiCad,Pcbnew,5.0.0+dfsg1-2*%
%TF.CreationDate,2018-11-13T23:51:22+01:00*%
%TF.ProjectId,xmegatest,786D656761746573742E6B696361645F,rev?*%
%TF.SameCoordinates,Original*%
%TF.FileFunction,Legend,Top*%
%TF.FilePolarity,Positive*%
%FSLAX46Y46*%
G04 Gerber Fmt 4.6, Leading zero omitted, Abs format (unit mm)*
G04 Created by KiCad (PCBNEW 5.0.0+dfsg1-2) date Tue Nov 13 23:51:22 2018*
%MOMM*%
%LPD*%
G01*
G04 APERTURE LIST*
%ADD10C,0.200000*%
%ADD11C,0.150000*%
%ADD12C,0.300000*%
%ADD13C,0.120000*%
G04 APERTURE END LIST*
D10*
X238206095Y-168998000D02*
X237190095Y-168998000D01*
X237190095Y-168490000D02*
X238206095Y-168490000D01*
D11*
X216481095Y-132002023D02*
X216528714Y-131906785D01*
X216528714Y-131763928D01*
X216481095Y-131621070D01*
X216385856Y-131525832D01*
X216290618Y-131478213D01*
X216100142Y-131430594D01*
X215957285Y-131430594D01*
X215766809Y-131478213D01*
X215671571Y-131525832D01*
X215576333Y-131621070D01*
X215528714Y-131763928D01*
X215528714Y-131859166D01*
X215576333Y-132002023D01*
X215623952Y-132049642D01*
X215957285Y-132049642D01*
X215957285Y-131859166D01*
X215528714Y-132478213D02*
X216528714Y-132478213D01*
X215528714Y-133049642D01*
X216528714Y-133049642D01*
X215528714Y-133525832D02*
X216528714Y-133525832D01*
X216528714Y-133763928D01*
X216481095Y-133906785D01*
X216385856Y-134002023D01*
X216290618Y-134049642D01*
X216100142Y-134097261D01*
X215957285Y-134097261D01*
X215766809Y-134049642D01*
X215671571Y-134002023D01*
X215576333Y-133906785D01*
X215528714Y-133763928D01*
X215528714Y-133525832D01*
X213607856Y-170847380D02*
X213036428Y-170847380D01*
X213322142Y-170847380D02*
X213322142Y-169847380D01*
X213226904Y-169990238D01*
X213131666Y-170085476D01*
X213036428Y-170133095D01*
X214226904Y-169847380D02*
X214322142Y-169847380D01*
X214417380Y-169895000D01*
X214464999Y-169942619D01*
X214512618Y-170037857D01*
X214560237Y-170228333D01*
X214560237Y-170466428D01*
X214512618Y-170656904D01*
X214464999Y-170752142D01*
X214417380Y-170799761D01*
X214322142Y-170847380D01*
X214226904Y-170847380D01*
X214131666Y-170799761D01*
X214084047Y-170752142D01*
X214036428Y-170656904D01*
X213988809Y-170466428D01*
X213988809Y-170228333D01*
X214036428Y-170037857D01*
X214084047Y-169942619D01*
X214131666Y-169895000D01*
X214226904Y-169847380D01*
X214988809Y-170847380D02*
X214988809Y-169847380D01*
X215084047Y-170466428D02*
X215369761Y-170847380D01*
X215369761Y-170180714D02*
X214988809Y-170561666D01*
X208916904Y-146860380D02*
X209535952Y-146860380D01*
X209202618Y-147241333D01*
X209345475Y-147241333D01*
X209440714Y-147288952D01*
X209488333Y-147336571D01*
X209535952Y-147431809D01*
X209535952Y-147669904D01*
X209488333Y-147765142D01*
X209440714Y-147812761D01*
X209345475Y-147860380D01*
X209059761Y-147860380D01*
X208964523Y-147812761D01*
X208916904Y-147765142D01*
X209964523Y-147765142D02*
X210012142Y-147812761D01*
X209964523Y-147860380D01*
X209916904Y-147812761D01*
X209964523Y-147765142D01*
X209964523Y-147860380D01*
X210345475Y-146860380D02*
X210964523Y-146860380D01*
X210631190Y-147241333D01*
X210774047Y-147241333D01*
X210869285Y-147288952D01*
X210916904Y-147336571D01*
X210964523Y-147431809D01*
X210964523Y-147669904D01*
X210916904Y-147765142D01*
X210869285Y-147812761D01*
X210774047Y-147860380D01*
X210488333Y-147860380D01*
X210393095Y-147812761D01*
X210345475Y-147765142D01*
X211250237Y-146860380D02*
X211583571Y-147860380D01*
X211916904Y-146860380D01*
X209504190Y-144368000D02*
X209408952Y-144320380D01*
X209266095Y-144320380D01*
X209123237Y-144368000D01*
X209027999Y-144463238D01*
X208980380Y-144558476D01*
X208932761Y-144748952D01*
X208932761Y-144891809D01*
X208980380Y-145082285D01*
X209027999Y-145177523D01*
X209123237Y-145272761D01*
X209266095Y-145320380D01*
X209361333Y-145320380D01*
X209504190Y-145272761D01*
X209551809Y-145225142D01*
X209551809Y-144891809D01*
X209361333Y-144891809D01*
X209980380Y-145320380D02*
X209980380Y-144320380D01*
X210551809Y-145320380D01*
X210551809Y-144320380D01*
X211027999Y-145320380D02*
X211027999Y-144320380D01*
X211266095Y-144320380D01*
X211408952Y-144368000D01*
X211504190Y-144463238D01*
X211551809Y-144558476D01*
X211599428Y-144748952D01*
X211599428Y-144891809D01*
X211551809Y-145082285D01*
X211504190Y-145177523D01*
X211408952Y-145272761D01*
X211266095Y-145320380D01*
X211027999Y-145320380D01*
X206487809Y-167037380D02*
X205916380Y-167037380D01*
X206202095Y-167037380D02*
X206202095Y-166037380D01*
X206106856Y-166180238D01*
X206011618Y-166275476D01*
X205916380Y-166323095D01*
X219545190Y-156750380D02*
X220068999Y-156083714D01*
X219545190Y-156083714D02*
X220068999Y-156750380D01*
X220307095Y-156083714D02*
X220688047Y-156083714D01*
X220449952Y-155750380D02*
X220449952Y-156607523D01*
X220497571Y-156702761D01*
X220592809Y-156750380D01*
X220688047Y-156750380D01*
X221449952Y-156750380D02*
X221449952Y-156226571D01*
X221402333Y-156131333D01*
X221307095Y-156083714D01*
X221116618Y-156083714D01*
X221021380Y-156131333D01*
X221449952Y-156702761D02*
X221354714Y-156750380D01*
X221116618Y-156750380D01*
X221021380Y-156702761D01*
X220973761Y-156607523D01*
X220973761Y-156512285D01*
X221021380Y-156417047D01*
X221116618Y-156369428D01*
X221354714Y-156369428D01*
X221449952Y-156321809D01*
X222068999Y-156750380D02*
X221973761Y-156702761D01*
X221926142Y-156607523D01*
X221926142Y-155750380D01*
X209067618Y-159528571D02*
X209400952Y-159528571D01*
X209543809Y-160052380D02*
X209067618Y-160052380D01*
X209067618Y-159052380D01*
X209543809Y-159052380D01*
X209877142Y-159052380D02*
X210496190Y-159052380D01*
X210162856Y-159433333D01*
X210305714Y-159433333D01*
X210400952Y-159480952D01*
X210448571Y-159528571D01*
X210496190Y-159623809D01*
X210496190Y-159861904D01*
X210448571Y-159957142D01*
X210400952Y-160004761D01*
X210305714Y-160052380D01*
X210019999Y-160052380D01*
X209924761Y-160004761D01*
X209877142Y-159957142D01*
X209067618Y-151908571D02*
X209400952Y-151908571D01*
X209543809Y-152432380D02*
X209067618Y-152432380D01*
X209067618Y-151432380D01*
X209543809Y-151432380D01*
X210162856Y-151432380D02*
X210258095Y-151432380D01*
X210353333Y-151480000D01*
X210400952Y-151527619D01*
X210448571Y-151622857D01*
X210496190Y-151813333D01*
X210496190Y-152051428D01*
X210448571Y-152241904D01*
X210400952Y-152337142D01*
X210353333Y-152384761D01*
X210258095Y-152432380D01*
X210162856Y-152432380D01*
X210067618Y-152384761D01*
X210019999Y-152337142D01*
X209972380Y-152241904D01*
X209924761Y-152051428D01*
X209924761Y-151813333D01*
X209972380Y-151622857D01*
X210019999Y-151527619D01*
X210067618Y-151480000D01*
X210162856Y-151432380D01*
X209019999Y-130080380D02*
X209019999Y-129080380D01*
X209258095Y-129080380D01*
X209400952Y-129128000D01*
X209496190Y-129223238D01*
X209543809Y-129318476D01*
X209591428Y-129508952D01*
X209591428Y-129651809D01*
X209543809Y-129842285D01*
X209496190Y-129937523D01*
X209400952Y-130032761D01*
X209258095Y-130080380D01*
X209019999Y-130080380D01*
X210210475Y-129080380D02*
X210305714Y-129080380D01*
X210400952Y-129128000D01*
X210448571Y-129175619D01*
X210496190Y-129270857D01*
X210543809Y-129461333D01*
X210543809Y-129699428D01*
X210496190Y-129889904D01*
X210448571Y-129985142D01*
X210400952Y-130032761D01*
X210305714Y-130080380D01*
X210210475Y-130080380D01*
X210115237Y-130032761D01*
X210067618Y-129985142D01*
X210019999Y-129889904D01*
X209972380Y-129699428D01*
X209972380Y-129461333D01*
X210019999Y-129270857D01*
X210067618Y-129175619D01*
X210115237Y-129128000D01*
X210210475Y-129080380D01*
X209019999Y-142780380D02*
X209019999Y-141780380D01*
X209258095Y-141780380D01*
X209400952Y-141828000D01*
X209496190Y-141923238D01*
X209543809Y-142018476D01*
X209591428Y-142208952D01*
X209591428Y-142351809D01*
X209543809Y-142542285D01*
X209496190Y-142637523D01*
X209400952Y-142732761D01*
X209258095Y-142780380D01*
X209019999Y-142780380D01*
X210496190Y-141780380D02*
X210019999Y-141780380D01*
X209972380Y-142256571D01*
X210019999Y-142208952D01*
X210115237Y-142161333D01*
X210353333Y-142161333D01*
X210448571Y-142208952D01*
X210496190Y-142256571D01*
X210543809Y-142351809D01*
X210543809Y-142589904D01*
X210496190Y-142685142D01*
X210448571Y-142732761D01*
X210353333Y-142780380D01*
X210115237Y-142780380D01*
X210019999Y-142732761D01*
X209972380Y-142685142D01*
X242389761Y-176562380D02*
X242913571Y-175895714D01*
X242389761Y-175895714D02*
X242913571Y-176562380D01*
X243294523Y-176562380D02*
X243294523Y-175895714D01*
X243294523Y-175990952D02*
X243342142Y-175943333D01*
X243437380Y-175895714D01*
X243580237Y-175895714D01*
X243675475Y-175943333D01*
X243723095Y-176038571D01*
X243723095Y-176562380D01*
X243723095Y-176038571D02*
X243770714Y-175943333D01*
X243865952Y-175895714D01*
X244008809Y-175895714D01*
X244104047Y-175943333D01*
X244151666Y-176038571D01*
X244151666Y-176562380D01*
X245008809Y-176514761D02*
X244913571Y-176562380D01*
X244723095Y-176562380D01*
X244627856Y-176514761D01*
X244580237Y-176419523D01*
X244580237Y-176038571D01*
X244627856Y-175943333D01*
X244723095Y-175895714D01*
X244913571Y-175895714D01*
X245008809Y-175943333D01*
X245056428Y-176038571D01*
X245056428Y-176133809D01*
X244580237Y-176229047D01*
X245913571Y-175895714D02*
X245913571Y-176705238D01*
X245865952Y-176800476D01*
X245818333Y-176848095D01*
X245723095Y-176895714D01*
X245580237Y-176895714D01*
X245484999Y-176848095D01*
X245913571Y-176514761D02*
X245818333Y-176562380D01*
X245627856Y-176562380D01*
X245532618Y-176514761D01*
X245484999Y-176467142D01*
X245437380Y-176371904D01*
X245437380Y-176086190D01*
X245484999Y-175990952D01*
X245532618Y-175943333D01*
X245627856Y-175895714D01*
X245818333Y-175895714D01*
X245913571Y-175943333D01*
X246818333Y-176562380D02*
X246818333Y-176038571D01*
X246770714Y-175943333D01*
X246675475Y-175895714D01*
X246484999Y-175895714D01*
X246389761Y-175943333D01*
X246818333Y-176514761D02*
X246723095Y-176562380D01*
X246484999Y-176562380D01*
X246389761Y-176514761D01*
X246342142Y-176419523D01*
X246342142Y-176324285D01*
X246389761Y-176229047D01*
X246484999Y-176181428D01*
X246723095Y-176181428D01*
X246818333Y-176133809D01*
X247151666Y-175895714D02*
X247532618Y-175895714D01*
X247294523Y-175562380D02*
X247294523Y-176419523D01*
X247342142Y-176514761D01*
X247437380Y-176562380D01*
X247532618Y-176562380D01*
X248246904Y-176514761D02*
X248151666Y-176562380D01*
X247961190Y-176562380D01*
X247865952Y-176514761D01*
X247818333Y-176419523D01*
X247818333Y-176038571D01*
X247865952Y-175943333D01*
X247961190Y-175895714D01*
X248151666Y-175895714D01*
X248246904Y-175943333D01*
X248294523Y-176038571D01*
X248294523Y-176133809D01*
X247818333Y-176229047D01*
X248675475Y-176514761D02*
X248770714Y-176562380D01*
X248961190Y-176562380D01*
X249056428Y-176514761D01*
X249104047Y-176419523D01*
X249104047Y-176371904D01*
X249056428Y-176276666D01*
X248961190Y-176229047D01*
X248818333Y-176229047D01*
X248723095Y-176181428D01*
X248675475Y-176086190D01*
X248675475Y-176038571D01*
X248723095Y-175943333D01*
X248818333Y-175895714D01*
X248961190Y-175895714D01*
X249056428Y-175943333D01*
X249389761Y-175895714D02*
X249770714Y-175895714D01*
X249532618Y-175562380D02*
X249532618Y-176419523D01*
X249580237Y-176514761D01*
X249675475Y-176562380D01*
X249770714Y-176562380D01*
X250865952Y-176562380D02*
X250865952Y-175895714D01*
X250865952Y-176086190D02*
X250913571Y-175990952D01*
X250961190Y-175943333D01*
X251056428Y-175895714D01*
X251151666Y-175895714D01*
X251437380Y-175657619D02*
X251484999Y-175610000D01*
X251580237Y-175562380D01*
X251818333Y-175562380D01*
X251913571Y-175610000D01*
X251961190Y-175657619D01*
X252008809Y-175752857D01*
X252008809Y-175848095D01*
X251961190Y-175990952D01*
X251389761Y-176562380D01*
X252008809Y-176562380D01*
X217195475Y-154869047D02*
X216528809Y-154869047D01*
X216719285Y-154869047D02*
X216624047Y-154821428D01*
X216576428Y-154773809D01*
X216528809Y-154678571D01*
X216528809Y-154583333D01*
X217147856Y-153869047D02*
X217195475Y-153964285D01*
X217195475Y-154154761D01*
X217147856Y-154250000D01*
X217052618Y-154297619D01*
X216671666Y-154297619D01*
X216576428Y-154250000D01*
X216528809Y-154154761D01*
X216528809Y-153964285D01*
X216576428Y-153869047D01*
X216671666Y-153821428D01*
X216766904Y-153821428D01*
X216862142Y-154297619D01*
X217147856Y-153440476D02*
X217195475Y-153345238D01*
X217195475Y-153154761D01*
X217147856Y-153059523D01*
X217052618Y-153011904D01*
X217004999Y-153011904D01*
X216909761Y-153059523D01*
X216862142Y-153154761D01*
X216862142Y-153297619D01*
X216814523Y-153392857D01*
X216719285Y-153440476D01*
X216671666Y-153440476D01*
X216576428Y-153392857D01*
X216528809Y-153297619D01*
X216528809Y-153154761D01*
X216576428Y-153059523D01*
X217147856Y-152202380D02*
X217195475Y-152297619D01*
X217195475Y-152488095D01*
X217147856Y-152583333D01*
X217052618Y-152630952D01*
X216671666Y-152630952D01*
X216576428Y-152583333D01*
X216528809Y-152488095D01*
X216528809Y-152297619D01*
X216576428Y-152202380D01*
X216671666Y-152154761D01*
X216766904Y-152154761D01*
X216862142Y-152630952D01*
X216528809Y-151869047D02*
X216528809Y-151488095D01*
X216195475Y-151726190D02*
X217052618Y-151726190D01*
X217147856Y-151678571D01*
X217195475Y-151583333D01*
X217195475Y-151488095D01*
X229927475Y-160687380D02*
X229927475Y-159687380D01*
X229927475Y-160068333D02*
X230022714Y-160020714D01*
X230213190Y-160020714D01*
X230308428Y-160068333D01*
X230356047Y-160115952D01*
X230403666Y-160211190D01*
X230403666Y-160496904D01*
X230356047Y-160592142D01*
X230308428Y-160639761D01*
X230213190Y-160687380D01*
X230022714Y-160687380D01*
X229927475Y-160639761D01*
X231213190Y-160639761D02*
X231117952Y-160687380D01*
X230927475Y-160687380D01*
X230832237Y-160639761D01*
X230784618Y-160544523D01*
X230784618Y-160163571D01*
X230832237Y-160068333D01*
X230927475Y-160020714D01*
X231117952Y-160020714D01*
X231213190Y-160068333D01*
X231260809Y-160163571D01*
X231260809Y-160258809D01*
X230784618Y-160354047D01*
X232117952Y-160687380D02*
X232117952Y-160163571D01*
X232070333Y-160068333D01*
X231975095Y-160020714D01*
X231784618Y-160020714D01*
X231689380Y-160068333D01*
X232117952Y-160639761D02*
X232022714Y-160687380D01*
X231784618Y-160687380D01*
X231689380Y-160639761D01*
X231641761Y-160544523D01*
X231641761Y-160449285D01*
X231689380Y-160354047D01*
X231784618Y-160306428D01*
X232022714Y-160306428D01*
X232117952Y-160258809D01*
X233022714Y-160687380D02*
X233022714Y-159687380D01*
X233022714Y-160639761D02*
X232927475Y-160687380D01*
X232736999Y-160687380D01*
X232641761Y-160639761D01*
X232594142Y-160592142D01*
X232546523Y-160496904D01*
X232546523Y-160211190D01*
X232594142Y-160115952D01*
X232641761Y-160068333D01*
X232736999Y-160020714D01*
X232927475Y-160020714D01*
X233022714Y-160068333D01*
X235769523Y-164783714D02*
X235769523Y-165783714D01*
X235769523Y-164831333D02*
X235864761Y-164783714D01*
X236055237Y-164783714D01*
X236150475Y-164831333D01*
X236198095Y-164878952D01*
X236245714Y-164974190D01*
X236245714Y-165259904D01*
X236198095Y-165355142D01*
X236150475Y-165402761D01*
X236055237Y-165450380D01*
X235864761Y-165450380D01*
X235769523Y-165402761D01*
X236817142Y-165450380D02*
X236721904Y-165402761D01*
X236674285Y-165355142D01*
X236626666Y-165259904D01*
X236626666Y-164974190D01*
X236674285Y-164878952D01*
X236721904Y-164831333D01*
X236817142Y-164783714D01*
X236959999Y-164783714D01*
X237055237Y-164831333D01*
X237102856Y-164878952D01*
X237150475Y-164974190D01*
X237150475Y-165259904D01*
X237102856Y-165355142D01*
X237055237Y-165402761D01*
X236959999Y-165450380D01*
X236817142Y-165450380D01*
X237483809Y-164783714D02*
X237674285Y-165450380D01*
X237864761Y-164974190D01*
X238055237Y-165450380D01*
X238245714Y-164783714D01*
X239007618Y-165402761D02*
X238912380Y-165450380D01*
X238721904Y-165450380D01*
X238626666Y-165402761D01*
X238579047Y-165307523D01*
X238579047Y-164926571D01*
X238626666Y-164831333D01*
X238721904Y-164783714D01*
X238912380Y-164783714D01*
X239007618Y-164831333D01*
X239055237Y-164926571D01*
X239055237Y-165021809D01*
X238579047Y-165117047D01*
X239483809Y-165450380D02*
X239483809Y-164783714D01*
X239483809Y-164974190D02*
X239531428Y-164878952D01*
X239579047Y-164831333D01*
X239674285Y-164783714D01*
X239769523Y-164783714D01*
X237198095Y-167052761D02*
X237102856Y-167100380D01*
X236912380Y-167100380D01*
X236817142Y-167052761D01*
X236769523Y-167005142D01*
X236721904Y-166909904D01*
X236721904Y-166624190D01*
X236769523Y-166528952D01*
X236817142Y-166481333D01*
X236912380Y-166433714D01*
X237102856Y-166433714D01*
X237198095Y-166481333D01*
X238055237Y-166433714D02*
X238055237Y-167100380D01*
X237626666Y-166433714D02*
X237626666Y-166957523D01*
X237674285Y-167052761D01*
X237769523Y-167100380D01*
X237912380Y-167100380D01*
X238007618Y-167052761D01*
X238055237Y-167005142D01*
X238388571Y-166433714D02*
X238769523Y-166433714D01*
X238531428Y-166100380D02*
X238531428Y-166957523D01*
X238579047Y-167052761D01*
X238674285Y-167100380D01*
X238769523Y-167100380D01*
X216274761Y-173268285D02*
X216274761Y-172792095D01*
X216560475Y-173363523D02*
X215560475Y-173030190D01*
X216560475Y-172696857D01*
X215560475Y-172173047D02*
X215560475Y-172077809D01*
X215608095Y-171982571D01*
X215655714Y-171934952D01*
X215750952Y-171887333D01*
X215941428Y-171839714D01*
X216179523Y-171839714D01*
X216369999Y-171887333D01*
X216465237Y-171934952D01*
X216512856Y-171982571D01*
X216560475Y-172077809D01*
X216560475Y-172173047D01*
X216512856Y-172268285D01*
X216465237Y-172315904D01*
X216369999Y-172363523D01*
X216179523Y-172411142D01*
X215941428Y-172411142D01*
X215750952Y-172363523D01*
X215655714Y-172315904D01*
X215608095Y-172268285D01*
X215560475Y-172173047D01*
X233927761Y-173268285D02*
X233927761Y-172792095D01*
X234213475Y-173363523D02*
X233213475Y-173030190D01*
X234213475Y-172696857D01*
X233213475Y-172458761D02*
X233213475Y-171792095D01*
X234213475Y-172220666D01*
X208123095Y-167037380D02*
X208123095Y-166037380D01*
X208504047Y-166037380D01*
X208599285Y-166085000D01*
X208646904Y-166132619D01*
X208694523Y-166227857D01*
X208694523Y-166370714D01*
X208646904Y-166465952D01*
X208599285Y-166513571D01*
X208504047Y-166561190D01*
X208123095Y-166561190D01*
X209123095Y-167037380D02*
X209123095Y-166037380D01*
X209361190Y-166037380D01*
X209504047Y-166085000D01*
X209599285Y-166180238D01*
X209646904Y-166275476D01*
X209694523Y-166465952D01*
X209694523Y-166608809D01*
X209646904Y-166799285D01*
X209599285Y-166894523D01*
X209504047Y-166989761D01*
X209361190Y-167037380D01*
X209123095Y-167037380D01*
X210123095Y-167037380D02*
X210123095Y-166037380D01*
X246754809Y-154218190D02*
X246754809Y-153837238D01*
X247421475Y-154075333D02*
X246564333Y-154075333D01*
X246469095Y-154027714D01*
X246421475Y-153932476D01*
X246421475Y-153837238D01*
X246754809Y-153075333D02*
X247421475Y-153075333D01*
X246754809Y-153503904D02*
X247278618Y-153503904D01*
X247373856Y-153456285D01*
X247421475Y-153361047D01*
X247421475Y-153218190D01*
X247373856Y-153122952D01*
X247326237Y-153075333D01*
X247373856Y-152646761D02*
X247421475Y-152551523D01*
X247421475Y-152361047D01*
X247373856Y-152265809D01*
X247278618Y-152218190D01*
X247230999Y-152218190D01*
X247135761Y-152265809D01*
X247088142Y-152361047D01*
X247088142Y-152503904D01*
X247040523Y-152599142D01*
X246945285Y-152646761D01*
X246897666Y-152646761D01*
X246802428Y-152599142D01*
X246754809Y-152503904D01*
X246754809Y-152361047D01*
X246802428Y-152265809D01*
X247373856Y-151408666D02*
X247421475Y-151503904D01*
X247421475Y-151694380D01*
X247373856Y-151789619D01*
X247278618Y-151837238D01*
X246897666Y-151837238D01*
X246802428Y-151789619D01*
X246754809Y-151694380D01*
X246754809Y-151503904D01*
X246802428Y-151408666D01*
X246897666Y-151361047D01*
X246992904Y-151361047D01*
X247088142Y-151837238D01*
X219195714Y-131422238D02*
X218386190Y-131422238D01*
X218290952Y-131469857D01*
X218243333Y-131517476D01*
X218195714Y-131612714D01*
X218195714Y-131803190D01*
X218243333Y-131898428D01*
X218290952Y-131946047D01*
X218386190Y-131993666D01*
X219195714Y-131993666D01*
X218243333Y-132422238D02*
X218195714Y-132565095D01*
X218195714Y-132803190D01*
X218243333Y-132898428D01*
X218290952Y-132946047D01*
X218386190Y-132993666D01*
X218481428Y-132993666D01*
X218576666Y-132946047D01*
X218624285Y-132898428D01*
X218671904Y-132803190D01*
X218719523Y-132612714D01*
X218767142Y-132517476D01*
X218814761Y-132469857D01*
X218909999Y-132422238D01*
X219005237Y-132422238D01*
X219100475Y-132469857D01*
X219148095Y-132517476D01*
X219195714Y-132612714D01*
X219195714Y-132850809D01*
X219148095Y-132993666D01*
X218719523Y-133755571D02*
X218671904Y-133898428D01*
X218624285Y-133946047D01*
X218529047Y-133993666D01*
X218386190Y-133993666D01*
X218290952Y-133946047D01*
X218243333Y-133898428D01*
X218195714Y-133803190D01*
X218195714Y-133422238D01*
X219195714Y-133422238D01*
X219195714Y-133755571D01*
X219148095Y-133850809D01*
X219100475Y-133898428D01*
X219005237Y-133946047D01*
X218909999Y-133946047D01*
X218814761Y-133898428D01*
X218767142Y-133850809D01*
X218719523Y-133755571D01*
X218719523Y-133422238D01*
X218195714Y-134422238D02*
X219195714Y-134422238D01*
X218814761Y-134422238D02*
X218862380Y-134517476D01*
X218862380Y-134707952D01*
X218814761Y-134803190D01*
X218767142Y-134850809D01*
X218671904Y-134898428D01*
X218386190Y-134898428D01*
X218290952Y-134850809D01*
X218243333Y-134803190D01*
X218195714Y-134707952D01*
X218195714Y-134517476D01*
X218243333Y-134422238D01*
X218195714Y-135469857D02*
X218243333Y-135374619D01*
X218290952Y-135327000D01*
X218386190Y-135279380D01*
X218671904Y-135279380D01*
X218767142Y-135327000D01*
X218814761Y-135374619D01*
X218862380Y-135469857D01*
X218862380Y-135612714D01*
X218814761Y-135707952D01*
X218767142Y-135755571D01*
X218671904Y-135803190D01*
X218386190Y-135803190D01*
X218290952Y-135755571D01*
X218243333Y-135707952D01*
X218195714Y-135612714D01*
X218195714Y-135469857D01*
X218195714Y-136374619D02*
X218243333Y-136279380D01*
X218290952Y-136231761D01*
X218386190Y-136184142D01*
X218671904Y-136184142D01*
X218767142Y-136231761D01*
X218814761Y-136279380D01*
X218862380Y-136374619D01*
X218862380Y-136517476D01*
X218814761Y-136612714D01*
X218767142Y-136660333D01*
X218671904Y-136707952D01*
X218386190Y-136707952D01*
X218290952Y-136660333D01*
X218243333Y-136612714D01*
X218195714Y-136517476D01*
X218195714Y-136374619D01*
X218862380Y-136993666D02*
X218862380Y-137374619D01*
X219195714Y-137136523D02*
X218338571Y-137136523D01*
X218243333Y-137184142D01*
X218195714Y-137279380D01*
X218195714Y-137374619D01*
X248342333Y-129556571D02*
X248485190Y-129604190D01*
X248532809Y-129651809D01*
X248580428Y-129747047D01*
X248580428Y-129889904D01*
X248532809Y-129985142D01*
X248485190Y-130032761D01*
X248389952Y-130080380D01*
X248008999Y-130080380D01*
X248008999Y-129080380D01*
X248342333Y-129080380D01*
X248437571Y-129128000D01*
X248485190Y-129175619D01*
X248532809Y-129270857D01*
X248532809Y-129366095D01*
X248485190Y-129461333D01*
X248437571Y-129508952D01*
X248342333Y-129556571D01*
X248008999Y-129556571D01*
X248913761Y-129080380D02*
X249532809Y-129080380D01*
X249199475Y-129461333D01*
X249342333Y-129461333D01*
X249437571Y-129508952D01*
X249485190Y-129556571D01*
X249532809Y-129651809D01*
X249532809Y-129889904D01*
X249485190Y-129985142D01*
X249437571Y-130032761D01*
X249342333Y-130080380D01*
X249056618Y-130080380D01*
X248961380Y-130032761D01*
X248913761Y-129985142D01*
X248342333Y-137303571D02*
X248485190Y-137351190D01*
X248532809Y-137398809D01*
X248580428Y-137494047D01*
X248580428Y-137636904D01*
X248532809Y-137732142D01*
X248485190Y-137779761D01*
X248389952Y-137827380D01*
X248008999Y-137827380D01*
X248008999Y-136827380D01*
X248342333Y-136827380D01*
X248437571Y-136875000D01*
X248485190Y-136922619D01*
X248532809Y-137017857D01*
X248532809Y-137113095D01*
X248485190Y-137208333D01*
X248437571Y-137255952D01*
X248342333Y-137303571D01*
X248008999Y-137303571D01*
X249199475Y-136827380D02*
X249294714Y-136827380D01*
X249389952Y-136875000D01*
X249437571Y-136922619D01*
X249485190Y-137017857D01*
X249532809Y-137208333D01*
X249532809Y-137446428D01*
X249485190Y-137636904D01*
X249437571Y-137732142D01*
X249389952Y-137779761D01*
X249294714Y-137827380D01*
X249199475Y-137827380D01*
X249104237Y-137779761D01*
X249056618Y-137732142D01*
X249008999Y-137636904D01*
X248961380Y-137446428D01*
X248961380Y-137208333D01*
X249008999Y-137017857D01*
X249056618Y-136922619D01*
X249104237Y-136875000D01*
X249199475Y-136827380D01*
X225275952Y-132128333D02*
X225228333Y-132080714D01*
X225180714Y-131937857D01*
X225180714Y-131842619D01*
X225228333Y-131699761D01*
X225323571Y-131604523D01*
X225418809Y-131556904D01*
X225609285Y-131509285D01*
X225752142Y-131509285D01*
X225942618Y-131556904D01*
X226037856Y-131604523D01*
X226133095Y-131699761D01*
X226180714Y-131842619D01*
X226180714Y-131937857D01*
X226133095Y-132080714D01*
X226085475Y-132128333D01*
X226180714Y-132461666D02*
X226180714Y-133128333D01*
X225180714Y-132699761D01*
X243436952Y-132128333D02*
X243389333Y-132080714D01*
X243341714Y-131937857D01*
X243341714Y-131842619D01*
X243389333Y-131699761D01*
X243484571Y-131604523D01*
X243579809Y-131556904D01*
X243770285Y-131509285D01*
X243913142Y-131509285D01*
X244103618Y-131556904D01*
X244198856Y-131604523D01*
X244294095Y-131699761D01*
X244341714Y-131842619D01*
X244341714Y-131937857D01*
X244294095Y-132080714D01*
X244246475Y-132128333D01*
X244341714Y-132747380D02*
X244341714Y-132842619D01*
X244294095Y-132937857D01*
X244246475Y-132985476D01*
X244151237Y-133033095D01*
X243960761Y-133080714D01*
X243722666Y-133080714D01*
X243532190Y-133033095D01*
X243436952Y-132985476D01*
X243389333Y-132937857D01*
X243341714Y-132842619D01*
X243341714Y-132747380D01*
X243389333Y-132652142D01*
X243436952Y-132604523D01*
X243532190Y-132556904D01*
X243722666Y-132509285D01*
X243960761Y-132509285D01*
X244151237Y-132556904D01*
X244246475Y-132604523D01*
X244294095Y-132652142D01*
X244341714Y-132747380D01*
D12*
X237698095Y-152515714D02*
X237769523Y-152587142D01*
X237698095Y-152658571D01*
X237626666Y-152587142D01*
X237698095Y-152515714D01*
X237698095Y-152658571D01*
D13*
X235098095Y-170040846D02*
X235098095Y-168710846D01*
X236428095Y-170040846D02*
X235098095Y-170040846D01*
X237698095Y-167380846D02*
X240298095Y-167380846D01*
X237698095Y-170040846D02*
X240298095Y-170040846D01*
X240298095Y-170040846D02*
X240298095Y-167380846D01*
X214778095Y-130831000D02*
X214778095Y-129501000D01*
X216108095Y-130831000D02*
X214778095Y-130831000D01*
X217378095Y-130831000D02*
X217378095Y-128171000D01*
X217378095Y-128171000D02*
X219978095Y-128171000D01*
X217378095Y-130831000D02*
X219978095Y-130831000D01*
X219978095Y-130831000D02*
X219978095Y-128171000D01*
X212393095Y-148920000D02*
X216013095Y-148920000D01*
X212393095Y-155040000D02*
X212393095Y-148920000D01*
X216013095Y-155040000D02*
X212393095Y-155040000D01*
X216013095Y-148920000D02*
X216013095Y-155040000D01*
X250968095Y-148320000D02*
X249418095Y-148320000D01*
X250968095Y-148320000D02*
X250968095Y-148020000D01*
X253768095Y-148020000D02*
X250968095Y-148020000D01*
X250968095Y-140020000D02*
X249418095Y-140020000D01*
X250968095Y-140320000D02*
X250968095Y-140020000D01*
X253768095Y-140320000D02*
X250968095Y-140320000D01*
X247718095Y-145070000D02*
X248168095Y-145470000D01*
X247718095Y-145870000D02*
X247718095Y-145070000D01*
X248168095Y-145470000D02*
X247718095Y-145870000D01*
D11*
X237077000Y-152241000D02*
X237077000Y-151666000D01*
X226727000Y-152241000D02*
X226727000Y-151566000D01*
X226727000Y-141891000D02*
X226727000Y-142566000D01*
X237077000Y-141891000D02*
X237077000Y-142566000D01*
X237077000Y-152241000D02*
X236402000Y-152241000D01*
X237077000Y-141891000D02*
X236402000Y-141891000D01*
X226727000Y-141891000D02*
X227402000Y-141891000D01*
X226727000Y-152241000D02*
X227402000Y-152241000D01*
X237077000Y-151666000D02*
X238352000Y-151666000D01*
D13*
X208340000Y-150435000D02*
X205680000Y-150435000D01*
X208340000Y-158115000D02*
X208340000Y-150435000D01*
X205680000Y-158115000D02*
X205680000Y-150435000D01*
X208340000Y-158115000D02*
X205680000Y-158115000D01*
X208340000Y-159385000D02*
X208340000Y-160715000D01*
X208340000Y-160715000D02*
X207010000Y-160715000D01*
X208340000Y-148650000D02*
X207010000Y-148650000D01*
X208340000Y-147320000D02*
X208340000Y-148650000D01*
X208340000Y-146050000D02*
X205680000Y-146050000D01*
X205680000Y-146050000D02*
X205680000Y-128210000D01*
X208340000Y-146050000D02*
X208340000Y-128210000D01*
X208340000Y-128210000D02*
X205680000Y-128210000D01*
X241944072Y-172262268D02*
X241944072Y-172779424D01*
X240524072Y-172262268D02*
X240524072Y-172779424D01*
X223722000Y-148663922D02*
X223722000Y-149181078D01*
X222302000Y-148663922D02*
X222302000Y-149181078D01*
X248692084Y-160020423D02*
X249209240Y-160020423D01*
X248692084Y-158600423D02*
X249209240Y-158600423D01*
X221688922Y-159056000D02*
X222206078Y-159056000D01*
X221688922Y-160476000D02*
X222206078Y-160476000D01*
X231398578Y-138886000D02*
X230881422Y-138886000D01*
X231398578Y-137466000D02*
X230881422Y-137466000D01*
X241502000Y-145371078D02*
X241502000Y-144853922D01*
X240082000Y-145371078D02*
X240082000Y-144853922D01*
X231183922Y-155246000D02*
X231701078Y-155246000D01*
X231183922Y-156666000D02*
X231701078Y-156666000D01*
X216034173Y-158890000D02*
X215517017Y-158890000D01*
X216034173Y-160310000D02*
X215517017Y-160310000D01*
X249209240Y-157480423D02*
X248692084Y-157480423D01*
X249209240Y-156060423D02*
X248692084Y-156060423D01*
X242998144Y-172262268D02*
X242998144Y-172779424D01*
X244418144Y-172262268D02*
X244418144Y-172779424D01*
X226778078Y-160476000D02*
X226260922Y-160476000D01*
X226778078Y-159056000D02*
X226260922Y-159056000D01*
X252790000Y-138490000D02*
X251460000Y-138490000D01*
X252790000Y-137160000D02*
X252790000Y-138490000D01*
X252790000Y-135890000D02*
X250130000Y-135890000D01*
X250130000Y-135890000D02*
X250130000Y-128210000D01*
X252790000Y-135890000D02*
X252790000Y-128210000D01*
X252790000Y-128210000D02*
X250130000Y-128210000D01*
X224730000Y-128210000D02*
X224730000Y-130870000D01*
X242570000Y-128210000D02*
X224730000Y-128210000D01*
X242570000Y-130870000D02*
X224730000Y-130870000D01*
X242570000Y-128210000D02*
X242570000Y-130870000D01*
X243840000Y-128210000D02*
X245170000Y-128210000D01*
X245170000Y-128210000D02*
X245170000Y-129540000D01*
X235010000Y-176590000D02*
X235010000Y-173930000D01*
X217170000Y-176590000D02*
X235010000Y-176590000D01*
X217170000Y-173930000D02*
X235010000Y-173930000D01*
X217170000Y-176590000D02*
X217170000Y-173930000D01*
X215900000Y-176590000D02*
X214570000Y-176590000D01*
X214570000Y-176590000D02*
X214570000Y-175260000D01*
X206315000Y-175320000D02*
X211515000Y-175320000D01*
X206315000Y-170180000D02*
X206315000Y-175320000D01*
X211515000Y-167580000D02*
X211515000Y-175320000D01*
X206315000Y-170180000D02*
X208915000Y-170180000D01*
X208915000Y-170180000D02*
X208915000Y-167580000D01*
X208915000Y-167580000D02*
X211515000Y-167580000D01*
X206315000Y-168910000D02*
X206315000Y-167580000D01*
X206315000Y-167580000D02*
X207645000Y-167580000D01*
X225620000Y-157160000D02*
X224520000Y-157160000D01*
X225620000Y-155260000D02*
X224520000Y-155260000D01*
X227770000Y-157110000D02*
X227770000Y-155310000D01*
X244110000Y-155030000D02*
X246110000Y-155030000D01*
X246110000Y-155030000D02*
X246110000Y-151130000D01*
X244110000Y-155030000D02*
X244110000Y-151130000D01*
X231701078Y-159460000D02*
X231183922Y-159460000D01*
X231701078Y-158040000D02*
X231183922Y-158040000D01*
X244108144Y-167470846D02*
X245368144Y-167470846D01*
X250928144Y-167470846D02*
X249668144Y-167470846D01*
X244108144Y-163710846D02*
X244108144Y-167470846D01*
X250928144Y-161460846D02*
X250928144Y-167470846D01*
X213736422Y-169620000D02*
X214253578Y-169620000D01*
X213736422Y-168200000D02*
X214253578Y-168200000D01*
X218574173Y-148880000D02*
X218057017Y-148880000D01*
X218574173Y-147460000D02*
X218057017Y-147460000D01*
D11*
X242214428Y-170498047D02*
X242166809Y-170545666D01*
X242023952Y-170640904D01*
X241928714Y-170688523D01*
X241785856Y-170736142D01*
X241547761Y-170783761D01*
X241357285Y-170783761D01*
X241119190Y-170736142D01*
X240976333Y-170688523D01*
X240881095Y-170640904D01*
X240738237Y-170545666D01*
X240690618Y-170498047D01*
X241738237Y-169545666D02*
X241785856Y-169593285D01*
X241833475Y-169736142D01*
X241833475Y-169831380D01*
X241785856Y-169974238D01*
X241690618Y-170069476D01*
X241595380Y-170117095D01*
X241404904Y-170164714D01*
X241262047Y-170164714D01*
X241071571Y-170117095D01*
X240976333Y-170069476D01*
X240881095Y-169974238D01*
X240833475Y-169831380D01*
X240833475Y-169736142D01*
X240881095Y-169593285D01*
X240928714Y-169545666D01*
X241166809Y-168688523D02*
X241833475Y-168688523D01*
X240785856Y-168926619D02*
X241500142Y-169164714D01*
X241500142Y-168545666D01*
X242214428Y-168259952D02*
X242166809Y-168212333D01*
X242023952Y-168117095D01*
X241928714Y-168069476D01*
X241785856Y-168021857D01*
X241547761Y-167974238D01*
X241357285Y-167974238D01*
X241119190Y-168021857D01*
X240976333Y-168069476D01*
X240881095Y-168117095D01*
X240738237Y-168212333D01*
X240690618Y-168259952D01*
X223450237Y-146399857D02*
X223497856Y-146447476D01*
X223545475Y-146590333D01*
X223545475Y-146685571D01*
X223497856Y-146828428D01*
X223402618Y-146923666D01*
X223307380Y-146971285D01*
X223116904Y-147018904D01*
X222974047Y-147018904D01*
X222783571Y-146971285D01*
X222688333Y-146923666D01*
X222593095Y-146828428D01*
X222545475Y-146685571D01*
X222545475Y-146590333D01*
X222593095Y-146447476D01*
X222640714Y-146399857D01*
X223545475Y-145447476D02*
X223545475Y-146018904D01*
X223545475Y-145733190D02*
X222545475Y-145733190D01*
X222688333Y-145828428D01*
X222783571Y-145923666D01*
X222831190Y-146018904D01*
X223545475Y-144495095D02*
X223545475Y-145066523D01*
X223545475Y-144780809D02*
X222545475Y-144780809D01*
X222688333Y-144876047D01*
X222783571Y-144971285D01*
X222831190Y-145066523D01*
X246213333Y-159703142D02*
X246165714Y-159750761D01*
X246022857Y-159798380D01*
X245927619Y-159798380D01*
X245784761Y-159750761D01*
X245689523Y-159655523D01*
X245641904Y-159560285D01*
X245594285Y-159369809D01*
X245594285Y-159226952D01*
X245641904Y-159036476D01*
X245689523Y-158941238D01*
X245784761Y-158846000D01*
X245927619Y-158798380D01*
X246022857Y-158798380D01*
X246165714Y-158846000D01*
X246213333Y-158893619D01*
X246594285Y-158893619D02*
X246641904Y-158846000D01*
X246737142Y-158798380D01*
X246975238Y-158798380D01*
X247070476Y-158846000D01*
X247118095Y-158893619D01*
X247165714Y-158988857D01*
X247165714Y-159084095D01*
X247118095Y-159226952D01*
X246546666Y-159798380D01*
X247165714Y-159798380D01*
X221783428Y-161647142D02*
X221735809Y-161694761D01*
X221592952Y-161742380D01*
X221497714Y-161742380D01*
X221354856Y-161694761D01*
X221259618Y-161599523D01*
X221211999Y-161504285D01*
X221164380Y-161313809D01*
X221164380Y-161170952D01*
X221211999Y-160980476D01*
X221259618Y-160885238D01*
X221354856Y-160790000D01*
X221497714Y-160742380D01*
X221592952Y-160742380D01*
X221735809Y-160790000D01*
X221783428Y-160837619D01*
X222116761Y-160742380D02*
X222735809Y-160742380D01*
X222402475Y-161123333D01*
X222545333Y-161123333D01*
X222640571Y-161170952D01*
X222688190Y-161218571D01*
X222735809Y-161313809D01*
X222735809Y-161551904D01*
X222688190Y-161647142D01*
X222640571Y-161694761D01*
X222545333Y-161742380D01*
X222259618Y-161742380D01*
X222164380Y-161694761D01*
X222116761Y-161647142D01*
X230973333Y-136970142D02*
X230925714Y-137017761D01*
X230782857Y-137065380D01*
X230687619Y-137065380D01*
X230544761Y-137017761D01*
X230449523Y-136922523D01*
X230401904Y-136827285D01*
X230354285Y-136636809D01*
X230354285Y-136493952D01*
X230401904Y-136303476D01*
X230449523Y-136208238D01*
X230544761Y-136113000D01*
X230687619Y-136065380D01*
X230782857Y-136065380D01*
X230925714Y-136113000D01*
X230973333Y-136160619D01*
X231878095Y-136065380D02*
X231401904Y-136065380D01*
X231354285Y-136541571D01*
X231401904Y-136493952D01*
X231497142Y-136446333D01*
X231735238Y-136446333D01*
X231830476Y-136493952D01*
X231878095Y-136541571D01*
X231925714Y-136636809D01*
X231925714Y-136874904D01*
X231878095Y-136970142D01*
X231830476Y-137017761D01*
X231735238Y-137065380D01*
X231497142Y-137065380D01*
X231401904Y-137017761D01*
X231354285Y-136970142D01*
X242754237Y-145161666D02*
X242801856Y-145209285D01*
X242849475Y-145352142D01*
X242849475Y-145447380D01*
X242801856Y-145590238D01*
X242706618Y-145685476D01*
X242611380Y-145733095D01*
X242420904Y-145780714D01*
X242278047Y-145780714D01*
X242087571Y-145733095D01*
X241992333Y-145685476D01*
X241897095Y-145590238D01*
X241849475Y-145447380D01*
X241849475Y-145352142D01*
X241897095Y-145209285D01*
X241944714Y-145161666D01*
X241849475Y-144304523D02*
X241849475Y-144495000D01*
X241897095Y-144590238D01*
X241944714Y-144637857D01*
X242087571Y-144733095D01*
X242278047Y-144780714D01*
X242658999Y-144780714D01*
X242754237Y-144733095D01*
X242801856Y-144685476D01*
X242849475Y-144590238D01*
X242849475Y-144399761D01*
X242801856Y-144304523D01*
X242754237Y-144256904D01*
X242658999Y-144209285D01*
X242420904Y-144209285D01*
X242325666Y-144256904D01*
X242278047Y-144304523D01*
X242230428Y-144399761D01*
X242230428Y-144590238D01*
X242278047Y-144685476D01*
X242325666Y-144733095D01*
X242420904Y-144780714D01*
X233848428Y-156274142D02*
X233800809Y-156321761D01*
X233657952Y-156369380D01*
X233562714Y-156369380D01*
X233419856Y-156321761D01*
X233324618Y-156226523D01*
X233276999Y-156131285D01*
X233229380Y-155940809D01*
X233229380Y-155797952D01*
X233276999Y-155607476D01*
X233324618Y-155512238D01*
X233419856Y-155417000D01*
X233562714Y-155369380D01*
X233657952Y-155369380D01*
X233800809Y-155417000D01*
X233848428Y-155464619D01*
X234181761Y-155369380D02*
X234848428Y-155369380D01*
X234419856Y-156369380D01*
X215608928Y-161481142D02*
X215561309Y-161528761D01*
X215418452Y-161576380D01*
X215323214Y-161576380D01*
X215180356Y-161528761D01*
X215085118Y-161433523D01*
X215037499Y-161338285D01*
X214989880Y-161147809D01*
X214989880Y-161004952D01*
X215037499Y-160814476D01*
X215085118Y-160719238D01*
X215180356Y-160624000D01*
X215323214Y-160576380D01*
X215418452Y-160576380D01*
X215561309Y-160624000D01*
X215608928Y-160671619D01*
X216180356Y-161004952D02*
X216085118Y-160957333D01*
X216037499Y-160909714D01*
X215989880Y-160814476D01*
X215989880Y-160766857D01*
X216037499Y-160671619D01*
X216085118Y-160624000D01*
X216180356Y-160576380D01*
X216370833Y-160576380D01*
X216466071Y-160624000D01*
X216513690Y-160671619D01*
X216561309Y-160766857D01*
X216561309Y-160814476D01*
X216513690Y-160909714D01*
X216466071Y-160957333D01*
X216370833Y-161004952D01*
X216180356Y-161004952D01*
X216085118Y-161052571D01*
X216037499Y-161100190D01*
X215989880Y-161195428D01*
X215989880Y-161385904D01*
X216037499Y-161481142D01*
X216085118Y-161528761D01*
X216180356Y-161576380D01*
X216370833Y-161576380D01*
X216466071Y-161528761D01*
X216513690Y-161481142D01*
X216561309Y-161385904D01*
X216561309Y-161195428D01*
X216513690Y-161100190D01*
X216466071Y-161052571D01*
X216370833Y-161004952D01*
X244707047Y-157639333D02*
X244659428Y-157591714D01*
X244564190Y-157448857D01*
X244516571Y-157353619D01*
X244468952Y-157210761D01*
X244421333Y-156972666D01*
X244421333Y-156782190D01*
X244468952Y-156544095D01*
X244516571Y-156401238D01*
X244564190Y-156306000D01*
X244659428Y-156163142D01*
X244707047Y-156115523D01*
X245659428Y-157163142D02*
X245611809Y-157210761D01*
X245468952Y-157258380D01*
X245373714Y-157258380D01*
X245230856Y-157210761D01*
X245135618Y-157115523D01*
X245087999Y-157020285D01*
X245040380Y-156829809D01*
X245040380Y-156686952D01*
X245087999Y-156496476D01*
X245135618Y-156401238D01*
X245230856Y-156306000D01*
X245373714Y-156258380D01*
X245468952Y-156258380D01*
X245611809Y-156306000D01*
X245659428Y-156353619D01*
X246135618Y-157258380D02*
X246326095Y-157258380D01*
X246421333Y-157210761D01*
X246468952Y-157163142D01*
X246564190Y-157020285D01*
X246611809Y-156829809D01*
X246611809Y-156448857D01*
X246564190Y-156353619D01*
X246516571Y-156306000D01*
X246421333Y-156258380D01*
X246230856Y-156258380D01*
X246135618Y-156306000D01*
X246087999Y-156353619D01*
X246040380Y-156448857D01*
X246040380Y-156686952D01*
X246087999Y-156782190D01*
X246135618Y-156829809D01*
X246230856Y-156877428D01*
X246421333Y-156877428D01*
X246516571Y-156829809D01*
X246564190Y-156782190D01*
X246611809Y-156686952D01*
X246945142Y-157639333D02*
X246992761Y-157591714D01*
X247087999Y-157448857D01*
X247135618Y-157353619D01*
X247183237Y-157210761D01*
X247230856Y-156972666D01*
X247230856Y-156782190D01*
X247183237Y-156544095D01*
X247135618Y-156401238D01*
X247087999Y-156306000D01*
X246992761Y-156163142D01*
X246945142Y-156115523D01*
X244024237Y-170148857D02*
X244071856Y-170196476D01*
X244119475Y-170339333D01*
X244119475Y-170434571D01*
X244071856Y-170577428D01*
X243976618Y-170672666D01*
X243881380Y-170720285D01*
X243690904Y-170767904D01*
X243548047Y-170767904D01*
X243357571Y-170720285D01*
X243262333Y-170672666D01*
X243167095Y-170577428D01*
X243119475Y-170434571D01*
X243119475Y-170339333D01*
X243167095Y-170196476D01*
X243214714Y-170148857D01*
X244119475Y-169196476D02*
X244119475Y-169767904D01*
X244119475Y-169482190D02*
X243119475Y-169482190D01*
X243262333Y-169577428D01*
X243357571Y-169672666D01*
X243405190Y-169767904D01*
X243119475Y-168577428D02*
X243119475Y-168482190D01*
X243167095Y-168386952D01*
X243214714Y-168339333D01*
X243309952Y-168291714D01*
X243500428Y-168244095D01*
X243738523Y-168244095D01*
X243928999Y-168291714D01*
X244024237Y-168339333D01*
X244071856Y-168386952D01*
X244119475Y-168482190D01*
X244119475Y-168577428D01*
X244071856Y-168672666D01*
X244024237Y-168720285D01*
X243928999Y-168767904D01*
X243738523Y-168815523D01*
X243500428Y-168815523D01*
X243309952Y-168767904D01*
X243214714Y-168720285D01*
X243167095Y-168672666D01*
X243119475Y-168577428D01*
X226352833Y-161647142D02*
X226305214Y-161694761D01*
X226162357Y-161742380D01*
X226067119Y-161742380D01*
X225924261Y-161694761D01*
X225829023Y-161599523D01*
X225781404Y-161504285D01*
X225733785Y-161313809D01*
X225733785Y-161170952D01*
X225781404Y-160980476D01*
X225829023Y-160885238D01*
X225924261Y-160790000D01*
X226067119Y-160742380D01*
X226162357Y-160742380D01*
X226305214Y-160790000D01*
X226352833Y-160837619D01*
X227305214Y-161742380D02*
X226733785Y-161742380D01*
X227019500Y-161742380D02*
X227019500Y-160742380D01*
X226924261Y-160885238D01*
X226829023Y-160980476D01*
X226733785Y-161028095D01*
X218148928Y-150272380D02*
X217815595Y-149796190D01*
X217577499Y-150272380D02*
X217577499Y-149272380D01*
X217958452Y-149272380D01*
X218053690Y-149320000D01*
X218101309Y-149367619D01*
X218148928Y-149462857D01*
X218148928Y-149605714D01*
X218101309Y-149700952D01*
X218053690Y-149748571D01*
X217958452Y-149796190D01*
X217577499Y-149796190D01*
X218529880Y-149367619D02*
X218577499Y-149320000D01*
X218672737Y-149272380D01*
X218910833Y-149272380D01*
X219006071Y-149320000D01*
X219053690Y-149367619D01*
X219101309Y-149462857D01*
X219101309Y-149558095D01*
X219053690Y-149700952D01*
X218482261Y-150272380D01*
X219101309Y-150272380D01*
M02*
