%TF.GenerationSoftware,KiCad,Pcbnew,5.0.0+dfsg1-2*%
%TF.CreationDate,2018-11-13T23:51:22+01:00*%
%TF.ProjectId,xmegatest,786D656761746573742E6B696361645F,rev?*%
%TF.SameCoordinates,Original*%
%TF.FileFunction,Soldermask,Bot*%
%TF.FilePolarity,Negative*%
%FSLAX46Y46*%
G04 Gerber Fmt 4.6, Leading zero omitted, Abs format (unit mm)*
G04 Created by KiCad (PCBNEW 5.0.0+dfsg1-2) date Tue Nov 13 23:51:22 2018*
%MOMM*%
%LPD*%
G01*
G04 APERTURE LIST*
%ADD10O,1.700000X1.700000*%
%ADD11R,1.700000X1.700000*%
%ADD12O,1.500000X1.100000*%
%ADD13O,1.700000X1.350000*%
G04 APERTURE END LIST*
D10*
X238968095Y-168710846D03*
D11*
X236428095Y-168710846D03*
D10*
X218648095Y-129501000D03*
D11*
X216108095Y-129501000D03*
D12*
X249148095Y-146590000D03*
X249148095Y-141750000D03*
D13*
X252148095Y-146900000D03*
X252148095Y-141440000D03*
D11*
X207010000Y-159385000D03*
D10*
X207010000Y-156845000D03*
X207010000Y-154305000D03*
X207010000Y-151765000D03*
X207010000Y-129540000D03*
X207010000Y-132080000D03*
X207010000Y-134620000D03*
X207010000Y-137160000D03*
X207010000Y-139700000D03*
X207010000Y-142240000D03*
X207010000Y-144780000D03*
D11*
X207010000Y-147320000D03*
D10*
X251460000Y-129540000D03*
X251460000Y-132080000D03*
X251460000Y-134620000D03*
D11*
X251460000Y-137160000D03*
X243840000Y-129540000D03*
D10*
X241300000Y-129540000D03*
X238760000Y-129540000D03*
X236220000Y-129540000D03*
X233680000Y-129540000D03*
X231140000Y-129540000D03*
X228600000Y-129540000D03*
X226060000Y-129540000D03*
D11*
X215900000Y-175260000D03*
D10*
X218440000Y-175260000D03*
X220980000Y-175260000D03*
X223520000Y-175260000D03*
X226060000Y-175260000D03*
X228600000Y-175260000D03*
X231140000Y-175260000D03*
X233680000Y-175260000D03*
D11*
X207645000Y-168910000D03*
D10*
X210185000Y-168910000D03*
X207645000Y-171450000D03*
X210185000Y-171450000D03*
X207645000Y-173990000D03*
X210185000Y-173990000D03*
M02*
