M48
;DRILL file {KiCad 5.0.0+dfsg1-2} date Sun Dec 16 11:08:51 2018
;FORMAT={-:-/ absolute / inch / decimal}
FMAT,2
INCH,TZ
T1C0.0157
T2C0.0197
T3C0.0394
%
G90
G05
M72
T1
X6.1675Y-5.3425
X6.37Y-5.505
X6.3975Y-5.7275
X6.41Y-5.1125
X6.5075Y-5.1744
X6.565Y-5.56
X6.58Y-4.9825
X6.635Y-5.0225
X6.665Y-5.705
X6.6675Y-5.075
X6.745Y-5.2075
X6.7768Y-5.1843
X6.8Y-5.1425
X6.81Y-5.595
X6.84Y-5.1625
X6.8825Y-5.0325
X7.045Y-5.3725
X7.0575Y-5.0775
X7.0625Y-5.1325
X7.065Y-5.6575
X7.0875Y-5.01
X7.095Y-5.16
X7.1225Y-5.3725
X7.14Y-5.1575
X7.14Y-5.24
X7.17Y-5.1275
X7.23Y-5.25
X7.325Y-5.14
X7.4075Y-5.95
X7.4175Y-5.6525
X7.545Y-5.4375
X7.5525Y-4.995
T3
X6.22Y-5.02
X6.22Y-5.12
X6.22Y-5.22
X6.32Y-5.02
X6.32Y-5.12
X6.32Y-5.22
X6.7125Y-5.835
X6.7125Y-5.935
X6.8125Y-5.835
X6.8125Y-5.935
X6.9125Y-5.835
X6.9125Y-5.935
X7.0125Y-5.835
X7.0125Y-5.935
X6.265Y-5.835
X6.265Y-5.935
X6.365Y-5.835
X6.365Y-5.935
X6.465Y-5.835
X6.465Y-5.935
X6.565Y-5.835
X6.565Y-5.935
X7.17Y-5.835
X7.17Y-5.935
X7.3167Y-5.5409
X7.3167Y-5.6409
T2
X7.555Y-5.0911G85X7.5274Y-5.0911
G05
X7.555Y-5.3589G85X7.5274Y-5.3589
G05
T0
M30
