G04 #@! TF.GenerationSoftware,KiCad,Pcbnew,5.0.0+dfsg1-2*
G04 #@! TF.CreationDate,2018-12-16T11:08:53+01:00*
G04 #@! TF.ProjectId,xmegatest,786D656761746573742E6B696361645F,rev?*
G04 #@! TF.SameCoordinates,Original*
G04 #@! TF.FileFunction,Legend,Top*
G04 #@! TF.FilePolarity,Positive*
%FSLAX46Y46*%
G04 Gerber Fmt 4.6, Leading zero omitted, Abs format (unit mm)*
G04 Created by KiCad (PCBNEW 5.0.0+dfsg1-2) date Sun Dec 16 11:08:53 2018*
%MOMM*%
%LPD*%
G01*
G04 APERTURE LIST*
%ADD10C,0.150000*%
%ADD11C,0.125000*%
%ADD12C,0.120000*%
G04 APERTURE END LIST*
D10*
X182084333Y-141883928D02*
X182084333Y-141502976D01*
X182312904Y-141960119D02*
X181512904Y-141693452D01*
X182312904Y-141426785D01*
X182312904Y-141045833D02*
X182274809Y-141122023D01*
X182198619Y-141160119D01*
X181512904Y-141160119D01*
X182312904Y-140741071D02*
X181512904Y-140741071D01*
X181817666Y-140741071D02*
X181779571Y-140664880D01*
X181779571Y-140512500D01*
X181817666Y-140436309D01*
X181855761Y-140398214D01*
X181931952Y-140360119D01*
X182160523Y-140360119D01*
X182236714Y-140398214D01*
X182274809Y-140436309D01*
X182312904Y-140512500D01*
X182312904Y-140664880D01*
X182274809Y-140741071D01*
X182274809Y-139712500D02*
X182312904Y-139788690D01*
X182312904Y-139941071D01*
X182274809Y-140017261D01*
X182198619Y-140055357D01*
X181893857Y-140055357D01*
X181817666Y-140017261D01*
X181779571Y-139941071D01*
X181779571Y-139788690D01*
X181817666Y-139712500D01*
X181893857Y-139674404D01*
X181970047Y-139674404D01*
X182046238Y-140055357D01*
X182312904Y-139331547D02*
X181779571Y-139331547D01*
X181931952Y-139331547D02*
X181855761Y-139293452D01*
X181817666Y-139255357D01*
X181779571Y-139179166D01*
X181779571Y-139102976D01*
X181779571Y-138950595D02*
X181779571Y-138645833D01*
X181512904Y-138836309D02*
X182198619Y-138836309D01*
X182274809Y-138798214D01*
X182312904Y-138722023D01*
X182312904Y-138645833D01*
X182274809Y-137807738D02*
X182312904Y-137693452D01*
X182312904Y-137502976D01*
X182274809Y-137426785D01*
X182236714Y-137388690D01*
X182160523Y-137350595D01*
X182084333Y-137350595D01*
X182008142Y-137388690D01*
X181970047Y-137426785D01*
X181931952Y-137502976D01*
X181893857Y-137655357D01*
X181855761Y-137731547D01*
X181817666Y-137769642D01*
X181741476Y-137807738D01*
X181665285Y-137807738D01*
X181589095Y-137769642D01*
X181551000Y-137731547D01*
X181512904Y-137655357D01*
X181512904Y-137464880D01*
X181551000Y-137350595D01*
X181779571Y-137007738D02*
X182579571Y-137007738D01*
X181817666Y-137007738D02*
X181779571Y-136931547D01*
X181779571Y-136779166D01*
X181817666Y-136702976D01*
X181855761Y-136664880D01*
X181931952Y-136626785D01*
X182160523Y-136626785D01*
X182236714Y-136664880D01*
X182274809Y-136702976D01*
X182312904Y-136779166D01*
X182312904Y-136931547D01*
X182274809Y-137007738D01*
X182312904Y-136283928D02*
X181779571Y-136283928D01*
X181931952Y-136283928D02*
X181855761Y-136245833D01*
X181817666Y-136207738D01*
X181779571Y-136131547D01*
X181779571Y-136055357D01*
X181779571Y-135445833D02*
X182312904Y-135445833D01*
X181779571Y-135788690D02*
X182198619Y-135788690D01*
X182274809Y-135750595D01*
X182312904Y-135674404D01*
X182312904Y-135560119D01*
X182274809Y-135483928D01*
X182236714Y-135445833D01*
X181779571Y-135141071D02*
X182312904Y-134950595D01*
X181779571Y-134760119D02*
X182312904Y-134950595D01*
X182503380Y-135026785D01*
X182541476Y-135064880D01*
X182579571Y-135141071D01*
X181779571Y-134569642D02*
X181779571Y-134264880D01*
X181512904Y-134455357D02*
X182198619Y-134455357D01*
X182274809Y-134417261D01*
X182312904Y-134341071D01*
X182312904Y-134264880D01*
X183358142Y-142245833D02*
X183358142Y-141636309D01*
X183662904Y-141941071D02*
X183053380Y-141941071D01*
X183281952Y-140150595D02*
X183243857Y-140188690D01*
X183205761Y-140264880D01*
X183205761Y-140341071D01*
X183243857Y-140417261D01*
X183281952Y-140455357D01*
X183358142Y-140493452D01*
X183434333Y-140493452D01*
X183510523Y-140455357D01*
X183548619Y-140417261D01*
X183586714Y-140341071D01*
X183586714Y-140264880D01*
X183548619Y-140188690D01*
X183510523Y-140150595D01*
X183205761Y-140150595D02*
X183510523Y-140150595D01*
X183548619Y-140112500D01*
X183548619Y-140074404D01*
X183510523Y-139998214D01*
X183434333Y-139960119D01*
X183243857Y-139960119D01*
X183129571Y-140036309D01*
X183053380Y-140150595D01*
X183015285Y-140302976D01*
X183053380Y-140455357D01*
X183129571Y-140569642D01*
X183243857Y-140645833D01*
X183396238Y-140683928D01*
X183548619Y-140645833D01*
X183662904Y-140569642D01*
X183739095Y-140455357D01*
X183777190Y-140302976D01*
X183739095Y-140150595D01*
X183662904Y-140036309D01*
X183129571Y-139617261D02*
X183662904Y-139617261D01*
X183205761Y-139617261D02*
X183167666Y-139579166D01*
X183129571Y-139502976D01*
X183129571Y-139388690D01*
X183167666Y-139312500D01*
X183243857Y-139274404D01*
X183662904Y-139274404D01*
X183662904Y-138779166D02*
X183624809Y-138855357D01*
X183586714Y-138893452D01*
X183510523Y-138931547D01*
X183281952Y-138931547D01*
X183205761Y-138893452D01*
X183167666Y-138855357D01*
X183129571Y-138779166D01*
X183129571Y-138664880D01*
X183167666Y-138588690D01*
X183205761Y-138550595D01*
X183281952Y-138512500D01*
X183510523Y-138512500D01*
X183586714Y-138550595D01*
X183624809Y-138588690D01*
X183662904Y-138664880D01*
X183662904Y-138779166D01*
X183662904Y-138055357D02*
X183624809Y-138131547D01*
X183586714Y-138169642D01*
X183510523Y-138207738D01*
X183281952Y-138207738D01*
X183205761Y-138169642D01*
X183167666Y-138131547D01*
X183129571Y-138055357D01*
X183129571Y-137941071D01*
X183167666Y-137864880D01*
X183205761Y-137826785D01*
X183281952Y-137788690D01*
X183510523Y-137788690D01*
X183586714Y-137826785D01*
X183624809Y-137864880D01*
X183662904Y-137941071D01*
X183662904Y-138055357D01*
X183129571Y-137445833D02*
X183929571Y-137445833D01*
X183167666Y-137445833D02*
X183129571Y-137369642D01*
X183129571Y-137217261D01*
X183167666Y-137141071D01*
X183205761Y-137102976D01*
X183281952Y-137064880D01*
X183510523Y-137064880D01*
X183586714Y-137102976D01*
X183624809Y-137141071D01*
X183662904Y-137217261D01*
X183662904Y-137369642D01*
X183624809Y-137445833D01*
X183129571Y-136798214D02*
X183662904Y-136645833D01*
X183281952Y-136493452D01*
X183662904Y-136341071D01*
X183129571Y-136188690D01*
X183662904Y-135541071D02*
X183243857Y-135541071D01*
X183167666Y-135579166D01*
X183129571Y-135655357D01*
X183129571Y-135807738D01*
X183167666Y-135883928D01*
X183624809Y-135541071D02*
X183662904Y-135617261D01*
X183662904Y-135807738D01*
X183624809Y-135883928D01*
X183548619Y-135922023D01*
X183472428Y-135922023D01*
X183396238Y-135883928D01*
X183358142Y-135807738D01*
X183358142Y-135617261D01*
X183320047Y-135541071D01*
X183129571Y-135274404D02*
X183129571Y-134969642D01*
X183662904Y-135160119D02*
X182977190Y-135160119D01*
X182901000Y-135122023D01*
X182862904Y-135045833D01*
X182862904Y-134969642D01*
X183624809Y-134398214D02*
X183662904Y-134474404D01*
X183662904Y-134626785D01*
X183624809Y-134702976D01*
X183548619Y-134741071D01*
X183243857Y-134741071D01*
X183167666Y-134702976D01*
X183129571Y-134626785D01*
X183129571Y-134474404D01*
X183167666Y-134398214D01*
X183243857Y-134360119D01*
X183320047Y-134360119D01*
X183396238Y-134741071D01*
X183662904Y-133902976D02*
X183624809Y-133979166D01*
X183548619Y-134017261D01*
X182862904Y-134017261D01*
X163964880Y-143660238D02*
X162964880Y-143660238D01*
X163964880Y-143231666D02*
X163441071Y-143231666D01*
X163345833Y-143279285D01*
X163298214Y-143374523D01*
X163298214Y-143517380D01*
X163345833Y-143612619D01*
X163393452Y-143660238D01*
X163964880Y-142612619D02*
X163917261Y-142707857D01*
X163869642Y-142755476D01*
X163774404Y-142803095D01*
X163488690Y-142803095D01*
X163393452Y-142755476D01*
X163345833Y-142707857D01*
X163298214Y-142612619D01*
X163298214Y-142469761D01*
X163345833Y-142374523D01*
X163393452Y-142326904D01*
X163488690Y-142279285D01*
X163774404Y-142279285D01*
X163869642Y-142326904D01*
X163917261Y-142374523D01*
X163964880Y-142469761D01*
X163964880Y-142612619D01*
X163964880Y-141850714D02*
X163298214Y-141850714D01*
X163488690Y-141850714D02*
X163393452Y-141803095D01*
X163345833Y-141755476D01*
X163298214Y-141660238D01*
X163298214Y-141565000D01*
X163964880Y-141231666D02*
X163298214Y-141231666D01*
X163488690Y-141231666D02*
X163393452Y-141184047D01*
X163345833Y-141136428D01*
X163298214Y-141041190D01*
X163298214Y-140945952D01*
X163964880Y-140469761D02*
X163917261Y-140565000D01*
X163869642Y-140612619D01*
X163774404Y-140660238D01*
X163488690Y-140660238D01*
X163393452Y-140612619D01*
X163345833Y-140565000D01*
X163298214Y-140469761D01*
X163298214Y-140326904D01*
X163345833Y-140231666D01*
X163393452Y-140184047D01*
X163488690Y-140136428D01*
X163774404Y-140136428D01*
X163869642Y-140184047D01*
X163917261Y-140231666D01*
X163964880Y-140326904D01*
X163964880Y-140469761D01*
X163964880Y-139707857D02*
X163298214Y-139707857D01*
X163488690Y-139707857D02*
X163393452Y-139660238D01*
X163345833Y-139612619D01*
X163298214Y-139517380D01*
X163298214Y-139422142D01*
X163917261Y-138374523D02*
X163964880Y-138279285D01*
X163964880Y-138088809D01*
X163917261Y-137993571D01*
X163822023Y-137945952D01*
X163774404Y-137945952D01*
X163679166Y-137993571D01*
X163631547Y-138088809D01*
X163631547Y-138231666D01*
X163583928Y-138326904D01*
X163488690Y-138374523D01*
X163441071Y-138374523D01*
X163345833Y-138326904D01*
X163298214Y-138231666D01*
X163298214Y-138088809D01*
X163345833Y-137993571D01*
X163917261Y-137088809D02*
X163964880Y-137184047D01*
X163964880Y-137374523D01*
X163917261Y-137469761D01*
X163869642Y-137517380D01*
X163774404Y-137565000D01*
X163488690Y-137565000D01*
X163393452Y-137517380D01*
X163345833Y-137469761D01*
X163298214Y-137374523D01*
X163298214Y-137184047D01*
X163345833Y-137088809D01*
X163964880Y-136517380D02*
X163917261Y-136612619D01*
X163869642Y-136660238D01*
X163774404Y-136707857D01*
X163488690Y-136707857D01*
X163393452Y-136660238D01*
X163345833Y-136612619D01*
X163298214Y-136517380D01*
X163298214Y-136374523D01*
X163345833Y-136279285D01*
X163393452Y-136231666D01*
X163488690Y-136184047D01*
X163774404Y-136184047D01*
X163869642Y-136231666D01*
X163917261Y-136279285D01*
X163964880Y-136374523D01*
X163964880Y-136517380D01*
X163298214Y-135755476D02*
X164298214Y-135755476D01*
X163345833Y-135755476D02*
X163298214Y-135660238D01*
X163298214Y-135469761D01*
X163345833Y-135374523D01*
X163393452Y-135326904D01*
X163488690Y-135279285D01*
X163774404Y-135279285D01*
X163869642Y-135326904D01*
X163917261Y-135374523D01*
X163964880Y-135469761D01*
X163964880Y-135660238D01*
X163917261Y-135755476D01*
X163917261Y-134469761D02*
X163964880Y-134565000D01*
X163964880Y-134755476D01*
X163917261Y-134850714D01*
X163822023Y-134898333D01*
X163441071Y-134898333D01*
X163345833Y-134850714D01*
X163298214Y-134755476D01*
X163298214Y-134565000D01*
X163345833Y-134469761D01*
X163441071Y-134422142D01*
X163536309Y-134422142D01*
X163631547Y-134898333D01*
X190861904Y-127374595D02*
X190328571Y-127374595D01*
X190480952Y-127374595D02*
X190404761Y-127336500D01*
X190366666Y-127298404D01*
X190328571Y-127222214D01*
X190328571Y-127146023D01*
X190861904Y-126460309D02*
X190861904Y-126917452D01*
X190861904Y-126688880D02*
X190061904Y-126688880D01*
X190176190Y-126765071D01*
X190252380Y-126841261D01*
X190290476Y-126917452D01*
D11*
X156404500Y-127888952D02*
X156380690Y-127936571D01*
X156380690Y-128008000D01*
X156404500Y-128079428D01*
X156452119Y-128127047D01*
X156499738Y-128150857D01*
X156594976Y-128174666D01*
X156666404Y-128174666D01*
X156761642Y-128150857D01*
X156809261Y-128127047D01*
X156856880Y-128079428D01*
X156880690Y-128008000D01*
X156880690Y-127960380D01*
X156856880Y-127888952D01*
X156833071Y-127865142D01*
X156666404Y-127865142D01*
X156666404Y-127960380D01*
X156880690Y-127650857D02*
X156380690Y-127650857D01*
X156880690Y-127365142D01*
X156380690Y-127365142D01*
X156880690Y-127127047D02*
X156380690Y-127127047D01*
X156380690Y-127008000D01*
X156404500Y-126936571D01*
X156452119Y-126888952D01*
X156499738Y-126865142D01*
X156594976Y-126841333D01*
X156666404Y-126841333D01*
X156761642Y-126865142D01*
X156809261Y-126888952D01*
X156856880Y-126936571D01*
X156880690Y-127008000D01*
X156880690Y-127127047D01*
D10*
X162767928Y-131981500D02*
X162167928Y-131981500D01*
X162167928Y-131752928D01*
X162196500Y-131695785D01*
X162225071Y-131667214D01*
X162282214Y-131638642D01*
X162367928Y-131638642D01*
X162425071Y-131667214D01*
X162453642Y-131695785D01*
X162482214Y-131752928D01*
X162482214Y-131981500D01*
X162767928Y-131381500D02*
X162167928Y-131381500D01*
X162167928Y-131238642D01*
X162196500Y-131152928D01*
X162253642Y-131095785D01*
X162310785Y-131067214D01*
X162425071Y-131038642D01*
X162510785Y-131038642D01*
X162625071Y-131067214D01*
X162682214Y-131095785D01*
X162739357Y-131152928D01*
X162767928Y-131238642D01*
X162767928Y-131381500D01*
X162767928Y-130781500D02*
X162167928Y-130781500D01*
D11*
X189882428Y-149336071D02*
X189882428Y-149621785D01*
X189282428Y-149621785D01*
X189882428Y-149136071D02*
X189282428Y-149136071D01*
X189282428Y-148993214D01*
X189311000Y-148907500D01*
X189368142Y-148850357D01*
X189425285Y-148821785D01*
X189539571Y-148793214D01*
X189625285Y-148793214D01*
X189739571Y-148821785D01*
X189796714Y-148850357D01*
X189853857Y-148907500D01*
X189882428Y-148993214D01*
X189882428Y-149136071D01*
X189282428Y-148421785D02*
X189282428Y-148307500D01*
X189311000Y-148250357D01*
X189368142Y-148193214D01*
X189482428Y-148164642D01*
X189682428Y-148164642D01*
X189796714Y-148193214D01*
X189853857Y-148250357D01*
X189882428Y-148307500D01*
X189882428Y-148421785D01*
X189853857Y-148478928D01*
X189796714Y-148536071D01*
X189682428Y-148564642D01*
X189482428Y-148564642D01*
X189368142Y-148536071D01*
X189311000Y-148478928D01*
X189282428Y-148421785D01*
X163656928Y-127608000D02*
X163056928Y-127608000D01*
X163428357Y-127550857D02*
X163656928Y-127379428D01*
X163256928Y-127379428D02*
X163485500Y-127608000D01*
X161624928Y-142155857D02*
X161224928Y-142155857D01*
X161339214Y-142155857D02*
X161282071Y-142127285D01*
X161253500Y-142098714D01*
X161224928Y-142041571D01*
X161224928Y-141984428D01*
X179624071Y-145459428D02*
X179595500Y-145430857D01*
X179566928Y-145373714D01*
X179566928Y-145230857D01*
X179595500Y-145173714D01*
X179624071Y-145145142D01*
X179681214Y-145116571D01*
X179738357Y-145116571D01*
X179824071Y-145145142D01*
X180166928Y-145488000D01*
X180166928Y-145116571D01*
X190771428Y-143465571D02*
X190771428Y-143808428D01*
X190771428Y-143637000D02*
X190171428Y-143637000D01*
X190257142Y-143694142D01*
X190314285Y-143751285D01*
X190342857Y-143808428D01*
D10*
X187469500Y-143776642D02*
X187440928Y-143833785D01*
X187440928Y-143919500D01*
X187469500Y-144005214D01*
X187526642Y-144062357D01*
X187583785Y-144090928D01*
X187698071Y-144119500D01*
X187783785Y-144119500D01*
X187898071Y-144090928D01*
X187955214Y-144062357D01*
X188012357Y-144005214D01*
X188040928Y-143919500D01*
X188040928Y-143862357D01*
X188012357Y-143776642D01*
X187983785Y-143748071D01*
X187783785Y-143748071D01*
X187783785Y-143862357D01*
X188040928Y-143490928D02*
X187440928Y-143490928D01*
X188040928Y-143148071D01*
X187440928Y-143148071D01*
X188040928Y-142862357D02*
X187440928Y-142862357D01*
X187440928Y-142719500D01*
X187469500Y-142633785D01*
X187526642Y-142576642D01*
X187583785Y-142548071D01*
X187698071Y-142519500D01*
X187783785Y-142519500D01*
X187898071Y-142548071D01*
X187955214Y-142576642D01*
X188012357Y-142633785D01*
X188040928Y-142719500D01*
X188040928Y-142862357D01*
X187440928Y-140893785D02*
X187440928Y-141179500D01*
X187726642Y-141208071D01*
X187698071Y-141179500D01*
X187669500Y-141122357D01*
X187669500Y-140979500D01*
X187698071Y-140922357D01*
X187726642Y-140893785D01*
X187783785Y-140865214D01*
X187926642Y-140865214D01*
X187983785Y-140893785D01*
X188012357Y-140922357D01*
X188040928Y-140979500D01*
X188040928Y-141122357D01*
X188012357Y-141179500D01*
X187983785Y-141208071D01*
X187440928Y-140693785D02*
X188040928Y-140493785D01*
X187440928Y-140293785D01*
D11*
X167755857Y-130286142D02*
X167784428Y-130343285D01*
X167784428Y-130457571D01*
X167755857Y-130514714D01*
X167727285Y-130543285D01*
X167670142Y-130571857D01*
X167498714Y-130571857D01*
X167441571Y-130543285D01*
X167413000Y-130514714D01*
X167384428Y-130457571D01*
X167384428Y-130343285D01*
X167413000Y-130286142D01*
X168263857Y-142986142D02*
X168292428Y-143043285D01*
X168292428Y-143157571D01*
X168263857Y-143214714D01*
X168235285Y-143243285D01*
X168178142Y-143271857D01*
X168006714Y-143271857D01*
X167949571Y-143243285D01*
X167921000Y-143214714D01*
X167892428Y-143157571D01*
X167892428Y-143043285D01*
X167921000Y-142986142D01*
X180074857Y-141208142D02*
X180103428Y-141265285D01*
X180103428Y-141379571D01*
X180074857Y-141436714D01*
X180046285Y-141465285D01*
X179989142Y-141493857D01*
X179817714Y-141493857D01*
X179760571Y-141465285D01*
X179732000Y-141436714D01*
X179703428Y-141379571D01*
X179703428Y-141265285D01*
X179732000Y-141208142D01*
X177661857Y-128762142D02*
X177690428Y-128819285D01*
X177690428Y-128933571D01*
X177661857Y-128990714D01*
X177633285Y-129019285D01*
X177576142Y-129047857D01*
X177404714Y-129047857D01*
X177347571Y-129019285D01*
X177319000Y-128990714D01*
X177290428Y-128933571D01*
X177290428Y-128819285D01*
X177319000Y-128762142D01*
X166514428Y-129033571D02*
X165914428Y-129033571D01*
X166143000Y-129033571D02*
X166114428Y-128976428D01*
X166114428Y-128862142D01*
X166143000Y-128805000D01*
X166171571Y-128776428D01*
X166228714Y-128747857D01*
X166400142Y-128747857D01*
X166457285Y-128776428D01*
X166485857Y-128805000D01*
X166514428Y-128862142D01*
X166514428Y-128976428D01*
X166485857Y-129033571D01*
D10*
X164822142Y-137287000D02*
X164869761Y-137239380D01*
X164917380Y-137287000D01*
X164869761Y-137334619D01*
X164822142Y-137287000D01*
X164917380Y-137287000D01*
X168878285Y-152336500D02*
X168840190Y-152374595D01*
X168802095Y-152336500D01*
X168840190Y-152298404D01*
X168878285Y-152336500D01*
X168802095Y-152336500D01*
X179947928Y-149158214D02*
X179947928Y-148786785D01*
X180176500Y-148986785D01*
X180176500Y-148901071D01*
X180205071Y-148843928D01*
X180233642Y-148815357D01*
X180290785Y-148786785D01*
X180433642Y-148786785D01*
X180490785Y-148815357D01*
X180519357Y-148843928D01*
X180547928Y-148901071D01*
X180547928Y-149072500D01*
X180519357Y-149129642D01*
X180490785Y-149158214D01*
X180490785Y-148529642D02*
X180519357Y-148501071D01*
X180547928Y-148529642D01*
X180519357Y-148558214D01*
X180490785Y-148529642D01*
X180547928Y-148529642D01*
X179947928Y-148301071D02*
X179947928Y-147929642D01*
X180176500Y-148129642D01*
X180176500Y-148043928D01*
X180205071Y-147986785D01*
X180233642Y-147958214D01*
X180290785Y-147929642D01*
X180433642Y-147929642D01*
X180490785Y-147958214D01*
X180519357Y-147986785D01*
X180547928Y-148043928D01*
X180547928Y-148215357D01*
X180519357Y-148272500D01*
X180490785Y-148301071D01*
X179947928Y-147758214D02*
X180547928Y-147558214D01*
X179947928Y-147358214D01*
X158694380Y-141954047D02*
X158027714Y-141954047D01*
X158218190Y-141954047D02*
X158122952Y-141906428D01*
X158075333Y-141858809D01*
X158027714Y-141763571D01*
X158027714Y-141668333D01*
X158646761Y-140954047D02*
X158694380Y-141049285D01*
X158694380Y-141239761D01*
X158646761Y-141335000D01*
X158551523Y-141382619D01*
X158170571Y-141382619D01*
X158075333Y-141335000D01*
X158027714Y-141239761D01*
X158027714Y-141049285D01*
X158075333Y-140954047D01*
X158170571Y-140906428D01*
X158265809Y-140906428D01*
X158361047Y-141382619D01*
X158646761Y-140525476D02*
X158694380Y-140430238D01*
X158694380Y-140239761D01*
X158646761Y-140144523D01*
X158551523Y-140096904D01*
X158503904Y-140096904D01*
X158408666Y-140144523D01*
X158361047Y-140239761D01*
X158361047Y-140382619D01*
X158313428Y-140477857D01*
X158218190Y-140525476D01*
X158170571Y-140525476D01*
X158075333Y-140477857D01*
X158027714Y-140382619D01*
X158027714Y-140239761D01*
X158075333Y-140144523D01*
X158646761Y-139287380D02*
X158694380Y-139382619D01*
X158694380Y-139573095D01*
X158646761Y-139668333D01*
X158551523Y-139715952D01*
X158170571Y-139715952D01*
X158075333Y-139668333D01*
X158027714Y-139573095D01*
X158027714Y-139382619D01*
X158075333Y-139287380D01*
X158170571Y-139239761D01*
X158265809Y-139239761D01*
X158361047Y-139715952D01*
X158027714Y-138954047D02*
X158027714Y-138573095D01*
X157694380Y-138811190D02*
X158551523Y-138811190D01*
X158646761Y-138763571D01*
X158694380Y-138668333D01*
X158694380Y-138573095D01*
X184824714Y-136588476D02*
X184824714Y-136207523D01*
X185491380Y-136445619D02*
X184634238Y-136445619D01*
X184539000Y-136398000D01*
X184491380Y-136302761D01*
X184491380Y-136207523D01*
X162155142Y-134239000D02*
X162202761Y-134191380D01*
X162250380Y-134239000D01*
X162202761Y-134286619D01*
X162155142Y-134239000D01*
X162250380Y-134239000D01*
X179976500Y-151206142D02*
X179947928Y-151263285D01*
X179947928Y-151349000D01*
X179976500Y-151434714D01*
X180033642Y-151491857D01*
X180090785Y-151520428D01*
X180205071Y-151549000D01*
X180290785Y-151549000D01*
X180405071Y-151520428D01*
X180462214Y-151491857D01*
X180519357Y-151434714D01*
X180547928Y-151349000D01*
X180547928Y-151291857D01*
X180519357Y-151206142D01*
X180490785Y-151177571D01*
X180290785Y-151177571D01*
X180290785Y-151291857D01*
X180547928Y-150920428D02*
X179947928Y-150920428D01*
X180547928Y-150577571D01*
X179947928Y-150577571D01*
X180547928Y-150291857D02*
X179947928Y-150291857D01*
X179947928Y-150149000D01*
X179976500Y-150063285D01*
X180033642Y-150006142D01*
X180090785Y-149977571D01*
X180205071Y-149949000D01*
X180290785Y-149949000D01*
X180405071Y-149977571D01*
X180462214Y-150006142D01*
X180519357Y-150063285D01*
X180547928Y-150149000D01*
X180547928Y-150291857D01*
X157297380Y-152042714D02*
X156630714Y-152042714D01*
X156821190Y-152042714D02*
X156725952Y-151995095D01*
X156678333Y-151947476D01*
X156630714Y-151852238D01*
X156630714Y-151757000D01*
X157249761Y-151042714D02*
X157297380Y-151137952D01*
X157297380Y-151328428D01*
X157249761Y-151423666D01*
X157154523Y-151471285D01*
X156773571Y-151471285D01*
X156678333Y-151423666D01*
X156630714Y-151328428D01*
X156630714Y-151137952D01*
X156678333Y-151042714D01*
X156773571Y-150995095D01*
X156868809Y-150995095D01*
X156964047Y-151471285D01*
X156630714Y-150709380D02*
X156630714Y-150328428D01*
X157297380Y-150566523D02*
X156440238Y-150566523D01*
X156345000Y-150518904D01*
X156297380Y-150423666D01*
X156297380Y-150328428D01*
X164282428Y-146367452D02*
X164282428Y-145605547D01*
X161742428Y-146367452D02*
X161742428Y-145605547D01*
X162123380Y-145986500D02*
X161361476Y-145986500D01*
X156630714Y-148716880D02*
X156630714Y-148335928D01*
X156297380Y-148574023D02*
X157154523Y-148574023D01*
X157249761Y-148526404D01*
X157297380Y-148431166D01*
X157297380Y-148335928D01*
X157297380Y-148002595D02*
X156630714Y-148002595D01*
X156821190Y-148002595D02*
X156725952Y-147954976D01*
X156678333Y-147907357D01*
X156630714Y-147812119D01*
X156630714Y-147716880D01*
X156630714Y-146954976D02*
X157440238Y-146954976D01*
X157535476Y-147002595D01*
X157583095Y-147050214D01*
X157630714Y-147145452D01*
X157630714Y-147288309D01*
X157583095Y-147383547D01*
X157249761Y-146954976D02*
X157297380Y-147050214D01*
X157297380Y-147240690D01*
X157249761Y-147335928D01*
X157202142Y-147383547D01*
X157106904Y-147431166D01*
X156821190Y-147431166D01*
X156725952Y-147383547D01*
X156678333Y-147335928D01*
X156630714Y-147240690D01*
X156630714Y-147050214D01*
X156678333Y-146954976D01*
D12*
G04 #@! TO.C,J2*
X187381000Y-134040000D02*
X186931000Y-134440000D01*
X186931000Y-134440000D02*
X186931000Y-133640000D01*
X186931000Y-133640000D02*
X187381000Y-134040000D01*
X192981000Y-128890000D02*
X190181000Y-128890000D01*
X190181000Y-128890000D02*
X190181000Y-128590000D01*
X190181000Y-128590000D02*
X188631000Y-128590000D01*
X192981000Y-136590000D02*
X190181000Y-136590000D01*
X190181000Y-136890000D02*
X190181000Y-136590000D01*
X190181000Y-136890000D02*
X188631000Y-136890000D01*
G04 #@! TO.C,J5*
X157801000Y-152079000D02*
X157801000Y-150749000D01*
X159131000Y-152079000D02*
X157801000Y-152079000D01*
X157801000Y-149479000D02*
X157801000Y-146879000D01*
X160401000Y-149479000D02*
X157801000Y-149479000D01*
X160401000Y-152079000D02*
X160401000Y-149479000D01*
X157801000Y-146879000D02*
X168081000Y-146879000D01*
X160401000Y-152079000D02*
X168081000Y-152079000D01*
X168081000Y-152079000D02*
X168081000Y-146879000D01*
G04 #@! TO.C,J1*
X161858000Y-126178000D02*
X156658000Y-126178000D01*
X161858000Y-131318000D02*
X161858000Y-126178000D01*
X161858000Y-131318000D02*
X159258000Y-131318000D01*
X159258000Y-131318000D02*
X159258000Y-133918000D01*
X159258000Y-133918000D02*
X156658000Y-133918000D01*
X161858000Y-132588000D02*
X161858000Y-133918000D01*
X161858000Y-133918000D02*
X160528000Y-133918000D01*
G04 #@! TO.C,RLED2*
X181859422Y-128004500D02*
X182376578Y-128004500D01*
X181859422Y-129424500D02*
X182376578Y-129424500D01*
G04 #@! TO.C,LED1*
X186220000Y-125947500D02*
X183935000Y-125947500D01*
X183935000Y-125947500D02*
X183935000Y-127417500D01*
X183935000Y-127417500D02*
X186220000Y-127417500D01*
G04 #@! TO.C,C4*
X180154078Y-144578000D02*
X179636922Y-144578000D01*
X180154078Y-145998000D02*
X179636922Y-145998000D01*
G04 #@! TO.C,C2*
X190758578Y-142927000D02*
X190241422Y-142927000D01*
X190758578Y-144347000D02*
X190241422Y-144347000D01*
D10*
G04 #@! TO.C,U2*
X165655445Y-136398000D02*
X166062031Y-136804586D01*
X172974000Y-129079445D02*
X173451297Y-129556742D01*
X180292555Y-136398000D02*
X179815258Y-135920703D01*
X172974000Y-143716555D02*
X172496703Y-143239258D01*
X165655445Y-136398000D02*
X166132742Y-135920703D01*
X172974000Y-143716555D02*
X173451297Y-143239258D01*
X180292555Y-136398000D02*
X179815258Y-136875297D01*
X172974000Y-129079445D02*
X172496703Y-129556742D01*
X166062031Y-136804586D02*
X165160470Y-137706148D01*
D12*
G04 #@! TO.C,U1*
X186558000Y-145497500D02*
X186558000Y-146757500D01*
X186558000Y-152317500D02*
X186558000Y-151057500D01*
X190318000Y-145497500D02*
X186558000Y-145497500D01*
X192568000Y-152317500D02*
X186558000Y-152317500D01*
G04 #@! TO.C,J7*
X169167500Y-152079000D02*
X169167500Y-150749000D01*
X170497500Y-152079000D02*
X169167500Y-152079000D01*
X169167500Y-149479000D02*
X169167500Y-146879000D01*
X171767500Y-149479000D02*
X169167500Y-149479000D01*
X171767500Y-152079000D02*
X171767500Y-149479000D01*
X169167500Y-146879000D02*
X179447500Y-146879000D01*
X171767500Y-152079000D02*
X179447500Y-152079000D01*
X179447500Y-152079000D02*
X179447500Y-146879000D01*
G04 #@! TO.C,JP1*
X183448000Y-152079000D02*
X182118000Y-152079000D01*
X183448000Y-150749000D02*
X183448000Y-152079000D01*
X183448000Y-149479000D02*
X180788000Y-149479000D01*
X180788000Y-149479000D02*
X180788000Y-146879000D01*
X183448000Y-149479000D02*
X183448000Y-146879000D01*
X183448000Y-146879000D02*
X180788000Y-146879000D01*
G04 #@! TO.C,SW1*
X156559000Y-143458500D02*
X156559000Y-137338500D01*
X156559000Y-137338500D02*
X160179000Y-137338500D01*
X160179000Y-137338500D02*
X160179000Y-143458500D01*
X160179000Y-143458500D02*
X156559000Y-143458500D01*
G04 #@! TO.C,C5*
X179210612Y-140968296D02*
X179576296Y-140602612D01*
X180214704Y-141972388D02*
X180580388Y-141606704D01*
G04 #@! TO.C,C6*
X178075975Y-128684883D02*
X177710291Y-128319199D01*
X177071883Y-129688975D02*
X176706199Y-129323291D01*
G04 #@! TO.C,C7*
X168324888Y-130748204D02*
X167959204Y-131113888D01*
X167320796Y-129744112D02*
X166955112Y-130109796D01*
G04 #@! TO.C,C11*
X167463112Y-143448204D02*
X167828796Y-143813888D01*
X168467204Y-142444112D02*
X168832888Y-142809796D01*
G04 #@! TO.C,F1*
X184039000Y-138521000D02*
X186039000Y-138521000D01*
X186039000Y-138521000D02*
X186039000Y-134621000D01*
X184039000Y-138521000D02*
X184039000Y-134621000D01*
G04 #@! TO.C,L1*
X165494612Y-128585796D02*
X165860296Y-128220112D01*
X166498704Y-129589888D02*
X166864388Y-129224204D01*
G04 #@! TO.C,R1*
X164159000Y-127703078D02*
X164159000Y-127185922D01*
X162739000Y-127703078D02*
X162739000Y-127185922D01*
G04 #@! TO.C,R2*
X162127000Y-141854422D02*
X162127000Y-142371578D01*
X160707000Y-141854422D02*
X160707000Y-142371578D01*
G04 #@! TO.C,REF\002A\002A*
X187175300Y-144608151D02*
X185845300Y-144608151D01*
X187175300Y-143278151D02*
X187175300Y-144608151D01*
X187175300Y-142008151D02*
X184515300Y-142008151D01*
X184515300Y-142008151D02*
X184515300Y-139408151D01*
X187175300Y-142008151D02*
X187175300Y-139408151D01*
X187175300Y-139408151D02*
X184515300Y-139408151D01*
G04 #@! TO.C,LED2*
X183935000Y-129386000D02*
X186220000Y-129386000D01*
X183935000Y-127916000D02*
X183935000Y-129386000D01*
X186220000Y-127916000D02*
X183935000Y-127916000D01*
G04 #@! TO.C,RLED1*
X181859422Y-127392500D02*
X182376578Y-127392500D01*
X181859422Y-125972500D02*
X182376578Y-125972500D01*
G04 #@! TD*
M02*
