G04 #@! TF.GenerationSoftware,KiCad,Pcbnew,5.0.0+dfsg1-2*
G04 #@! TF.CreationDate,2018-12-16T11:08:53+01:00*
G04 #@! TF.ProjectId,xmegatest,786D656761746573742E6B696361645F,rev?*
G04 #@! TF.SameCoordinates,Original*
G04 #@! TF.FileFunction,Soldermask,Top*
G04 #@! TF.FilePolarity,Negative*
%FSLAX46Y46*%
G04 Gerber Fmt 4.6, Leading zero omitted, Abs format (unit mm)*
G04 Created by KiCad (PCBNEW 5.0.0+dfsg1-2) date Sun Dec 16 11:08:53 2018*
%MOMM*%
%LPD*%
G01*
G04 APERTURE LIST*
%ADD10C,0.100000*%
G04 APERTURE END LIST*
D10*
G36*
X192618000Y-151957500D02*
X190618000Y-151957500D01*
X190618000Y-150457500D01*
X192618000Y-150457500D01*
X192618000Y-151957500D01*
X192618000Y-151957500D01*
G37*
G36*
X182968000Y-151599000D02*
X181268000Y-151599000D01*
X181268000Y-149899000D01*
X182968000Y-149899000D01*
X182968000Y-151599000D01*
X182968000Y-151599000D01*
G37*
G36*
X175744130Y-149911299D02*
X175904355Y-149959903D01*
X176052020Y-150038831D01*
X176181449Y-150145051D01*
X176287669Y-150274480D01*
X176366597Y-150422145D01*
X176415201Y-150582370D01*
X176431612Y-150749000D01*
X176415201Y-150915630D01*
X176366597Y-151075855D01*
X176287669Y-151223520D01*
X176181449Y-151352949D01*
X176052020Y-151459169D01*
X175904355Y-151538097D01*
X175744130Y-151586701D01*
X175619252Y-151599000D01*
X175535748Y-151599000D01*
X175410870Y-151586701D01*
X175250645Y-151538097D01*
X175102980Y-151459169D01*
X174973551Y-151352949D01*
X174867331Y-151223520D01*
X174788403Y-151075855D01*
X174739799Y-150915630D01*
X174723388Y-150749000D01*
X174739799Y-150582370D01*
X174788403Y-150422145D01*
X174867331Y-150274480D01*
X174973551Y-150145051D01*
X175102980Y-150038831D01*
X175250645Y-149959903D01*
X175410870Y-149911299D01*
X175535748Y-149899000D01*
X175619252Y-149899000D01*
X175744130Y-149911299D01*
X175744130Y-149911299D01*
G37*
G36*
X178284130Y-149911299D02*
X178444355Y-149959903D01*
X178592020Y-150038831D01*
X178721449Y-150145051D01*
X178827669Y-150274480D01*
X178906597Y-150422145D01*
X178955201Y-150582370D01*
X178971612Y-150749000D01*
X178955201Y-150915630D01*
X178906597Y-151075855D01*
X178827669Y-151223520D01*
X178721449Y-151352949D01*
X178592020Y-151459169D01*
X178444355Y-151538097D01*
X178284130Y-151586701D01*
X178159252Y-151599000D01*
X178075748Y-151599000D01*
X177950870Y-151586701D01*
X177790645Y-151538097D01*
X177642980Y-151459169D01*
X177513551Y-151352949D01*
X177407331Y-151223520D01*
X177328403Y-151075855D01*
X177279799Y-150915630D01*
X177263388Y-150749000D01*
X177279799Y-150582370D01*
X177328403Y-150422145D01*
X177407331Y-150274480D01*
X177513551Y-150145051D01*
X177642980Y-150038831D01*
X177790645Y-149959903D01*
X177950870Y-149911299D01*
X178075748Y-149899000D01*
X178159252Y-149899000D01*
X178284130Y-149911299D01*
X178284130Y-149911299D01*
G37*
G36*
X166917630Y-149911299D02*
X167077855Y-149959903D01*
X167225520Y-150038831D01*
X167354949Y-150145051D01*
X167461169Y-150274480D01*
X167540097Y-150422145D01*
X167588701Y-150582370D01*
X167605112Y-150749000D01*
X167588701Y-150915630D01*
X167540097Y-151075855D01*
X167461169Y-151223520D01*
X167354949Y-151352949D01*
X167225520Y-151459169D01*
X167077855Y-151538097D01*
X166917630Y-151586701D01*
X166792752Y-151599000D01*
X166709248Y-151599000D01*
X166584370Y-151586701D01*
X166424145Y-151538097D01*
X166276480Y-151459169D01*
X166147051Y-151352949D01*
X166040831Y-151223520D01*
X165961903Y-151075855D01*
X165913299Y-150915630D01*
X165896888Y-150749000D01*
X165913299Y-150582370D01*
X165961903Y-150422145D01*
X166040831Y-150274480D01*
X166147051Y-150145051D01*
X166276480Y-150038831D01*
X166424145Y-149959903D01*
X166584370Y-149911299D01*
X166709248Y-149899000D01*
X166792752Y-149899000D01*
X166917630Y-149911299D01*
X166917630Y-149911299D01*
G37*
G36*
X164377630Y-149911299D02*
X164537855Y-149959903D01*
X164685520Y-150038831D01*
X164814949Y-150145051D01*
X164921169Y-150274480D01*
X165000097Y-150422145D01*
X165048701Y-150582370D01*
X165065112Y-150749000D01*
X165048701Y-150915630D01*
X165000097Y-151075855D01*
X164921169Y-151223520D01*
X164814949Y-151352949D01*
X164685520Y-151459169D01*
X164537855Y-151538097D01*
X164377630Y-151586701D01*
X164252752Y-151599000D01*
X164169248Y-151599000D01*
X164044370Y-151586701D01*
X163884145Y-151538097D01*
X163736480Y-151459169D01*
X163607051Y-151352949D01*
X163500831Y-151223520D01*
X163421903Y-151075855D01*
X163373299Y-150915630D01*
X163356888Y-150749000D01*
X163373299Y-150582370D01*
X163421903Y-150422145D01*
X163500831Y-150274480D01*
X163607051Y-150145051D01*
X163736480Y-150038831D01*
X163884145Y-149959903D01*
X164044370Y-149911299D01*
X164169248Y-149899000D01*
X164252752Y-149899000D01*
X164377630Y-149911299D01*
X164377630Y-149911299D01*
G37*
G36*
X159981000Y-151599000D02*
X158281000Y-151599000D01*
X158281000Y-149899000D01*
X159981000Y-149899000D01*
X159981000Y-151599000D01*
X159981000Y-151599000D01*
G37*
G36*
X161837630Y-149911299D02*
X161997855Y-149959903D01*
X162145520Y-150038831D01*
X162274949Y-150145051D01*
X162381169Y-150274480D01*
X162460097Y-150422145D01*
X162508701Y-150582370D01*
X162525112Y-150749000D01*
X162508701Y-150915630D01*
X162460097Y-151075855D01*
X162381169Y-151223520D01*
X162274949Y-151352949D01*
X162145520Y-151459169D01*
X161997855Y-151538097D01*
X161837630Y-151586701D01*
X161712752Y-151599000D01*
X161629248Y-151599000D01*
X161504370Y-151586701D01*
X161344145Y-151538097D01*
X161196480Y-151459169D01*
X161067051Y-151352949D01*
X160960831Y-151223520D01*
X160881903Y-151075855D01*
X160833299Y-150915630D01*
X160816888Y-150749000D01*
X160833299Y-150582370D01*
X160881903Y-150422145D01*
X160960831Y-150274480D01*
X161067051Y-150145051D01*
X161196480Y-150038831D01*
X161344145Y-149959903D01*
X161504370Y-149911299D01*
X161629248Y-149899000D01*
X161712752Y-149899000D01*
X161837630Y-149911299D01*
X161837630Y-149911299D01*
G37*
G36*
X171347500Y-151599000D02*
X169647500Y-151599000D01*
X169647500Y-149899000D01*
X171347500Y-149899000D01*
X171347500Y-151599000D01*
X171347500Y-151599000D01*
G37*
G36*
X173204130Y-149911299D02*
X173364355Y-149959903D01*
X173512020Y-150038831D01*
X173641449Y-150145051D01*
X173747669Y-150274480D01*
X173826597Y-150422145D01*
X173875201Y-150582370D01*
X173891612Y-150749000D01*
X173875201Y-150915630D01*
X173826597Y-151075855D01*
X173747669Y-151223520D01*
X173641449Y-151352949D01*
X173512020Y-151459169D01*
X173364355Y-151538097D01*
X173204130Y-151586701D01*
X173079252Y-151599000D01*
X172995748Y-151599000D01*
X172870870Y-151586701D01*
X172710645Y-151538097D01*
X172562980Y-151459169D01*
X172433551Y-151352949D01*
X172327331Y-151223520D01*
X172248403Y-151075855D01*
X172199799Y-150915630D01*
X172183388Y-150749000D01*
X172199799Y-150582370D01*
X172248403Y-150422145D01*
X172327331Y-150274480D01*
X172433551Y-150145051D01*
X172562980Y-150038831D01*
X172710645Y-149959903D01*
X172870870Y-149911299D01*
X172995748Y-149899000D01*
X173079252Y-149899000D01*
X173204130Y-149911299D01*
X173204130Y-149911299D01*
G37*
G36*
X186318000Y-150807500D02*
X184318000Y-150807500D01*
X184318000Y-147007500D01*
X186318000Y-147007500D01*
X186318000Y-150807500D01*
X186318000Y-150807500D01*
G37*
G36*
X192618000Y-149657500D02*
X190618000Y-149657500D01*
X190618000Y-148157500D01*
X192618000Y-148157500D01*
X192618000Y-149657500D01*
X192618000Y-149657500D01*
G37*
G36*
X178284130Y-147371299D02*
X178444355Y-147419903D01*
X178592020Y-147498831D01*
X178721449Y-147605051D01*
X178827669Y-147734480D01*
X178906597Y-147882145D01*
X178955201Y-148042370D01*
X178971612Y-148209000D01*
X178955201Y-148375630D01*
X178906597Y-148535855D01*
X178827669Y-148683520D01*
X178721449Y-148812949D01*
X178592020Y-148919169D01*
X178444355Y-148998097D01*
X178284130Y-149046701D01*
X178159252Y-149059000D01*
X178075748Y-149059000D01*
X177950870Y-149046701D01*
X177790645Y-148998097D01*
X177642980Y-148919169D01*
X177513551Y-148812949D01*
X177407331Y-148683520D01*
X177328403Y-148535855D01*
X177279799Y-148375630D01*
X177263388Y-148209000D01*
X177279799Y-148042370D01*
X177328403Y-147882145D01*
X177407331Y-147734480D01*
X177513551Y-147605051D01*
X177642980Y-147498831D01*
X177790645Y-147419903D01*
X177950870Y-147371299D01*
X178075748Y-147359000D01*
X178159252Y-147359000D01*
X178284130Y-147371299D01*
X178284130Y-147371299D01*
G37*
G36*
X175744130Y-147371299D02*
X175904355Y-147419903D01*
X176052020Y-147498831D01*
X176181449Y-147605051D01*
X176287669Y-147734480D01*
X176366597Y-147882145D01*
X176415201Y-148042370D01*
X176431612Y-148209000D01*
X176415201Y-148375630D01*
X176366597Y-148535855D01*
X176287669Y-148683520D01*
X176181449Y-148812949D01*
X176052020Y-148919169D01*
X175904355Y-148998097D01*
X175744130Y-149046701D01*
X175619252Y-149059000D01*
X175535748Y-149059000D01*
X175410870Y-149046701D01*
X175250645Y-148998097D01*
X175102980Y-148919169D01*
X174973551Y-148812949D01*
X174867331Y-148683520D01*
X174788403Y-148535855D01*
X174739799Y-148375630D01*
X174723388Y-148209000D01*
X174739799Y-148042370D01*
X174788403Y-147882145D01*
X174867331Y-147734480D01*
X174973551Y-147605051D01*
X175102980Y-147498831D01*
X175250645Y-147419903D01*
X175410870Y-147371299D01*
X175535748Y-147359000D01*
X175619252Y-147359000D01*
X175744130Y-147371299D01*
X175744130Y-147371299D01*
G37*
G36*
X166917630Y-147371299D02*
X167077855Y-147419903D01*
X167225520Y-147498831D01*
X167354949Y-147605051D01*
X167461169Y-147734480D01*
X167540097Y-147882145D01*
X167588701Y-148042370D01*
X167605112Y-148209000D01*
X167588701Y-148375630D01*
X167540097Y-148535855D01*
X167461169Y-148683520D01*
X167354949Y-148812949D01*
X167225520Y-148919169D01*
X167077855Y-148998097D01*
X166917630Y-149046701D01*
X166792752Y-149059000D01*
X166709248Y-149059000D01*
X166584370Y-149046701D01*
X166424145Y-148998097D01*
X166276480Y-148919169D01*
X166147051Y-148812949D01*
X166040831Y-148683520D01*
X165961903Y-148535855D01*
X165913299Y-148375630D01*
X165896888Y-148209000D01*
X165913299Y-148042370D01*
X165961903Y-147882145D01*
X166040831Y-147734480D01*
X166147051Y-147605051D01*
X166276480Y-147498831D01*
X166424145Y-147419903D01*
X166584370Y-147371299D01*
X166709248Y-147359000D01*
X166792752Y-147359000D01*
X166917630Y-147371299D01*
X166917630Y-147371299D01*
G37*
G36*
X164377630Y-147371299D02*
X164537855Y-147419903D01*
X164685520Y-147498831D01*
X164814949Y-147605051D01*
X164921169Y-147734480D01*
X165000097Y-147882145D01*
X165048701Y-148042370D01*
X165065112Y-148209000D01*
X165048701Y-148375630D01*
X165000097Y-148535855D01*
X164921169Y-148683520D01*
X164814949Y-148812949D01*
X164685520Y-148919169D01*
X164537855Y-148998097D01*
X164377630Y-149046701D01*
X164252752Y-149059000D01*
X164169248Y-149059000D01*
X164044370Y-149046701D01*
X163884145Y-148998097D01*
X163736480Y-148919169D01*
X163607051Y-148812949D01*
X163500831Y-148683520D01*
X163421903Y-148535855D01*
X163373299Y-148375630D01*
X163356888Y-148209000D01*
X163373299Y-148042370D01*
X163421903Y-147882145D01*
X163500831Y-147734480D01*
X163607051Y-147605051D01*
X163736480Y-147498831D01*
X163884145Y-147419903D01*
X164044370Y-147371299D01*
X164169248Y-147359000D01*
X164252752Y-147359000D01*
X164377630Y-147371299D01*
X164377630Y-147371299D01*
G37*
G36*
X161837630Y-147371299D02*
X161997855Y-147419903D01*
X162145520Y-147498831D01*
X162274949Y-147605051D01*
X162381169Y-147734480D01*
X162460097Y-147882145D01*
X162508701Y-148042370D01*
X162525112Y-148209000D01*
X162508701Y-148375630D01*
X162460097Y-148535855D01*
X162381169Y-148683520D01*
X162274949Y-148812949D01*
X162145520Y-148919169D01*
X161997855Y-148998097D01*
X161837630Y-149046701D01*
X161712752Y-149059000D01*
X161629248Y-149059000D01*
X161504370Y-149046701D01*
X161344145Y-148998097D01*
X161196480Y-148919169D01*
X161067051Y-148812949D01*
X160960831Y-148683520D01*
X160881903Y-148535855D01*
X160833299Y-148375630D01*
X160816888Y-148209000D01*
X160833299Y-148042370D01*
X160881903Y-147882145D01*
X160960831Y-147734480D01*
X161067051Y-147605051D01*
X161196480Y-147498831D01*
X161344145Y-147419903D01*
X161504370Y-147371299D01*
X161629248Y-147359000D01*
X161712752Y-147359000D01*
X161837630Y-147371299D01*
X161837630Y-147371299D01*
G37*
G36*
X159297630Y-147371299D02*
X159457855Y-147419903D01*
X159605520Y-147498831D01*
X159734949Y-147605051D01*
X159841169Y-147734480D01*
X159920097Y-147882145D01*
X159968701Y-148042370D01*
X159985112Y-148209000D01*
X159968701Y-148375630D01*
X159920097Y-148535855D01*
X159841169Y-148683520D01*
X159734949Y-148812949D01*
X159605520Y-148919169D01*
X159457855Y-148998097D01*
X159297630Y-149046701D01*
X159172752Y-149059000D01*
X159089248Y-149059000D01*
X158964370Y-149046701D01*
X158804145Y-148998097D01*
X158656480Y-148919169D01*
X158527051Y-148812949D01*
X158420831Y-148683520D01*
X158341903Y-148535855D01*
X158293299Y-148375630D01*
X158276888Y-148209000D01*
X158293299Y-148042370D01*
X158341903Y-147882145D01*
X158420831Y-147734480D01*
X158527051Y-147605051D01*
X158656480Y-147498831D01*
X158804145Y-147419903D01*
X158964370Y-147371299D01*
X159089248Y-147359000D01*
X159172752Y-147359000D01*
X159297630Y-147371299D01*
X159297630Y-147371299D01*
G37*
G36*
X170664130Y-147371299D02*
X170824355Y-147419903D01*
X170972020Y-147498831D01*
X171101449Y-147605051D01*
X171207669Y-147734480D01*
X171286597Y-147882145D01*
X171335201Y-148042370D01*
X171351612Y-148209000D01*
X171335201Y-148375630D01*
X171286597Y-148535855D01*
X171207669Y-148683520D01*
X171101449Y-148812949D01*
X170972020Y-148919169D01*
X170824355Y-148998097D01*
X170664130Y-149046701D01*
X170539252Y-149059000D01*
X170455748Y-149059000D01*
X170330870Y-149046701D01*
X170170645Y-148998097D01*
X170022980Y-148919169D01*
X169893551Y-148812949D01*
X169787331Y-148683520D01*
X169708403Y-148535855D01*
X169659799Y-148375630D01*
X169643388Y-148209000D01*
X169659799Y-148042370D01*
X169708403Y-147882145D01*
X169787331Y-147734480D01*
X169893551Y-147605051D01*
X170022980Y-147498831D01*
X170170645Y-147419903D01*
X170330870Y-147371299D01*
X170455748Y-147359000D01*
X170539252Y-147359000D01*
X170664130Y-147371299D01*
X170664130Y-147371299D01*
G37*
G36*
X182284630Y-147371299D02*
X182444855Y-147419903D01*
X182592520Y-147498831D01*
X182721949Y-147605051D01*
X182828169Y-147734480D01*
X182907097Y-147882145D01*
X182955701Y-148042370D01*
X182972112Y-148209000D01*
X182955701Y-148375630D01*
X182907097Y-148535855D01*
X182828169Y-148683520D01*
X182721949Y-148812949D01*
X182592520Y-148919169D01*
X182444855Y-148998097D01*
X182284630Y-149046701D01*
X182159752Y-149059000D01*
X182076248Y-149059000D01*
X181951370Y-149046701D01*
X181791145Y-148998097D01*
X181643480Y-148919169D01*
X181514051Y-148812949D01*
X181407831Y-148683520D01*
X181328903Y-148535855D01*
X181280299Y-148375630D01*
X181263888Y-148209000D01*
X181280299Y-148042370D01*
X181328903Y-147882145D01*
X181407831Y-147734480D01*
X181514051Y-147605051D01*
X181643480Y-147498831D01*
X181791145Y-147419903D01*
X181951370Y-147371299D01*
X182076248Y-147359000D01*
X182159752Y-147359000D01*
X182284630Y-147371299D01*
X182284630Y-147371299D01*
G37*
G36*
X173204130Y-147371299D02*
X173364355Y-147419903D01*
X173512020Y-147498831D01*
X173641449Y-147605051D01*
X173747669Y-147734480D01*
X173826597Y-147882145D01*
X173875201Y-148042370D01*
X173891612Y-148209000D01*
X173875201Y-148375630D01*
X173826597Y-148535855D01*
X173747669Y-148683520D01*
X173641449Y-148812949D01*
X173512020Y-148919169D01*
X173364355Y-148998097D01*
X173204130Y-149046701D01*
X173079252Y-149059000D01*
X172995748Y-149059000D01*
X172870870Y-149046701D01*
X172710645Y-148998097D01*
X172562980Y-148919169D01*
X172433551Y-148812949D01*
X172327331Y-148683520D01*
X172248403Y-148535855D01*
X172199799Y-148375630D01*
X172183388Y-148209000D01*
X172199799Y-148042370D01*
X172248403Y-147882145D01*
X172327331Y-147734480D01*
X172433551Y-147605051D01*
X172562980Y-147498831D01*
X172710645Y-147419903D01*
X172870870Y-147371299D01*
X172995748Y-147359000D01*
X173079252Y-147359000D01*
X173204130Y-147371299D01*
X173204130Y-147371299D01*
G37*
G36*
X192618000Y-147357500D02*
X190618000Y-147357500D01*
X190618000Y-145857500D01*
X192618000Y-145857500D01*
X192618000Y-147357500D01*
X192618000Y-147357500D01*
G37*
G36*
X159169000Y-146078500D02*
X157569000Y-146078500D01*
X157569000Y-143898500D01*
X159169000Y-143898500D01*
X159169000Y-146078500D01*
X159169000Y-146078500D01*
G37*
G36*
X181174492Y-144592076D02*
X181208383Y-144602357D01*
X181239611Y-144619048D01*
X181266985Y-144641515D01*
X181289452Y-144668889D01*
X181306143Y-144700117D01*
X181316424Y-144734008D01*
X181320500Y-144775391D01*
X181320500Y-145800609D01*
X181316424Y-145841992D01*
X181306143Y-145875883D01*
X181289452Y-145907111D01*
X181266985Y-145934485D01*
X181239611Y-145956952D01*
X181208383Y-145973643D01*
X181174492Y-145983924D01*
X181133109Y-145988000D01*
X180532891Y-145988000D01*
X180491508Y-145983924D01*
X180457617Y-145973643D01*
X180426389Y-145956952D01*
X180399015Y-145934485D01*
X180376548Y-145907111D01*
X180359857Y-145875883D01*
X180349576Y-145841992D01*
X180345500Y-145800609D01*
X180345500Y-144775391D01*
X180349576Y-144734008D01*
X180359857Y-144700117D01*
X180376548Y-144668889D01*
X180399015Y-144641515D01*
X180426389Y-144619048D01*
X180457617Y-144602357D01*
X180491508Y-144592076D01*
X180532891Y-144588000D01*
X181133109Y-144588000D01*
X181174492Y-144592076D01*
X181174492Y-144592076D01*
G37*
G36*
X179299492Y-144592076D02*
X179333383Y-144602357D01*
X179364611Y-144619048D01*
X179391985Y-144641515D01*
X179414452Y-144668889D01*
X179431143Y-144700117D01*
X179441424Y-144734008D01*
X179445500Y-144775391D01*
X179445500Y-145800609D01*
X179441424Y-145841992D01*
X179431143Y-145875883D01*
X179414452Y-145907111D01*
X179391985Y-145934485D01*
X179364611Y-145956952D01*
X179333383Y-145973643D01*
X179299492Y-145983924D01*
X179258109Y-145988000D01*
X178657891Y-145988000D01*
X178616508Y-145983924D01*
X178582617Y-145973643D01*
X178551389Y-145956952D01*
X178524015Y-145934485D01*
X178501548Y-145907111D01*
X178484857Y-145875883D01*
X178474576Y-145841992D01*
X178470500Y-145800609D01*
X178470500Y-144775391D01*
X178474576Y-144734008D01*
X178484857Y-144700117D01*
X178501548Y-144668889D01*
X178524015Y-144641515D01*
X178551389Y-144619048D01*
X178582617Y-144602357D01*
X178616508Y-144592076D01*
X178657891Y-144588000D01*
X179258109Y-144588000D01*
X179299492Y-144592076D01*
X179299492Y-144592076D01*
G37*
G36*
X168996415Y-143031376D02*
X169030306Y-143041657D01*
X169061534Y-143058348D01*
X169093678Y-143084729D01*
X169518097Y-143509148D01*
X169544478Y-143541292D01*
X169561169Y-143572520D01*
X169571450Y-143606411D01*
X169574921Y-143641653D01*
X169571450Y-143676895D01*
X169561169Y-143710786D01*
X169544478Y-143742014D01*
X169518097Y-143774158D01*
X168793158Y-144499097D01*
X168761014Y-144525478D01*
X168729786Y-144542169D01*
X168695895Y-144552450D01*
X168660653Y-144555921D01*
X168625411Y-144552450D01*
X168591520Y-144542169D01*
X168560292Y-144525478D01*
X168528148Y-144499097D01*
X168103729Y-144074678D01*
X168077348Y-144042534D01*
X168060657Y-144011306D01*
X168050376Y-143977415D01*
X168046905Y-143942173D01*
X168050376Y-143906931D01*
X168060657Y-143873040D01*
X168077348Y-143841812D01*
X168103729Y-143809668D01*
X168828668Y-143084729D01*
X168860812Y-143058348D01*
X168892040Y-143041657D01*
X168925931Y-143031376D01*
X168961173Y-143027905D01*
X168996415Y-143031376D01*
X168996415Y-143031376D01*
G37*
G36*
X191778992Y-142941076D02*
X191812883Y-142951357D01*
X191844111Y-142968048D01*
X191871485Y-142990515D01*
X191893952Y-143017889D01*
X191910643Y-143049117D01*
X191920924Y-143083008D01*
X191925000Y-143124391D01*
X191925000Y-144149609D01*
X191920924Y-144190992D01*
X191910643Y-144224883D01*
X191893952Y-144256111D01*
X191871485Y-144283485D01*
X191844111Y-144305952D01*
X191812883Y-144322643D01*
X191778992Y-144332924D01*
X191737609Y-144337000D01*
X191137391Y-144337000D01*
X191096008Y-144332924D01*
X191062117Y-144322643D01*
X191030889Y-144305952D01*
X191003515Y-144283485D01*
X190981048Y-144256111D01*
X190964357Y-144224883D01*
X190954076Y-144190992D01*
X190950000Y-144149609D01*
X190950000Y-143124391D01*
X190954076Y-143083008D01*
X190964357Y-143049117D01*
X190981048Y-143017889D01*
X191003515Y-142990515D01*
X191030889Y-142968048D01*
X191062117Y-142951357D01*
X191096008Y-142941076D01*
X191137391Y-142937000D01*
X191737609Y-142937000D01*
X191778992Y-142941076D01*
X191778992Y-142941076D01*
G37*
G36*
X189903992Y-142941076D02*
X189937883Y-142951357D01*
X189969111Y-142968048D01*
X189996485Y-142990515D01*
X190018952Y-143017889D01*
X190035643Y-143049117D01*
X190045924Y-143083008D01*
X190050000Y-143124391D01*
X190050000Y-144149609D01*
X190045924Y-144190992D01*
X190035643Y-144224883D01*
X190018952Y-144256111D01*
X189996485Y-144283485D01*
X189969111Y-144305952D01*
X189937883Y-144322643D01*
X189903992Y-144332924D01*
X189862609Y-144337000D01*
X189262391Y-144337000D01*
X189221008Y-144332924D01*
X189187117Y-144322643D01*
X189155889Y-144305952D01*
X189128515Y-144283485D01*
X189106048Y-144256111D01*
X189089357Y-144224883D01*
X189079076Y-144190992D01*
X189075000Y-144149609D01*
X189075000Y-143124391D01*
X189079076Y-143083008D01*
X189089357Y-143049117D01*
X189106048Y-143017889D01*
X189128515Y-142990515D01*
X189155889Y-142968048D01*
X189187117Y-142951357D01*
X189221008Y-142941076D01*
X189262391Y-142937000D01*
X189862609Y-142937000D01*
X189903992Y-142941076D01*
X189903992Y-142941076D01*
G37*
G36*
X186695300Y-144128151D02*
X184995300Y-144128151D01*
X184995300Y-142428151D01*
X186695300Y-142428151D01*
X186695300Y-144128151D01*
X186695300Y-144128151D01*
G37*
G36*
X172496703Y-142921060D02*
X171436042Y-143981721D01*
X171047133Y-143592812D01*
X172107794Y-142532151D01*
X172496703Y-142921060D01*
X172496703Y-142921060D01*
G37*
G36*
X174900867Y-143592812D02*
X174511958Y-143981721D01*
X173451297Y-142921060D01*
X173840206Y-142532151D01*
X174900867Y-143592812D01*
X174900867Y-143592812D01*
G37*
G36*
X161970992Y-142567076D02*
X162004883Y-142577357D01*
X162036111Y-142594048D01*
X162063485Y-142616515D01*
X162085952Y-142643889D01*
X162102643Y-142675117D01*
X162112924Y-142709008D01*
X162117000Y-142750391D01*
X162117000Y-143350609D01*
X162112924Y-143391992D01*
X162102643Y-143425883D01*
X162085952Y-143457111D01*
X162063485Y-143484485D01*
X162036111Y-143506952D01*
X162004883Y-143523643D01*
X161970992Y-143533924D01*
X161929609Y-143538000D01*
X160904391Y-143538000D01*
X160863008Y-143533924D01*
X160829117Y-143523643D01*
X160797889Y-143506952D01*
X160770515Y-143484485D01*
X160748048Y-143457111D01*
X160731357Y-143425883D01*
X160721076Y-143391992D01*
X160717000Y-143350609D01*
X160717000Y-142750391D01*
X160721076Y-142709008D01*
X160731357Y-142675117D01*
X160748048Y-142643889D01*
X160770515Y-142616515D01*
X160797889Y-142594048D01*
X160829117Y-142577357D01*
X160863008Y-142567076D01*
X160904391Y-142563000D01*
X161929609Y-142563000D01*
X161970992Y-142567076D01*
X161970992Y-142567076D01*
G37*
G36*
X171931018Y-142355374D02*
X170870357Y-143416035D01*
X169915763Y-142461441D01*
X170976424Y-141400780D01*
X171931018Y-142355374D01*
X171931018Y-142355374D01*
G37*
G36*
X176032237Y-142461441D02*
X175077643Y-143416035D01*
X174016982Y-142355374D01*
X174971576Y-141400780D01*
X176032237Y-142461441D01*
X176032237Y-142461441D01*
G37*
G36*
X167670589Y-141705550D02*
X167704480Y-141715831D01*
X167735708Y-141732522D01*
X167767852Y-141758903D01*
X168192271Y-142183322D01*
X168218652Y-142215466D01*
X168235343Y-142246694D01*
X168245624Y-142280585D01*
X168249095Y-142315827D01*
X168245624Y-142351069D01*
X168235343Y-142384960D01*
X168218652Y-142416188D01*
X168192271Y-142448332D01*
X167467332Y-143173271D01*
X167435188Y-143199652D01*
X167403960Y-143216343D01*
X167370069Y-143226624D01*
X167334827Y-143230095D01*
X167299585Y-143226624D01*
X167265694Y-143216343D01*
X167234466Y-143199652D01*
X167202322Y-143173271D01*
X166777903Y-142748852D01*
X166751522Y-142716708D01*
X166734831Y-142685480D01*
X166724550Y-142651589D01*
X166721079Y-142616347D01*
X166724550Y-142581105D01*
X166734831Y-142547214D01*
X166751522Y-142515986D01*
X166777903Y-142483842D01*
X167502842Y-141758903D01*
X167534986Y-141732522D01*
X167566214Y-141715831D01*
X167600105Y-141705550D01*
X167635347Y-141702079D01*
X167670589Y-141705550D01*
X167670589Y-141705550D01*
G37*
G36*
X179117569Y-141189876D02*
X179151460Y-141200157D01*
X179182688Y-141216848D01*
X179214832Y-141243229D01*
X179939771Y-141968168D01*
X179966152Y-142000312D01*
X179982843Y-142031540D01*
X179993124Y-142065431D01*
X179996595Y-142100673D01*
X179993124Y-142135915D01*
X179982843Y-142169806D01*
X179966152Y-142201034D01*
X179939771Y-142233178D01*
X179515352Y-142657597D01*
X179483208Y-142683978D01*
X179451980Y-142700669D01*
X179418089Y-142710950D01*
X179382847Y-142714421D01*
X179347605Y-142710950D01*
X179313714Y-142700669D01*
X179282486Y-142683978D01*
X179250342Y-142657597D01*
X178525403Y-141932658D01*
X178499022Y-141900514D01*
X178482331Y-141869286D01*
X178472050Y-141835395D01*
X178468579Y-141800153D01*
X178472050Y-141764911D01*
X178482331Y-141731020D01*
X178499022Y-141699792D01*
X178525403Y-141667648D01*
X178949822Y-141243229D01*
X178981966Y-141216848D01*
X179013194Y-141200157D01*
X179047085Y-141189876D01*
X179082327Y-141186405D01*
X179117569Y-141189876D01*
X179117569Y-141189876D01*
G37*
G36*
X176597923Y-141895756D02*
X176209014Y-142284665D01*
X175148353Y-141224004D01*
X175537262Y-140835095D01*
X176597923Y-141895756D01*
X176597923Y-141895756D01*
G37*
G36*
X170799647Y-141224004D02*
X169738986Y-142284665D01*
X169350077Y-141895756D01*
X170410738Y-140835095D01*
X170799647Y-141224004D01*
X170799647Y-141224004D01*
G37*
G36*
X177163608Y-141330070D02*
X176774699Y-141718979D01*
X175714038Y-140658318D01*
X176102947Y-140269409D01*
X177163608Y-141330070D01*
X177163608Y-141330070D01*
G37*
G36*
X170233962Y-140658318D02*
X169173301Y-141718979D01*
X168784392Y-141330070D01*
X169845053Y-140269409D01*
X170233962Y-140658318D01*
X170233962Y-140658318D01*
G37*
G36*
X161970992Y-140692076D02*
X162004883Y-140702357D01*
X162036111Y-140719048D01*
X162063485Y-140741515D01*
X162085952Y-140768889D01*
X162102643Y-140800117D01*
X162112924Y-140834008D01*
X162117000Y-140875391D01*
X162117000Y-141475609D01*
X162112924Y-141516992D01*
X162102643Y-141550883D01*
X162085952Y-141582111D01*
X162063485Y-141609485D01*
X162036111Y-141631952D01*
X162004883Y-141648643D01*
X161970992Y-141658924D01*
X161929609Y-141663000D01*
X160904391Y-141663000D01*
X160863008Y-141658924D01*
X160829117Y-141648643D01*
X160797889Y-141631952D01*
X160770515Y-141609485D01*
X160748048Y-141582111D01*
X160731357Y-141550883D01*
X160721076Y-141516992D01*
X160717000Y-141475609D01*
X160717000Y-140875391D01*
X160721076Y-140834008D01*
X160731357Y-140800117D01*
X160748048Y-140768889D01*
X160770515Y-140741515D01*
X160797889Y-140719048D01*
X160829117Y-140702357D01*
X160863008Y-140692076D01*
X160904391Y-140688000D01*
X161929609Y-140688000D01*
X161970992Y-140692076D01*
X161970992Y-140692076D01*
G37*
G36*
X186011930Y-139900450D02*
X186172155Y-139949054D01*
X186319820Y-140027982D01*
X186449249Y-140134202D01*
X186555469Y-140263631D01*
X186634397Y-140411296D01*
X186683001Y-140571521D01*
X186699412Y-140738151D01*
X186683001Y-140904781D01*
X186634397Y-141065006D01*
X186555469Y-141212671D01*
X186449249Y-141342100D01*
X186319820Y-141448320D01*
X186172155Y-141527248D01*
X186011930Y-141575852D01*
X185887052Y-141588151D01*
X185803548Y-141588151D01*
X185678670Y-141575852D01*
X185518445Y-141527248D01*
X185370780Y-141448320D01*
X185241351Y-141342100D01*
X185135131Y-141212671D01*
X185056203Y-141065006D01*
X185007599Y-140904781D01*
X184991188Y-140738151D01*
X185007599Y-140571521D01*
X185056203Y-140411296D01*
X185135131Y-140263631D01*
X185241351Y-140134202D01*
X185370780Y-140027982D01*
X185518445Y-139949054D01*
X185678670Y-139900450D01*
X185803548Y-139888151D01*
X185887052Y-139888151D01*
X186011930Y-139900450D01*
X186011930Y-139900450D01*
G37*
G36*
X180443395Y-139864050D02*
X180477286Y-139874331D01*
X180508514Y-139891022D01*
X180540658Y-139917403D01*
X181265597Y-140642342D01*
X181291978Y-140674486D01*
X181308669Y-140705714D01*
X181318950Y-140739605D01*
X181322421Y-140774847D01*
X181318950Y-140810089D01*
X181308669Y-140843980D01*
X181291978Y-140875208D01*
X181265597Y-140907352D01*
X180841178Y-141331771D01*
X180809034Y-141358152D01*
X180777806Y-141374843D01*
X180743915Y-141385124D01*
X180708673Y-141388595D01*
X180673431Y-141385124D01*
X180639540Y-141374843D01*
X180608312Y-141358152D01*
X180576168Y-141331771D01*
X179851229Y-140606832D01*
X179824848Y-140574688D01*
X179808157Y-140543460D01*
X179797876Y-140509569D01*
X179794405Y-140474327D01*
X179797876Y-140439085D01*
X179808157Y-140405194D01*
X179824848Y-140373966D01*
X179851229Y-140341822D01*
X180275648Y-139917403D01*
X180307792Y-139891022D01*
X180339020Y-139874331D01*
X180372911Y-139864050D01*
X180408153Y-139860579D01*
X180443395Y-139864050D01*
X180443395Y-139864050D01*
G37*
G36*
X169668276Y-140092633D02*
X168607615Y-141153294D01*
X168218706Y-140764385D01*
X169279367Y-139703724D01*
X169668276Y-140092633D01*
X169668276Y-140092633D01*
G37*
G36*
X177729294Y-140764385D02*
X177340385Y-141153294D01*
X176279724Y-140092633D01*
X176668633Y-139703724D01*
X177729294Y-140764385D01*
X177729294Y-140764385D01*
G37*
G36*
X169102591Y-139526947D02*
X168041930Y-140587608D01*
X167653021Y-140198699D01*
X168713682Y-139138038D01*
X169102591Y-139526947D01*
X169102591Y-139526947D01*
G37*
G36*
X178294979Y-140198699D02*
X177906070Y-140587608D01*
X176845409Y-139526947D01*
X177234318Y-139138038D01*
X178294979Y-140198699D01*
X178294979Y-140198699D01*
G37*
G36*
X168536905Y-138961262D02*
X167476244Y-140021923D01*
X167087335Y-139633014D01*
X168147996Y-138572353D01*
X168536905Y-138961262D01*
X168536905Y-138961262D01*
G37*
G36*
X178860665Y-139633014D02*
X178471756Y-140021923D01*
X177411095Y-138961262D01*
X177800004Y-138572353D01*
X178860665Y-139633014D01*
X178860665Y-139633014D01*
G37*
G36*
X167971220Y-138395576D02*
X166910559Y-139456237D01*
X165955965Y-138501643D01*
X167016626Y-137440982D01*
X167971220Y-138395576D01*
X167971220Y-138395576D01*
G37*
G36*
X179992035Y-138501643D02*
X179037441Y-139456237D01*
X177976780Y-138395576D01*
X178931374Y-137440982D01*
X179992035Y-138501643D01*
X179992035Y-138501643D01*
G37*
G36*
X185639000Y-138371000D02*
X184439000Y-138371000D01*
X184439000Y-137471000D01*
X185639000Y-137471000D01*
X185639000Y-138371000D01*
X185639000Y-138371000D01*
G37*
G36*
X180557721Y-137935958D02*
X180168812Y-138324867D01*
X179108151Y-137264206D01*
X179497060Y-136875297D01*
X180557721Y-137935958D01*
X180557721Y-137935958D01*
G37*
G36*
X166839849Y-137264206D02*
X165779188Y-138324867D01*
X165390279Y-137935958D01*
X166450940Y-136875297D01*
X166839849Y-137264206D01*
X166839849Y-137264206D01*
G37*
G36*
X159169000Y-136898500D02*
X157569000Y-136898500D01*
X157569000Y-134718500D01*
X159169000Y-134718500D01*
X159169000Y-136898500D01*
X159169000Y-136898500D01*
G37*
G36*
X189131000Y-136715000D02*
X187631000Y-136715000D01*
X187631000Y-134715000D01*
X189131000Y-134715000D01*
X189131000Y-136715000D01*
X189131000Y-136715000D01*
G37*
G36*
X191951160Y-135668256D02*
X191984215Y-135671511D01*
X192026628Y-135684377D01*
X192069042Y-135697243D01*
X192147217Y-135739029D01*
X192215738Y-135795262D01*
X192271971Y-135863783D01*
X192313757Y-135941958D01*
X192339489Y-136026786D01*
X192348177Y-136115000D01*
X192339489Y-136203214D01*
X192313757Y-136288042D01*
X192271971Y-136366217D01*
X192215738Y-136434738D01*
X192147217Y-136490971D01*
X192069042Y-136532757D01*
X192026628Y-136545623D01*
X191984215Y-136558489D01*
X191951160Y-136561744D01*
X191918106Y-136565000D01*
X191173894Y-136565000D01*
X191140840Y-136561744D01*
X191107785Y-136558489D01*
X191065372Y-136545623D01*
X191022958Y-136532757D01*
X190944783Y-136490971D01*
X190876262Y-136434738D01*
X190820029Y-136366217D01*
X190778243Y-136288042D01*
X190752511Y-136203214D01*
X190743823Y-136115000D01*
X190752511Y-136026786D01*
X190778243Y-135941958D01*
X190820029Y-135863783D01*
X190876262Y-135795262D01*
X190944783Y-135739029D01*
X191022958Y-135697243D01*
X191065372Y-135684377D01*
X191107785Y-135671511D01*
X191140840Y-135668256D01*
X191173894Y-135665000D01*
X191918106Y-135665000D01*
X191951160Y-135668256D01*
X191951160Y-135668256D01*
G37*
G36*
X166839849Y-135531794D02*
X166450940Y-135920703D01*
X165390279Y-134860042D01*
X165779188Y-134471133D01*
X166839849Y-135531794D01*
X166839849Y-135531794D01*
G37*
G36*
X180557721Y-134860042D02*
X179497060Y-135920703D01*
X179108151Y-135531794D01*
X180168812Y-134471133D01*
X180557721Y-134860042D01*
X180557721Y-134860042D01*
G37*
G36*
X167971220Y-134400424D02*
X167016626Y-135355018D01*
X165955965Y-134294357D01*
X166910559Y-133339763D01*
X167971220Y-134400424D01*
X167971220Y-134400424D01*
G37*
G36*
X179992035Y-134294357D02*
X178931374Y-135355018D01*
X177976780Y-134400424D01*
X179037441Y-133339763D01*
X179992035Y-134294357D01*
X179992035Y-134294357D01*
G37*
G36*
X185639000Y-135071000D02*
X184439000Y-135071000D01*
X184439000Y-134171000D01*
X185639000Y-134171000D01*
X185639000Y-135071000D01*
X185639000Y-135071000D01*
G37*
G36*
X192881000Y-134850000D02*
X190381000Y-134850000D01*
X190381000Y-132950000D01*
X192881000Y-132950000D01*
X192881000Y-134850000D01*
X192881000Y-134850000D01*
G37*
G36*
X189306000Y-134240000D02*
X187656000Y-134240000D01*
X187656000Y-131240000D01*
X189306000Y-131240000D01*
X189306000Y-134240000D01*
X189306000Y-134240000D01*
G37*
G36*
X178860665Y-133162986D02*
X177800004Y-134223647D01*
X177411095Y-133834738D01*
X178471756Y-132774077D01*
X178860665Y-133162986D01*
X178860665Y-133162986D01*
G37*
G36*
X168536905Y-133834738D02*
X168147996Y-134223647D01*
X167087335Y-133162986D01*
X167476244Y-132774077D01*
X168536905Y-133834738D01*
X168536905Y-133834738D01*
G37*
G36*
X169102591Y-133269053D02*
X168713682Y-133657962D01*
X167653021Y-132597301D01*
X168041930Y-132208392D01*
X169102591Y-133269053D01*
X169102591Y-133269053D01*
G37*
G36*
X178294979Y-132597301D02*
X177234318Y-133657962D01*
X176845409Y-133269053D01*
X177906070Y-132208392D01*
X178294979Y-132597301D01*
X178294979Y-132597301D01*
G37*
G36*
X158154630Y-131750299D02*
X158314855Y-131798903D01*
X158462520Y-131877831D01*
X158591949Y-131984051D01*
X158698169Y-132113480D01*
X158777097Y-132261145D01*
X158825701Y-132421370D01*
X158842112Y-132588000D01*
X158825701Y-132754630D01*
X158777097Y-132914855D01*
X158698169Y-133062520D01*
X158591949Y-133191949D01*
X158462520Y-133298169D01*
X158314855Y-133377097D01*
X158154630Y-133425701D01*
X158029752Y-133438000D01*
X157946248Y-133438000D01*
X157821370Y-133425701D01*
X157661145Y-133377097D01*
X157513480Y-133298169D01*
X157384051Y-133191949D01*
X157277831Y-133062520D01*
X157198903Y-132914855D01*
X157150299Y-132754630D01*
X157133888Y-132588000D01*
X157150299Y-132421370D01*
X157198903Y-132261145D01*
X157277831Y-132113480D01*
X157384051Y-131984051D01*
X157513480Y-131877831D01*
X157661145Y-131798903D01*
X157821370Y-131750299D01*
X157946248Y-131738000D01*
X158029752Y-131738000D01*
X158154630Y-131750299D01*
X158154630Y-131750299D01*
G37*
G36*
X161378000Y-133438000D02*
X159678000Y-133438000D01*
X159678000Y-131738000D01*
X161378000Y-131738000D01*
X161378000Y-133438000D01*
X161378000Y-133438000D01*
G37*
G36*
X169668276Y-132703367D02*
X169279367Y-133092276D01*
X168218706Y-132031615D01*
X168607615Y-131642706D01*
X169668276Y-132703367D01*
X169668276Y-132703367D01*
G37*
G36*
X177729294Y-132031615D02*
X176668633Y-133092276D01*
X176279724Y-132703367D01*
X177340385Y-131642706D01*
X177729294Y-132031615D01*
X177729294Y-132031615D01*
G37*
G36*
X177163608Y-131465930D02*
X176102947Y-132526591D01*
X175714038Y-132137682D01*
X176774699Y-131077021D01*
X177163608Y-131465930D01*
X177163608Y-131465930D01*
G37*
G36*
X170233962Y-132137682D02*
X169845053Y-132526591D01*
X168784392Y-131465930D01*
X169173301Y-131077021D01*
X170233962Y-132137682D01*
X170233962Y-132137682D01*
G37*
G36*
X192881000Y-132465000D02*
X190381000Y-132465000D01*
X190381000Y-130565000D01*
X192881000Y-130565000D01*
X192881000Y-132465000D01*
X192881000Y-132465000D01*
G37*
G36*
X176597923Y-130900244D02*
X175537262Y-131960905D01*
X175148353Y-131571996D01*
X176209014Y-130511335D01*
X176597923Y-130900244D01*
X176597923Y-130900244D01*
G37*
G36*
X170799647Y-131571996D02*
X170410738Y-131960905D01*
X169350077Y-130900244D01*
X169738986Y-130511335D01*
X170799647Y-131571996D01*
X170799647Y-131571996D01*
G37*
G36*
X166862069Y-130331376D02*
X166895960Y-130341657D01*
X166927188Y-130358348D01*
X166959332Y-130384729D01*
X167684271Y-131109668D01*
X167710652Y-131141812D01*
X167727343Y-131173040D01*
X167737624Y-131206931D01*
X167741095Y-131242173D01*
X167737624Y-131277415D01*
X167727343Y-131311306D01*
X167710652Y-131342534D01*
X167684271Y-131374678D01*
X167259852Y-131799097D01*
X167227708Y-131825478D01*
X167196480Y-131842169D01*
X167162589Y-131852450D01*
X167127347Y-131855921D01*
X167092105Y-131852450D01*
X167058214Y-131842169D01*
X167026986Y-131825478D01*
X166994842Y-131799097D01*
X166269903Y-131074158D01*
X166243522Y-131042014D01*
X166226831Y-131010786D01*
X166216550Y-130976895D01*
X166213079Y-130941653D01*
X166216550Y-130906411D01*
X166226831Y-130872520D01*
X166243522Y-130841292D01*
X166269903Y-130809148D01*
X166694322Y-130384729D01*
X166726466Y-130358348D01*
X166757694Y-130341657D01*
X166791585Y-130331376D01*
X166826827Y-130327905D01*
X166862069Y-130331376D01*
X166862069Y-130331376D01*
G37*
G36*
X171931018Y-130440626D02*
X170976424Y-131395220D01*
X169915763Y-130334559D01*
X170870357Y-129379965D01*
X171931018Y-130440626D01*
X171931018Y-130440626D01*
G37*
G36*
X176032237Y-130334559D02*
X174971576Y-131395220D01*
X174016982Y-130440626D01*
X175077643Y-129379965D01*
X176032237Y-130334559D01*
X176032237Y-130334559D01*
G37*
G36*
X160694630Y-129210299D02*
X160854855Y-129258903D01*
X161002520Y-129337831D01*
X161131949Y-129444051D01*
X161238169Y-129573480D01*
X161317097Y-129721145D01*
X161365701Y-129881370D01*
X161382112Y-130048000D01*
X161365701Y-130214630D01*
X161317097Y-130374855D01*
X161238169Y-130522520D01*
X161131949Y-130651949D01*
X161002520Y-130758169D01*
X160854855Y-130837097D01*
X160694630Y-130885701D01*
X160569752Y-130898000D01*
X160486248Y-130898000D01*
X160361370Y-130885701D01*
X160201145Y-130837097D01*
X160053480Y-130758169D01*
X159924051Y-130651949D01*
X159817831Y-130522520D01*
X159738903Y-130374855D01*
X159690299Y-130214630D01*
X159673888Y-130048000D01*
X159690299Y-129881370D01*
X159738903Y-129721145D01*
X159817831Y-129573480D01*
X159924051Y-129444051D01*
X160053480Y-129337831D01*
X160201145Y-129258903D01*
X160361370Y-129210299D01*
X160486248Y-129198000D01*
X160569752Y-129198000D01*
X160694630Y-129210299D01*
X160694630Y-129210299D01*
G37*
G36*
X158154630Y-129210299D02*
X158314855Y-129258903D01*
X158462520Y-129337831D01*
X158591949Y-129444051D01*
X158698169Y-129573480D01*
X158777097Y-129721145D01*
X158825701Y-129881370D01*
X158842112Y-130048000D01*
X158825701Y-130214630D01*
X158777097Y-130374855D01*
X158698169Y-130522520D01*
X158591949Y-130651949D01*
X158462520Y-130758169D01*
X158314855Y-130837097D01*
X158154630Y-130885701D01*
X158029752Y-130898000D01*
X157946248Y-130898000D01*
X157821370Y-130885701D01*
X157661145Y-130837097D01*
X157513480Y-130758169D01*
X157384051Y-130651949D01*
X157277831Y-130522520D01*
X157198903Y-130374855D01*
X157150299Y-130214630D01*
X157133888Y-130048000D01*
X157150299Y-129881370D01*
X157198903Y-129721145D01*
X157277831Y-129573480D01*
X157384051Y-129444051D01*
X157513480Y-129337831D01*
X157661145Y-129258903D01*
X157821370Y-129210299D01*
X157946248Y-129198000D01*
X158029752Y-129198000D01*
X158154630Y-129210299D01*
X158154630Y-129210299D01*
G37*
G36*
X189111000Y-130715000D02*
X187611000Y-130715000D01*
X187611000Y-128715000D01*
X189111000Y-128715000D01*
X189111000Y-130715000D01*
X189111000Y-130715000D01*
G37*
G36*
X168187895Y-129005550D02*
X168221786Y-129015831D01*
X168253014Y-129032522D01*
X168285158Y-129058903D01*
X169010097Y-129783842D01*
X169036478Y-129815986D01*
X169053169Y-129847214D01*
X169063450Y-129881105D01*
X169066921Y-129916347D01*
X169063450Y-129951589D01*
X169053169Y-129985480D01*
X169036478Y-130016708D01*
X169010097Y-130048852D01*
X168585678Y-130473271D01*
X168553534Y-130499652D01*
X168522306Y-130516343D01*
X168488415Y-130526624D01*
X168453173Y-130530095D01*
X168417931Y-130526624D01*
X168384040Y-130516343D01*
X168352812Y-130499652D01*
X168320668Y-130473271D01*
X167595729Y-129748332D01*
X167569348Y-129716188D01*
X167552657Y-129684960D01*
X167542376Y-129651069D01*
X167538905Y-129615827D01*
X167542376Y-129580585D01*
X167552657Y-129546694D01*
X167569348Y-129515466D01*
X167595729Y-129483322D01*
X168020148Y-129058903D01*
X168052292Y-129032522D01*
X168083520Y-129015831D01*
X168117411Y-129005550D01*
X168152653Y-129002079D01*
X168187895Y-129005550D01*
X168187895Y-129005550D01*
G37*
G36*
X178239502Y-128906463D02*
X178273393Y-128916744D01*
X178304621Y-128933435D01*
X178336765Y-128959816D01*
X178761184Y-129384235D01*
X178787565Y-129416379D01*
X178804256Y-129447607D01*
X178814537Y-129481498D01*
X178818008Y-129516740D01*
X178814537Y-129551982D01*
X178804256Y-129585873D01*
X178787565Y-129617101D01*
X178761184Y-129649245D01*
X178036245Y-130374184D01*
X178004101Y-130400565D01*
X177972873Y-130417256D01*
X177938982Y-130427537D01*
X177903740Y-130431008D01*
X177868498Y-130427537D01*
X177834607Y-130417256D01*
X177803379Y-130400565D01*
X177771235Y-130374184D01*
X177346816Y-129949765D01*
X177320435Y-129917621D01*
X177303744Y-129886393D01*
X177293463Y-129852502D01*
X177289992Y-129817260D01*
X177293463Y-129782018D01*
X177303744Y-129748127D01*
X177320435Y-129716899D01*
X177346816Y-129684755D01*
X178071755Y-128959816D01*
X178103899Y-128933435D01*
X178135127Y-128916744D01*
X178169018Y-128906463D01*
X178204260Y-128902992D01*
X178239502Y-128906463D01*
X178239502Y-128906463D01*
G37*
G36*
X165401569Y-128807376D02*
X165435460Y-128817657D01*
X165466688Y-128834348D01*
X165498832Y-128860729D01*
X166223771Y-129585668D01*
X166250152Y-129617812D01*
X166266843Y-129649040D01*
X166277124Y-129682931D01*
X166280595Y-129718173D01*
X166277124Y-129753415D01*
X166266843Y-129787306D01*
X166250152Y-129818534D01*
X166223771Y-129850678D01*
X165799352Y-130275097D01*
X165767208Y-130301478D01*
X165735980Y-130318169D01*
X165702089Y-130328450D01*
X165666847Y-130331921D01*
X165631605Y-130328450D01*
X165597714Y-130318169D01*
X165566486Y-130301478D01*
X165534342Y-130275097D01*
X164809403Y-129550158D01*
X164783022Y-129518014D01*
X164766331Y-129486786D01*
X164756050Y-129452895D01*
X164752579Y-129417653D01*
X164756050Y-129382411D01*
X164766331Y-129348520D01*
X164783022Y-129317292D01*
X164809403Y-129285148D01*
X165233822Y-128860729D01*
X165265966Y-128834348D01*
X165297194Y-128817657D01*
X165331085Y-128807376D01*
X165366327Y-128803905D01*
X165401569Y-128807376D01*
X165401569Y-128807376D01*
G37*
G36*
X174900867Y-129203188D02*
X173840206Y-130263849D01*
X173451297Y-129874940D01*
X174511958Y-128814279D01*
X174900867Y-129203188D01*
X174900867Y-129203188D01*
G37*
G36*
X172496703Y-129874940D02*
X172107794Y-130263849D01*
X171047133Y-129203188D01*
X171436042Y-128814279D01*
X172496703Y-129874940D01*
X172496703Y-129874940D01*
G37*
G36*
X191951160Y-128868256D02*
X191984215Y-128871511D01*
X192026628Y-128884377D01*
X192069042Y-128897243D01*
X192147217Y-128939029D01*
X192215738Y-128995262D01*
X192271971Y-129063783D01*
X192313757Y-129141958D01*
X192313757Y-129141959D01*
X192339489Y-129226785D01*
X192348177Y-129315000D01*
X192339489Y-129403215D01*
X192335109Y-129417653D01*
X192313757Y-129488042D01*
X192271971Y-129566217D01*
X192215738Y-129634738D01*
X192147217Y-129690971D01*
X192069042Y-129732757D01*
X192032011Y-129743990D01*
X191984215Y-129758489D01*
X191951160Y-129761745D01*
X191918106Y-129765000D01*
X191173894Y-129765000D01*
X191140840Y-129761745D01*
X191107785Y-129758489D01*
X191059989Y-129743990D01*
X191022958Y-129732757D01*
X190944783Y-129690971D01*
X190876262Y-129634738D01*
X190820029Y-129566217D01*
X190778243Y-129488042D01*
X190756891Y-129417653D01*
X190752511Y-129403215D01*
X190743823Y-129315000D01*
X190752511Y-129226785D01*
X190778243Y-129141959D01*
X190778243Y-129141958D01*
X190820029Y-129063783D01*
X190876262Y-128995262D01*
X190944783Y-128939029D01*
X191022958Y-128897243D01*
X191065372Y-128884377D01*
X191107785Y-128871511D01*
X191140840Y-128868256D01*
X191173894Y-128865000D01*
X191918106Y-128865000D01*
X191951160Y-128868256D01*
X191951160Y-128868256D01*
G37*
G36*
X183396992Y-128018576D02*
X183430883Y-128028857D01*
X183462111Y-128045548D01*
X183489485Y-128068015D01*
X183511952Y-128095389D01*
X183528643Y-128126617D01*
X183538924Y-128160508D01*
X183543000Y-128201891D01*
X183543000Y-129227109D01*
X183538924Y-129268492D01*
X183528643Y-129302383D01*
X183511952Y-129333611D01*
X183489485Y-129360985D01*
X183462111Y-129383452D01*
X183430883Y-129400143D01*
X183396992Y-129410424D01*
X183355609Y-129414500D01*
X182755391Y-129414500D01*
X182714008Y-129410424D01*
X182680117Y-129400143D01*
X182648889Y-129383452D01*
X182621515Y-129360985D01*
X182599048Y-129333611D01*
X182582357Y-129302383D01*
X182572076Y-129268492D01*
X182568000Y-129227109D01*
X182568000Y-128201891D01*
X182572076Y-128160508D01*
X182582357Y-128126617D01*
X182599048Y-128095389D01*
X182621515Y-128068015D01*
X182648889Y-128045548D01*
X182680117Y-128028857D01*
X182714008Y-128018576D01*
X182755391Y-128014500D01*
X183355609Y-128014500D01*
X183396992Y-128018576D01*
X183396992Y-128018576D01*
G37*
G36*
X181521992Y-128018576D02*
X181555883Y-128028857D01*
X181587111Y-128045548D01*
X181614485Y-128068015D01*
X181636952Y-128095389D01*
X181653643Y-128126617D01*
X181663924Y-128160508D01*
X181668000Y-128201891D01*
X181668000Y-129227109D01*
X181663924Y-129268492D01*
X181653643Y-129302383D01*
X181636952Y-129333611D01*
X181614485Y-129360985D01*
X181587111Y-129383452D01*
X181555883Y-129400143D01*
X181521992Y-129410424D01*
X181480609Y-129414500D01*
X180880391Y-129414500D01*
X180839008Y-129410424D01*
X180805117Y-129400143D01*
X180773889Y-129383452D01*
X180746515Y-129360985D01*
X180724048Y-129333611D01*
X180707357Y-129302383D01*
X180697076Y-129268492D01*
X180693000Y-129227109D01*
X180693000Y-128201891D01*
X180697076Y-128160508D01*
X180707357Y-128126617D01*
X180724048Y-128095389D01*
X180746515Y-128068015D01*
X180773889Y-128045548D01*
X180805117Y-128028857D01*
X180839008Y-128018576D01*
X180880391Y-128014500D01*
X181480609Y-128014500D01*
X181521992Y-128018576D01*
X181521992Y-128018576D01*
G37*
G36*
X186519116Y-128179595D02*
X186548313Y-128188452D01*
X186575218Y-128202833D01*
X186598808Y-128222192D01*
X186618167Y-128245782D01*
X186632548Y-128272687D01*
X186641405Y-128301884D01*
X186645000Y-128338390D01*
X186645000Y-128963610D01*
X186641405Y-129000116D01*
X186632548Y-129029313D01*
X186618167Y-129056218D01*
X186598808Y-129079808D01*
X186575218Y-129099167D01*
X186548313Y-129113548D01*
X186519116Y-129122405D01*
X186482610Y-129126000D01*
X185932390Y-129126000D01*
X185895884Y-129122405D01*
X185866687Y-129113548D01*
X185839782Y-129099167D01*
X185816192Y-129079808D01*
X185796833Y-129056218D01*
X185782452Y-129029313D01*
X185773595Y-129000116D01*
X185770000Y-128963610D01*
X185770000Y-128338390D01*
X185773595Y-128301884D01*
X185782452Y-128272687D01*
X185796833Y-128245782D01*
X185816192Y-128222192D01*
X185839782Y-128202833D01*
X185866687Y-128188452D01*
X185895884Y-128179595D01*
X185932390Y-128176000D01*
X186482610Y-128176000D01*
X186519116Y-128179595D01*
X186519116Y-128179595D01*
G37*
G36*
X184944116Y-128179595D02*
X184973313Y-128188452D01*
X185000218Y-128202833D01*
X185023808Y-128222192D01*
X185043167Y-128245782D01*
X185057548Y-128272687D01*
X185066405Y-128301884D01*
X185070000Y-128338390D01*
X185070000Y-128963610D01*
X185066405Y-129000116D01*
X185057548Y-129029313D01*
X185043167Y-129056218D01*
X185023808Y-129079808D01*
X185000218Y-129099167D01*
X184973313Y-129113548D01*
X184944116Y-129122405D01*
X184907610Y-129126000D01*
X184357390Y-129126000D01*
X184320884Y-129122405D01*
X184291687Y-129113548D01*
X184264782Y-129099167D01*
X184241192Y-129079808D01*
X184221833Y-129056218D01*
X184207452Y-129029313D01*
X184198595Y-129000116D01*
X184195000Y-128963610D01*
X184195000Y-128338390D01*
X184198595Y-128301884D01*
X184207452Y-128272687D01*
X184221833Y-128245782D01*
X184241192Y-128222192D01*
X184264782Y-128202833D01*
X184291687Y-128188452D01*
X184320884Y-128179595D01*
X184357390Y-128176000D01*
X184907610Y-128176000D01*
X184944116Y-128179595D01*
X184944116Y-128179595D01*
G37*
G36*
X176913676Y-127580637D02*
X176947567Y-127590918D01*
X176978795Y-127607609D01*
X177010939Y-127633990D01*
X177435358Y-128058409D01*
X177461739Y-128090553D01*
X177478430Y-128121781D01*
X177488711Y-128155672D01*
X177492182Y-128190914D01*
X177488711Y-128226156D01*
X177478430Y-128260047D01*
X177461739Y-128291275D01*
X177435358Y-128323419D01*
X176710419Y-129048358D01*
X176678275Y-129074739D01*
X176647047Y-129091430D01*
X176613156Y-129101711D01*
X176577914Y-129105182D01*
X176542672Y-129101711D01*
X176508781Y-129091430D01*
X176477553Y-129074739D01*
X176445409Y-129048358D01*
X176020990Y-128623939D01*
X175994609Y-128591795D01*
X175977918Y-128560567D01*
X175967637Y-128526676D01*
X175964166Y-128491434D01*
X175967637Y-128456192D01*
X175977918Y-128422301D01*
X175994609Y-128391073D01*
X176020990Y-128358929D01*
X176745929Y-127633990D01*
X176778073Y-127607609D01*
X176809301Y-127590918D01*
X176843192Y-127580637D01*
X176878434Y-127577166D01*
X176913676Y-127580637D01*
X176913676Y-127580637D01*
G37*
G36*
X166727395Y-127481550D02*
X166761286Y-127491831D01*
X166792514Y-127508522D01*
X166824658Y-127534903D01*
X167549597Y-128259842D01*
X167575978Y-128291986D01*
X167592669Y-128323214D01*
X167602950Y-128357105D01*
X167606421Y-128392347D01*
X167602950Y-128427589D01*
X167592669Y-128461480D01*
X167575978Y-128492708D01*
X167549597Y-128524852D01*
X167125178Y-128949271D01*
X167093034Y-128975652D01*
X167061806Y-128992343D01*
X167027915Y-129002624D01*
X166992673Y-129006095D01*
X166957431Y-129002624D01*
X166923540Y-128992343D01*
X166892312Y-128975652D01*
X166860168Y-128949271D01*
X166135229Y-128224332D01*
X166108848Y-128192188D01*
X166092157Y-128160960D01*
X166081876Y-128127069D01*
X166078405Y-128091827D01*
X166081876Y-128056585D01*
X166092157Y-128022694D01*
X166108848Y-127991466D01*
X166135229Y-127959322D01*
X166559648Y-127534903D01*
X166591792Y-127508522D01*
X166623020Y-127491831D01*
X166656911Y-127481550D01*
X166692153Y-127478079D01*
X166727395Y-127481550D01*
X166727395Y-127481550D01*
G37*
G36*
X164002992Y-127898576D02*
X164036883Y-127908857D01*
X164068111Y-127925548D01*
X164095485Y-127948015D01*
X164117952Y-127975389D01*
X164134643Y-128006617D01*
X164144924Y-128040508D01*
X164149000Y-128081891D01*
X164149000Y-128682109D01*
X164144924Y-128723492D01*
X164134643Y-128757383D01*
X164117952Y-128788611D01*
X164095485Y-128815985D01*
X164068111Y-128838452D01*
X164036883Y-128855143D01*
X164002992Y-128865424D01*
X163961609Y-128869500D01*
X162936391Y-128869500D01*
X162895008Y-128865424D01*
X162861117Y-128855143D01*
X162829889Y-128838452D01*
X162802515Y-128815985D01*
X162780048Y-128788611D01*
X162763357Y-128757383D01*
X162753076Y-128723492D01*
X162749000Y-128682109D01*
X162749000Y-128081891D01*
X162753076Y-128040508D01*
X162763357Y-128006617D01*
X162780048Y-127975389D01*
X162802515Y-127948015D01*
X162829889Y-127925548D01*
X162861117Y-127908857D01*
X162895008Y-127898576D01*
X162936391Y-127894500D01*
X163961609Y-127894500D01*
X164002992Y-127898576D01*
X164002992Y-127898576D01*
G37*
G36*
X160694630Y-126670299D02*
X160854855Y-126718903D01*
X161002520Y-126797831D01*
X161131949Y-126904051D01*
X161238169Y-127033480D01*
X161317097Y-127181145D01*
X161365701Y-127341370D01*
X161382112Y-127508000D01*
X161365701Y-127674630D01*
X161317097Y-127834855D01*
X161238169Y-127982520D01*
X161131949Y-128111949D01*
X161002520Y-128218169D01*
X160854855Y-128297097D01*
X160694630Y-128345701D01*
X160569752Y-128358000D01*
X160486248Y-128358000D01*
X160361370Y-128345701D01*
X160201145Y-128297097D01*
X160053480Y-128218169D01*
X159924051Y-128111949D01*
X159817831Y-127982520D01*
X159738903Y-127834855D01*
X159690299Y-127674630D01*
X159673888Y-127508000D01*
X159690299Y-127341370D01*
X159738903Y-127181145D01*
X159817831Y-127033480D01*
X159924051Y-126904051D01*
X160053480Y-126797831D01*
X160201145Y-126718903D01*
X160361370Y-126670299D01*
X160486248Y-126658000D01*
X160569752Y-126658000D01*
X160694630Y-126670299D01*
X160694630Y-126670299D01*
G37*
G36*
X158154630Y-126670299D02*
X158314855Y-126718903D01*
X158462520Y-126797831D01*
X158591949Y-126904051D01*
X158698169Y-127033480D01*
X158777097Y-127181145D01*
X158825701Y-127341370D01*
X158842112Y-127508000D01*
X158825701Y-127674630D01*
X158777097Y-127834855D01*
X158698169Y-127982520D01*
X158591949Y-128111949D01*
X158462520Y-128218169D01*
X158314855Y-128297097D01*
X158154630Y-128345701D01*
X158029752Y-128358000D01*
X157946248Y-128358000D01*
X157821370Y-128345701D01*
X157661145Y-128297097D01*
X157513480Y-128218169D01*
X157384051Y-128111949D01*
X157277831Y-127982520D01*
X157198903Y-127834855D01*
X157150299Y-127674630D01*
X157133888Y-127508000D01*
X157150299Y-127341370D01*
X157198903Y-127181145D01*
X157277831Y-127033480D01*
X157384051Y-126904051D01*
X157513480Y-126797831D01*
X157661145Y-126718903D01*
X157821370Y-126670299D01*
X157946248Y-126658000D01*
X158029752Y-126658000D01*
X158154630Y-126670299D01*
X158154630Y-126670299D01*
G37*
G36*
X181521992Y-125986576D02*
X181555883Y-125996857D01*
X181587111Y-126013548D01*
X181614485Y-126036015D01*
X181636952Y-126063389D01*
X181653643Y-126094617D01*
X181663924Y-126128508D01*
X181668000Y-126169891D01*
X181668000Y-127195109D01*
X181663924Y-127236492D01*
X181653643Y-127270383D01*
X181636952Y-127301611D01*
X181614485Y-127328985D01*
X181587111Y-127351452D01*
X181555883Y-127368143D01*
X181521992Y-127378424D01*
X181480609Y-127382500D01*
X180880391Y-127382500D01*
X180839008Y-127378424D01*
X180805117Y-127368143D01*
X180773889Y-127351452D01*
X180746515Y-127328985D01*
X180724048Y-127301611D01*
X180707357Y-127270383D01*
X180697076Y-127236492D01*
X180693000Y-127195109D01*
X180693000Y-126169891D01*
X180697076Y-126128508D01*
X180707357Y-126094617D01*
X180724048Y-126063389D01*
X180746515Y-126036015D01*
X180773889Y-126013548D01*
X180805117Y-125996857D01*
X180839008Y-125986576D01*
X180880391Y-125982500D01*
X181480609Y-125982500D01*
X181521992Y-125986576D01*
X181521992Y-125986576D01*
G37*
G36*
X183396992Y-125986576D02*
X183430883Y-125996857D01*
X183462111Y-126013548D01*
X183489485Y-126036015D01*
X183511952Y-126063389D01*
X183528643Y-126094617D01*
X183538924Y-126128508D01*
X183543000Y-126169891D01*
X183543000Y-127195109D01*
X183538924Y-127236492D01*
X183528643Y-127270383D01*
X183511952Y-127301611D01*
X183489485Y-127328985D01*
X183462111Y-127351452D01*
X183430883Y-127368143D01*
X183396992Y-127378424D01*
X183355609Y-127382500D01*
X182755391Y-127382500D01*
X182714008Y-127378424D01*
X182680117Y-127368143D01*
X182648889Y-127351452D01*
X182621515Y-127328985D01*
X182599048Y-127301611D01*
X182582357Y-127270383D01*
X182572076Y-127236492D01*
X182568000Y-127195109D01*
X182568000Y-126169891D01*
X182572076Y-126128508D01*
X182582357Y-126094617D01*
X182599048Y-126063389D01*
X182621515Y-126036015D01*
X182648889Y-126013548D01*
X182680117Y-125996857D01*
X182714008Y-125986576D01*
X182755391Y-125982500D01*
X183355609Y-125982500D01*
X183396992Y-125986576D01*
X183396992Y-125986576D01*
G37*
G36*
X186519116Y-126211095D02*
X186548313Y-126219952D01*
X186575218Y-126234333D01*
X186598808Y-126253692D01*
X186618167Y-126277282D01*
X186632548Y-126304187D01*
X186641405Y-126333384D01*
X186645000Y-126369890D01*
X186645000Y-126995110D01*
X186641405Y-127031616D01*
X186632548Y-127060813D01*
X186618167Y-127087718D01*
X186598808Y-127111308D01*
X186575218Y-127130667D01*
X186548313Y-127145048D01*
X186519116Y-127153905D01*
X186482610Y-127157500D01*
X185932390Y-127157500D01*
X185895884Y-127153905D01*
X185866687Y-127145048D01*
X185839782Y-127130667D01*
X185816192Y-127111308D01*
X185796833Y-127087718D01*
X185782452Y-127060813D01*
X185773595Y-127031616D01*
X185770000Y-126995110D01*
X185770000Y-126369890D01*
X185773595Y-126333384D01*
X185782452Y-126304187D01*
X185796833Y-126277282D01*
X185816192Y-126253692D01*
X185839782Y-126234333D01*
X185866687Y-126219952D01*
X185895884Y-126211095D01*
X185932390Y-126207500D01*
X186482610Y-126207500D01*
X186519116Y-126211095D01*
X186519116Y-126211095D01*
G37*
G36*
X184944116Y-126211095D02*
X184973313Y-126219952D01*
X185000218Y-126234333D01*
X185023808Y-126253692D01*
X185043167Y-126277282D01*
X185057548Y-126304187D01*
X185066405Y-126333384D01*
X185070000Y-126369890D01*
X185070000Y-126995110D01*
X185066405Y-127031616D01*
X185057548Y-127060813D01*
X185043167Y-127087718D01*
X185023808Y-127111308D01*
X185000218Y-127130667D01*
X184973313Y-127145048D01*
X184944116Y-127153905D01*
X184907610Y-127157500D01*
X184357390Y-127157500D01*
X184320884Y-127153905D01*
X184291687Y-127145048D01*
X184264782Y-127130667D01*
X184241192Y-127111308D01*
X184221833Y-127087718D01*
X184207452Y-127060813D01*
X184198595Y-127031616D01*
X184195000Y-126995110D01*
X184195000Y-126369890D01*
X184198595Y-126333384D01*
X184207452Y-126304187D01*
X184221833Y-126277282D01*
X184241192Y-126253692D01*
X184264782Y-126234333D01*
X184291687Y-126219952D01*
X184320884Y-126211095D01*
X184357390Y-126207500D01*
X184907610Y-126207500D01*
X184944116Y-126211095D01*
X184944116Y-126211095D01*
G37*
G36*
X164002992Y-126023576D02*
X164036883Y-126033857D01*
X164068111Y-126050548D01*
X164095485Y-126073015D01*
X164117952Y-126100389D01*
X164134643Y-126131617D01*
X164144924Y-126165508D01*
X164149000Y-126206891D01*
X164149000Y-126807109D01*
X164144924Y-126848492D01*
X164134643Y-126882383D01*
X164117952Y-126913611D01*
X164095485Y-126940985D01*
X164068111Y-126963452D01*
X164036883Y-126980143D01*
X164002992Y-126990424D01*
X163961609Y-126994500D01*
X162936391Y-126994500D01*
X162895008Y-126990424D01*
X162861117Y-126980143D01*
X162829889Y-126963452D01*
X162802515Y-126940985D01*
X162780048Y-126913611D01*
X162763357Y-126882383D01*
X162753076Y-126848492D01*
X162749000Y-126807109D01*
X162749000Y-126206891D01*
X162753076Y-126165508D01*
X162763357Y-126131617D01*
X162780048Y-126100389D01*
X162802515Y-126073015D01*
X162829889Y-126050548D01*
X162861117Y-126033857D01*
X162895008Y-126023576D01*
X162936391Y-126019500D01*
X163961609Y-126019500D01*
X164002992Y-126023576D01*
X164002992Y-126023576D01*
G37*
M02*
