G04 #@! TF.GenerationSoftware,KiCad,Pcbnew,5.0.0+dfsg1-2*
G04 #@! TF.CreationDate,2018-12-16T11:08:53+01:00*
G04 #@! TF.ProjectId,xmegatest,786D656761746573742E6B696361645F,rev?*
G04 #@! TF.SameCoordinates,Original*
G04 #@! TF.FileFunction,Paste,Bot*
G04 #@! TF.FilePolarity,Positive*
%FSLAX46Y46*%
G04 Gerber Fmt 4.6, Leading zero omitted, Abs format (unit mm)*
G04 Created by KiCad (PCBNEW 5.0.0+dfsg1-2) date Sun Dec 16 11:08:53 2018*
%MOMM*%
%LPD*%
G01*
G04 APERTURE LIST*
%ADD10C,0.100000*%
%ADD11C,0.975000*%
%ADD12R,1.750000X1.800000*%
G04 APERTURE END LIST*
D10*
G04 #@! TO.C,C3*
G36*
X172939142Y-135572174D02*
X172962803Y-135575684D01*
X172986007Y-135581496D01*
X173008529Y-135589554D01*
X173030153Y-135599782D01*
X173050670Y-135612079D01*
X173069883Y-135626329D01*
X173087607Y-135642393D01*
X173103671Y-135660117D01*
X173117921Y-135679330D01*
X173130218Y-135699847D01*
X173140446Y-135721471D01*
X173148504Y-135743993D01*
X173154316Y-135767197D01*
X173157826Y-135790858D01*
X173159000Y-135814750D01*
X173159000Y-136727250D01*
X173157826Y-136751142D01*
X173154316Y-136774803D01*
X173148504Y-136798007D01*
X173140446Y-136820529D01*
X173130218Y-136842153D01*
X173117921Y-136862670D01*
X173103671Y-136881883D01*
X173087607Y-136899607D01*
X173069883Y-136915671D01*
X173050670Y-136929921D01*
X173030153Y-136942218D01*
X173008529Y-136952446D01*
X172986007Y-136960504D01*
X172962803Y-136966316D01*
X172939142Y-136969826D01*
X172915250Y-136971000D01*
X172427750Y-136971000D01*
X172403858Y-136969826D01*
X172380197Y-136966316D01*
X172356993Y-136960504D01*
X172334471Y-136952446D01*
X172312847Y-136942218D01*
X172292330Y-136929921D01*
X172273117Y-136915671D01*
X172255393Y-136899607D01*
X172239329Y-136881883D01*
X172225079Y-136862670D01*
X172212782Y-136842153D01*
X172202554Y-136820529D01*
X172194496Y-136798007D01*
X172188684Y-136774803D01*
X172185174Y-136751142D01*
X172184000Y-136727250D01*
X172184000Y-135814750D01*
X172185174Y-135790858D01*
X172188684Y-135767197D01*
X172194496Y-135743993D01*
X172202554Y-135721471D01*
X172212782Y-135699847D01*
X172225079Y-135679330D01*
X172239329Y-135660117D01*
X172255393Y-135642393D01*
X172273117Y-135626329D01*
X172292330Y-135612079D01*
X172312847Y-135599782D01*
X172334471Y-135589554D01*
X172356993Y-135581496D01*
X172380197Y-135575684D01*
X172403858Y-135572174D01*
X172427750Y-135571000D01*
X172915250Y-135571000D01*
X172939142Y-135572174D01*
X172939142Y-135572174D01*
G37*
D11*
X172671500Y-136271000D03*
D10*
G36*
X174814142Y-135572174D02*
X174837803Y-135575684D01*
X174861007Y-135581496D01*
X174883529Y-135589554D01*
X174905153Y-135599782D01*
X174925670Y-135612079D01*
X174944883Y-135626329D01*
X174962607Y-135642393D01*
X174978671Y-135660117D01*
X174992921Y-135679330D01*
X175005218Y-135699847D01*
X175015446Y-135721471D01*
X175023504Y-135743993D01*
X175029316Y-135767197D01*
X175032826Y-135790858D01*
X175034000Y-135814750D01*
X175034000Y-136727250D01*
X175032826Y-136751142D01*
X175029316Y-136774803D01*
X175023504Y-136798007D01*
X175015446Y-136820529D01*
X175005218Y-136842153D01*
X174992921Y-136862670D01*
X174978671Y-136881883D01*
X174962607Y-136899607D01*
X174944883Y-136915671D01*
X174925670Y-136929921D01*
X174905153Y-136942218D01*
X174883529Y-136952446D01*
X174861007Y-136960504D01*
X174837803Y-136966316D01*
X174814142Y-136969826D01*
X174790250Y-136971000D01*
X174302750Y-136971000D01*
X174278858Y-136969826D01*
X174255197Y-136966316D01*
X174231993Y-136960504D01*
X174209471Y-136952446D01*
X174187847Y-136942218D01*
X174167330Y-136929921D01*
X174148117Y-136915671D01*
X174130393Y-136899607D01*
X174114329Y-136881883D01*
X174100079Y-136862670D01*
X174087782Y-136842153D01*
X174077554Y-136820529D01*
X174069496Y-136798007D01*
X174063684Y-136774803D01*
X174060174Y-136751142D01*
X174059000Y-136727250D01*
X174059000Y-135814750D01*
X174060174Y-135790858D01*
X174063684Y-135767197D01*
X174069496Y-135743993D01*
X174077554Y-135721471D01*
X174087782Y-135699847D01*
X174100079Y-135679330D01*
X174114329Y-135660117D01*
X174130393Y-135642393D01*
X174148117Y-135626329D01*
X174167330Y-135612079D01*
X174187847Y-135599782D01*
X174209471Y-135589554D01*
X174231993Y-135581496D01*
X174255197Y-135575684D01*
X174278858Y-135572174D01*
X174302750Y-135571000D01*
X174790250Y-135571000D01*
X174814142Y-135572174D01*
X174814142Y-135572174D01*
G37*
D11*
X174546500Y-136271000D03*
G04 #@! TD*
D10*
G04 #@! TO.C,C1*
G36*
X171321642Y-135572174D02*
X171345303Y-135575684D01*
X171368507Y-135581496D01*
X171391029Y-135589554D01*
X171412653Y-135599782D01*
X171433170Y-135612079D01*
X171452383Y-135626329D01*
X171470107Y-135642393D01*
X171486171Y-135660117D01*
X171500421Y-135679330D01*
X171512718Y-135699847D01*
X171522946Y-135721471D01*
X171531004Y-135743993D01*
X171536816Y-135767197D01*
X171540326Y-135790858D01*
X171541500Y-135814750D01*
X171541500Y-136727250D01*
X171540326Y-136751142D01*
X171536816Y-136774803D01*
X171531004Y-136798007D01*
X171522946Y-136820529D01*
X171512718Y-136842153D01*
X171500421Y-136862670D01*
X171486171Y-136881883D01*
X171470107Y-136899607D01*
X171452383Y-136915671D01*
X171433170Y-136929921D01*
X171412653Y-136942218D01*
X171391029Y-136952446D01*
X171368507Y-136960504D01*
X171345303Y-136966316D01*
X171321642Y-136969826D01*
X171297750Y-136971000D01*
X170810250Y-136971000D01*
X170786358Y-136969826D01*
X170762697Y-136966316D01*
X170739493Y-136960504D01*
X170716971Y-136952446D01*
X170695347Y-136942218D01*
X170674830Y-136929921D01*
X170655617Y-136915671D01*
X170637893Y-136899607D01*
X170621829Y-136881883D01*
X170607579Y-136862670D01*
X170595282Y-136842153D01*
X170585054Y-136820529D01*
X170576996Y-136798007D01*
X170571184Y-136774803D01*
X170567674Y-136751142D01*
X170566500Y-136727250D01*
X170566500Y-135814750D01*
X170567674Y-135790858D01*
X170571184Y-135767197D01*
X170576996Y-135743993D01*
X170585054Y-135721471D01*
X170595282Y-135699847D01*
X170607579Y-135679330D01*
X170621829Y-135660117D01*
X170637893Y-135642393D01*
X170655617Y-135626329D01*
X170674830Y-135612079D01*
X170695347Y-135599782D01*
X170716971Y-135589554D01*
X170739493Y-135581496D01*
X170762697Y-135575684D01*
X170786358Y-135572174D01*
X170810250Y-135571000D01*
X171297750Y-135571000D01*
X171321642Y-135572174D01*
X171321642Y-135572174D01*
G37*
D11*
X171054000Y-136271000D03*
D10*
G36*
X169446642Y-135572174D02*
X169470303Y-135575684D01*
X169493507Y-135581496D01*
X169516029Y-135589554D01*
X169537653Y-135599782D01*
X169558170Y-135612079D01*
X169577383Y-135626329D01*
X169595107Y-135642393D01*
X169611171Y-135660117D01*
X169625421Y-135679330D01*
X169637718Y-135699847D01*
X169647946Y-135721471D01*
X169656004Y-135743993D01*
X169661816Y-135767197D01*
X169665326Y-135790858D01*
X169666500Y-135814750D01*
X169666500Y-136727250D01*
X169665326Y-136751142D01*
X169661816Y-136774803D01*
X169656004Y-136798007D01*
X169647946Y-136820529D01*
X169637718Y-136842153D01*
X169625421Y-136862670D01*
X169611171Y-136881883D01*
X169595107Y-136899607D01*
X169577383Y-136915671D01*
X169558170Y-136929921D01*
X169537653Y-136942218D01*
X169516029Y-136952446D01*
X169493507Y-136960504D01*
X169470303Y-136966316D01*
X169446642Y-136969826D01*
X169422750Y-136971000D01*
X168935250Y-136971000D01*
X168911358Y-136969826D01*
X168887697Y-136966316D01*
X168864493Y-136960504D01*
X168841971Y-136952446D01*
X168820347Y-136942218D01*
X168799830Y-136929921D01*
X168780617Y-136915671D01*
X168762893Y-136899607D01*
X168746829Y-136881883D01*
X168732579Y-136862670D01*
X168720282Y-136842153D01*
X168710054Y-136820529D01*
X168701996Y-136798007D01*
X168696184Y-136774803D01*
X168692674Y-136751142D01*
X168691500Y-136727250D01*
X168691500Y-135814750D01*
X168692674Y-135790858D01*
X168696184Y-135767197D01*
X168701996Y-135743993D01*
X168710054Y-135721471D01*
X168720282Y-135699847D01*
X168732579Y-135679330D01*
X168746829Y-135660117D01*
X168762893Y-135642393D01*
X168780617Y-135626329D01*
X168799830Y-135612079D01*
X168820347Y-135599782D01*
X168841971Y-135589554D01*
X168864493Y-135581496D01*
X168887697Y-135575684D01*
X168911358Y-135572174D01*
X168935250Y-135571000D01*
X169422750Y-135571000D01*
X169446642Y-135572174D01*
X169446642Y-135572174D01*
G37*
D11*
X169179000Y-136271000D03*
G04 #@! TD*
D12*
G04 #@! TO.C,Y1*
X171340879Y-134049970D03*
X174590879Y-134049970D03*
G04 #@! TD*
M02*
