G04 #@! TF.GenerationSoftware,KiCad,Pcbnew,5.0.0+dfsg1-2*
G04 #@! TF.CreationDate,2018-12-16T11:08:53+01:00*
G04 #@! TF.ProjectId,xmegatest,786D656761746573742E6B696361645F,rev?*
G04 #@! TF.SameCoordinates,Original*
G04 #@! TF.FileFunction,Copper,L1,Top,Signal*
G04 #@! TF.FilePolarity,Positive*
%FSLAX46Y46*%
G04 Gerber Fmt 4.6, Leading zero omitted, Abs format (unit mm)*
G04 Created by KiCad (PCBNEW 5.0.0+dfsg1-2) date Sun Dec 16 11:08:53 2018*
%MOMM*%
%LPD*%
G01*
G04 APERTURE LIST*
G04 #@! TA.AperFunction,SMDPad,CuDef*
%ADD10R,2.500000X1.900000*%
G04 #@! TD*
G04 #@! TA.AperFunction,ComponentPad*
%ADD11O,1.600000X0.900000*%
G04 #@! TD*
G04 #@! TA.AperFunction,SMDPad,CuDef*
%ADD12R,1.650000X0.400000*%
G04 #@! TD*
G04 #@! TA.AperFunction,SMDPad,CuDef*
%ADD13R,1.500000X2.000000*%
G04 #@! TD*
G04 #@! TA.AperFunction,ComponentPad*
%ADD14O,1.700000X1.700000*%
G04 #@! TD*
G04 #@! TA.AperFunction,ComponentPad*
%ADD15R,1.700000X1.700000*%
G04 #@! TD*
G04 #@! TA.AperFunction,Conductor*
%ADD16C,0.100000*%
G04 #@! TD*
G04 #@! TA.AperFunction,SMDPad,CuDef*
%ADD17C,0.975000*%
G04 #@! TD*
G04 #@! TA.AperFunction,SMDPad,CuDef*
%ADD18C,0.875000*%
G04 #@! TD*
G04 #@! TA.AperFunction,SMDPad,CuDef*
%ADD19C,0.550000*%
G04 #@! TD*
G04 #@! TA.AperFunction,SMDPad,CuDef*
%ADD20R,2.000000X3.800000*%
G04 #@! TD*
G04 #@! TA.AperFunction,SMDPad,CuDef*
%ADD21R,2.000000X1.500000*%
G04 #@! TD*
G04 #@! TA.AperFunction,SMDPad,CuDef*
%ADD22R,1.600000X2.180000*%
G04 #@! TD*
G04 #@! TA.AperFunction,SMDPad,CuDef*
%ADD23R,1.200000X0.900000*%
G04 #@! TD*
G04 #@! TA.AperFunction,ViaPad*
%ADD24C,0.800000*%
G04 #@! TD*
G04 #@! TA.AperFunction,Conductor*
%ADD25C,0.250000*%
G04 #@! TD*
G04 #@! TA.AperFunction,Conductor*
%ADD26C,0.400000*%
G04 #@! TD*
G04 #@! TA.AperFunction,Conductor*
%ADD27C,1.500000*%
G04 #@! TD*
G04 #@! TA.AperFunction,Conductor*
%ADD28C,0.500000*%
G04 #@! TD*
G04 #@! TA.AperFunction,Conductor*
%ADD29C,0.200000*%
G04 #@! TD*
G04 #@! TA.AperFunction,Conductor*
%ADD30C,0.254000*%
G04 #@! TD*
G04 APERTURE END LIST*
D10*
G04 #@! TO.P,J2,6*
G04 #@! TO.N,Net-(J2-Pad6)*
X191631000Y-131515000D03*
X191631000Y-133900000D03*
D11*
X191546000Y-129315000D03*
X191546000Y-136115000D03*
D12*
G04 #@! TO.P,J2,5*
G04 #@! TO.N,GND*
X188481000Y-131440000D03*
G04 #@! TO.P,J2,4*
G04 #@! TO.N,Net-(J2-Pad4)*
X188481000Y-132090000D03*
G04 #@! TO.P,J2,3*
G04 #@! TO.N,/USBD+*
X188481000Y-132740000D03*
G04 #@! TO.P,J2,2*
G04 #@! TO.N,/USBD-*
X188481000Y-133390000D03*
G04 #@! TO.P,J2,1*
G04 #@! TO.N,Net-(F1-Pad2)*
X188481000Y-134040000D03*
D13*
G04 #@! TO.P,J2,6*
G04 #@! TO.N,Net-(J2-Pad6)*
X188361000Y-129715000D03*
X188381000Y-135715000D03*
G04 #@! TD*
D14*
G04 #@! TO.P,J5,8*
G04 #@! TO.N,Net-(J5-Pad8)*
X166751000Y-148209000D03*
G04 #@! TO.P,J5,7*
G04 #@! TO.N,Net-(J5-Pad7)*
X166751000Y-150749000D03*
G04 #@! TO.P,J5,6*
G04 #@! TO.N,Net-(J5-Pad6)*
X164211000Y-148209000D03*
G04 #@! TO.P,J5,5*
G04 #@! TO.N,Net-(J5-Pad5)*
X164211000Y-150749000D03*
G04 #@! TO.P,J5,4*
G04 #@! TO.N,Net-(J5-Pad4)*
X161671000Y-148209000D03*
G04 #@! TO.P,J5,3*
G04 #@! TO.N,Net-(J5-Pad2)*
X161671000Y-150749000D03*
G04 #@! TO.P,J5,2*
G04 #@! TO.N,Net-(J5-Pad3)*
X159131000Y-148209000D03*
D15*
G04 #@! TO.P,J5,1*
G04 #@! TO.N,Net-(J5-Pad1)*
X159131000Y-150749000D03*
G04 #@! TD*
G04 #@! TO.P,J1,1*
G04 #@! TO.N,/PDI_DATA*
X160528000Y-132588000D03*
D14*
G04 #@! TO.P,J1,2*
G04 #@! TO.N,+3V3*
X157988000Y-132588000D03*
G04 #@! TO.P,J1,3*
G04 #@! TO.N,Net-(J1-Pad3)*
X160528000Y-130048000D03*
G04 #@! TO.P,J1,4*
G04 #@! TO.N,Net-(J1-Pad4)*
X157988000Y-130048000D03*
G04 #@! TO.P,J1,5*
G04 #@! TO.N,/RESET*
X160528000Y-127508000D03*
G04 #@! TO.P,J1,6*
G04 #@! TO.N,GND*
X157988000Y-127508000D03*
G04 #@! TD*
D16*
G04 #@! TO.N,Net-(U2-Pad28)*
G04 #@! TO.C,RLED2*
G36*
X181448142Y-128015674D02*
X181471803Y-128019184D01*
X181495007Y-128024996D01*
X181517529Y-128033054D01*
X181539153Y-128043282D01*
X181559670Y-128055579D01*
X181578883Y-128069829D01*
X181596607Y-128085893D01*
X181612671Y-128103617D01*
X181626921Y-128122830D01*
X181639218Y-128143347D01*
X181649446Y-128164971D01*
X181657504Y-128187493D01*
X181663316Y-128210697D01*
X181666826Y-128234358D01*
X181668000Y-128258250D01*
X181668000Y-129170750D01*
X181666826Y-129194642D01*
X181663316Y-129218303D01*
X181657504Y-129241507D01*
X181649446Y-129264029D01*
X181639218Y-129285653D01*
X181626921Y-129306170D01*
X181612671Y-129325383D01*
X181596607Y-129343107D01*
X181578883Y-129359171D01*
X181559670Y-129373421D01*
X181539153Y-129385718D01*
X181517529Y-129395946D01*
X181495007Y-129404004D01*
X181471803Y-129409816D01*
X181448142Y-129413326D01*
X181424250Y-129414500D01*
X180936750Y-129414500D01*
X180912858Y-129413326D01*
X180889197Y-129409816D01*
X180865993Y-129404004D01*
X180843471Y-129395946D01*
X180821847Y-129385718D01*
X180801330Y-129373421D01*
X180782117Y-129359171D01*
X180764393Y-129343107D01*
X180748329Y-129325383D01*
X180734079Y-129306170D01*
X180721782Y-129285653D01*
X180711554Y-129264029D01*
X180703496Y-129241507D01*
X180697684Y-129218303D01*
X180694174Y-129194642D01*
X180693000Y-129170750D01*
X180693000Y-128258250D01*
X180694174Y-128234358D01*
X180697684Y-128210697D01*
X180703496Y-128187493D01*
X180711554Y-128164971D01*
X180721782Y-128143347D01*
X180734079Y-128122830D01*
X180748329Y-128103617D01*
X180764393Y-128085893D01*
X180782117Y-128069829D01*
X180801330Y-128055579D01*
X180821847Y-128043282D01*
X180843471Y-128033054D01*
X180865993Y-128024996D01*
X180889197Y-128019184D01*
X180912858Y-128015674D01*
X180936750Y-128014500D01*
X181424250Y-128014500D01*
X181448142Y-128015674D01*
X181448142Y-128015674D01*
G37*
D17*
G04 #@! TD*
G04 #@! TO.P,RLED2,1*
G04 #@! TO.N,Net-(U2-Pad28)*
X181180500Y-128714500D03*
D16*
G04 #@! TO.N,N/C*
G04 #@! TO.C,RLED2*
G36*
X183323142Y-128015674D02*
X183346803Y-128019184D01*
X183370007Y-128024996D01*
X183392529Y-128033054D01*
X183414153Y-128043282D01*
X183434670Y-128055579D01*
X183453883Y-128069829D01*
X183471607Y-128085893D01*
X183487671Y-128103617D01*
X183501921Y-128122830D01*
X183514218Y-128143347D01*
X183524446Y-128164971D01*
X183532504Y-128187493D01*
X183538316Y-128210697D01*
X183541826Y-128234358D01*
X183543000Y-128258250D01*
X183543000Y-129170750D01*
X183541826Y-129194642D01*
X183538316Y-129218303D01*
X183532504Y-129241507D01*
X183524446Y-129264029D01*
X183514218Y-129285653D01*
X183501921Y-129306170D01*
X183487671Y-129325383D01*
X183471607Y-129343107D01*
X183453883Y-129359171D01*
X183434670Y-129373421D01*
X183414153Y-129385718D01*
X183392529Y-129395946D01*
X183370007Y-129404004D01*
X183346803Y-129409816D01*
X183323142Y-129413326D01*
X183299250Y-129414500D01*
X182811750Y-129414500D01*
X182787858Y-129413326D01*
X182764197Y-129409816D01*
X182740993Y-129404004D01*
X182718471Y-129395946D01*
X182696847Y-129385718D01*
X182676330Y-129373421D01*
X182657117Y-129359171D01*
X182639393Y-129343107D01*
X182623329Y-129325383D01*
X182609079Y-129306170D01*
X182596782Y-129285653D01*
X182586554Y-129264029D01*
X182578496Y-129241507D01*
X182572684Y-129218303D01*
X182569174Y-129194642D01*
X182568000Y-129170750D01*
X182568000Y-128258250D01*
X182569174Y-128234358D01*
X182572684Y-128210697D01*
X182578496Y-128187493D01*
X182586554Y-128164971D01*
X182596782Y-128143347D01*
X182609079Y-128122830D01*
X182623329Y-128103617D01*
X182639393Y-128085893D01*
X182657117Y-128069829D01*
X182676330Y-128055579D01*
X182696847Y-128043282D01*
X182718471Y-128033054D01*
X182740993Y-128024996D01*
X182764197Y-128019184D01*
X182787858Y-128015674D01*
X182811750Y-128014500D01*
X183299250Y-128014500D01*
X183323142Y-128015674D01*
X183323142Y-128015674D01*
G37*
D17*
G04 #@! TD*
G04 #@! TO.P,RLED2,2*
G04 #@! TO.N,N/C*
X183055500Y-128714500D03*
D16*
G04 #@! TO.N,N/C*
G04 #@! TO.C,LED1*
G36*
X184872691Y-126208553D02*
X184893926Y-126211703D01*
X184914750Y-126216919D01*
X184934962Y-126224151D01*
X184954368Y-126233330D01*
X184972781Y-126244366D01*
X184990024Y-126257154D01*
X185005930Y-126271570D01*
X185020346Y-126287476D01*
X185033134Y-126304719D01*
X185044170Y-126323132D01*
X185053349Y-126342538D01*
X185060581Y-126362750D01*
X185065797Y-126383574D01*
X185068947Y-126404809D01*
X185070000Y-126426250D01*
X185070000Y-126938750D01*
X185068947Y-126960191D01*
X185065797Y-126981426D01*
X185060581Y-127002250D01*
X185053349Y-127022462D01*
X185044170Y-127041868D01*
X185033134Y-127060281D01*
X185020346Y-127077524D01*
X185005930Y-127093430D01*
X184990024Y-127107846D01*
X184972781Y-127120634D01*
X184954368Y-127131670D01*
X184934962Y-127140849D01*
X184914750Y-127148081D01*
X184893926Y-127153297D01*
X184872691Y-127156447D01*
X184851250Y-127157500D01*
X184413750Y-127157500D01*
X184392309Y-127156447D01*
X184371074Y-127153297D01*
X184350250Y-127148081D01*
X184330038Y-127140849D01*
X184310632Y-127131670D01*
X184292219Y-127120634D01*
X184274976Y-127107846D01*
X184259070Y-127093430D01*
X184244654Y-127077524D01*
X184231866Y-127060281D01*
X184220830Y-127041868D01*
X184211651Y-127022462D01*
X184204419Y-127002250D01*
X184199203Y-126981426D01*
X184196053Y-126960191D01*
X184195000Y-126938750D01*
X184195000Y-126426250D01*
X184196053Y-126404809D01*
X184199203Y-126383574D01*
X184204419Y-126362750D01*
X184211651Y-126342538D01*
X184220830Y-126323132D01*
X184231866Y-126304719D01*
X184244654Y-126287476D01*
X184259070Y-126271570D01*
X184274976Y-126257154D01*
X184292219Y-126244366D01*
X184310632Y-126233330D01*
X184330038Y-126224151D01*
X184350250Y-126216919D01*
X184371074Y-126211703D01*
X184392309Y-126208553D01*
X184413750Y-126207500D01*
X184851250Y-126207500D01*
X184872691Y-126208553D01*
X184872691Y-126208553D01*
G37*
D18*
G04 #@! TD*
G04 #@! TO.P,LED1,1*
G04 #@! TO.N,N/C*
X184632500Y-126682500D03*
D16*
G04 #@! TO.N,GND*
G04 #@! TO.C,LED1*
G36*
X186447691Y-126208553D02*
X186468926Y-126211703D01*
X186489750Y-126216919D01*
X186509962Y-126224151D01*
X186529368Y-126233330D01*
X186547781Y-126244366D01*
X186565024Y-126257154D01*
X186580930Y-126271570D01*
X186595346Y-126287476D01*
X186608134Y-126304719D01*
X186619170Y-126323132D01*
X186628349Y-126342538D01*
X186635581Y-126362750D01*
X186640797Y-126383574D01*
X186643947Y-126404809D01*
X186645000Y-126426250D01*
X186645000Y-126938750D01*
X186643947Y-126960191D01*
X186640797Y-126981426D01*
X186635581Y-127002250D01*
X186628349Y-127022462D01*
X186619170Y-127041868D01*
X186608134Y-127060281D01*
X186595346Y-127077524D01*
X186580930Y-127093430D01*
X186565024Y-127107846D01*
X186547781Y-127120634D01*
X186529368Y-127131670D01*
X186509962Y-127140849D01*
X186489750Y-127148081D01*
X186468926Y-127153297D01*
X186447691Y-127156447D01*
X186426250Y-127157500D01*
X185988750Y-127157500D01*
X185967309Y-127156447D01*
X185946074Y-127153297D01*
X185925250Y-127148081D01*
X185905038Y-127140849D01*
X185885632Y-127131670D01*
X185867219Y-127120634D01*
X185849976Y-127107846D01*
X185834070Y-127093430D01*
X185819654Y-127077524D01*
X185806866Y-127060281D01*
X185795830Y-127041868D01*
X185786651Y-127022462D01*
X185779419Y-127002250D01*
X185774203Y-126981426D01*
X185771053Y-126960191D01*
X185770000Y-126938750D01*
X185770000Y-126426250D01*
X185771053Y-126404809D01*
X185774203Y-126383574D01*
X185779419Y-126362750D01*
X185786651Y-126342538D01*
X185795830Y-126323132D01*
X185806866Y-126304719D01*
X185819654Y-126287476D01*
X185834070Y-126271570D01*
X185849976Y-126257154D01*
X185867219Y-126244366D01*
X185885632Y-126233330D01*
X185905038Y-126224151D01*
X185925250Y-126216919D01*
X185946074Y-126211703D01*
X185967309Y-126208553D01*
X185988750Y-126207500D01*
X186426250Y-126207500D01*
X186447691Y-126208553D01*
X186447691Y-126208553D01*
G37*
D18*
G04 #@! TD*
G04 #@! TO.P,LED1,2*
G04 #@! TO.N,GND*
X186207500Y-126682500D03*
D16*
G04 #@! TO.N,GND*
G04 #@! TO.C,C4*
G36*
X179225642Y-144589174D02*
X179249303Y-144592684D01*
X179272507Y-144598496D01*
X179295029Y-144606554D01*
X179316653Y-144616782D01*
X179337170Y-144629079D01*
X179356383Y-144643329D01*
X179374107Y-144659393D01*
X179390171Y-144677117D01*
X179404421Y-144696330D01*
X179416718Y-144716847D01*
X179426946Y-144738471D01*
X179435004Y-144760993D01*
X179440816Y-144784197D01*
X179444326Y-144807858D01*
X179445500Y-144831750D01*
X179445500Y-145744250D01*
X179444326Y-145768142D01*
X179440816Y-145791803D01*
X179435004Y-145815007D01*
X179426946Y-145837529D01*
X179416718Y-145859153D01*
X179404421Y-145879670D01*
X179390171Y-145898883D01*
X179374107Y-145916607D01*
X179356383Y-145932671D01*
X179337170Y-145946921D01*
X179316653Y-145959218D01*
X179295029Y-145969446D01*
X179272507Y-145977504D01*
X179249303Y-145983316D01*
X179225642Y-145986826D01*
X179201750Y-145988000D01*
X178714250Y-145988000D01*
X178690358Y-145986826D01*
X178666697Y-145983316D01*
X178643493Y-145977504D01*
X178620971Y-145969446D01*
X178599347Y-145959218D01*
X178578830Y-145946921D01*
X178559617Y-145932671D01*
X178541893Y-145916607D01*
X178525829Y-145898883D01*
X178511579Y-145879670D01*
X178499282Y-145859153D01*
X178489054Y-145837529D01*
X178480996Y-145815007D01*
X178475184Y-145791803D01*
X178471674Y-145768142D01*
X178470500Y-145744250D01*
X178470500Y-144831750D01*
X178471674Y-144807858D01*
X178475184Y-144784197D01*
X178480996Y-144760993D01*
X178489054Y-144738471D01*
X178499282Y-144716847D01*
X178511579Y-144696330D01*
X178525829Y-144677117D01*
X178541893Y-144659393D01*
X178559617Y-144643329D01*
X178578830Y-144629079D01*
X178599347Y-144616782D01*
X178620971Y-144606554D01*
X178643493Y-144598496D01*
X178666697Y-144592684D01*
X178690358Y-144589174D01*
X178714250Y-144588000D01*
X179201750Y-144588000D01*
X179225642Y-144589174D01*
X179225642Y-144589174D01*
G37*
D17*
G04 #@! TD*
G04 #@! TO.P,C4,2*
G04 #@! TO.N,GND*
X178958000Y-145288000D03*
D16*
G04 #@! TO.N,+3V3*
G04 #@! TO.C,C4*
G36*
X181100642Y-144589174D02*
X181124303Y-144592684D01*
X181147507Y-144598496D01*
X181170029Y-144606554D01*
X181191653Y-144616782D01*
X181212170Y-144629079D01*
X181231383Y-144643329D01*
X181249107Y-144659393D01*
X181265171Y-144677117D01*
X181279421Y-144696330D01*
X181291718Y-144716847D01*
X181301946Y-144738471D01*
X181310004Y-144760993D01*
X181315816Y-144784197D01*
X181319326Y-144807858D01*
X181320500Y-144831750D01*
X181320500Y-145744250D01*
X181319326Y-145768142D01*
X181315816Y-145791803D01*
X181310004Y-145815007D01*
X181301946Y-145837529D01*
X181291718Y-145859153D01*
X181279421Y-145879670D01*
X181265171Y-145898883D01*
X181249107Y-145916607D01*
X181231383Y-145932671D01*
X181212170Y-145946921D01*
X181191653Y-145959218D01*
X181170029Y-145969446D01*
X181147507Y-145977504D01*
X181124303Y-145983316D01*
X181100642Y-145986826D01*
X181076750Y-145988000D01*
X180589250Y-145988000D01*
X180565358Y-145986826D01*
X180541697Y-145983316D01*
X180518493Y-145977504D01*
X180495971Y-145969446D01*
X180474347Y-145959218D01*
X180453830Y-145946921D01*
X180434617Y-145932671D01*
X180416893Y-145916607D01*
X180400829Y-145898883D01*
X180386579Y-145879670D01*
X180374282Y-145859153D01*
X180364054Y-145837529D01*
X180355996Y-145815007D01*
X180350184Y-145791803D01*
X180346674Y-145768142D01*
X180345500Y-145744250D01*
X180345500Y-144831750D01*
X180346674Y-144807858D01*
X180350184Y-144784197D01*
X180355996Y-144760993D01*
X180364054Y-144738471D01*
X180374282Y-144716847D01*
X180386579Y-144696330D01*
X180400829Y-144677117D01*
X180416893Y-144659393D01*
X180434617Y-144643329D01*
X180453830Y-144629079D01*
X180474347Y-144616782D01*
X180495971Y-144606554D01*
X180518493Y-144598496D01*
X180541697Y-144592684D01*
X180565358Y-144589174D01*
X180589250Y-144588000D01*
X181076750Y-144588000D01*
X181100642Y-144589174D01*
X181100642Y-144589174D01*
G37*
D17*
G04 #@! TD*
G04 #@! TO.P,C4,1*
G04 #@! TO.N,+3V3*
X180833000Y-145288000D03*
D16*
G04 #@! TO.N,GND*
G04 #@! TO.C,C2*
G36*
X189830142Y-142938174D02*
X189853803Y-142941684D01*
X189877007Y-142947496D01*
X189899529Y-142955554D01*
X189921153Y-142965782D01*
X189941670Y-142978079D01*
X189960883Y-142992329D01*
X189978607Y-143008393D01*
X189994671Y-143026117D01*
X190008921Y-143045330D01*
X190021218Y-143065847D01*
X190031446Y-143087471D01*
X190039504Y-143109993D01*
X190045316Y-143133197D01*
X190048826Y-143156858D01*
X190050000Y-143180750D01*
X190050000Y-144093250D01*
X190048826Y-144117142D01*
X190045316Y-144140803D01*
X190039504Y-144164007D01*
X190031446Y-144186529D01*
X190021218Y-144208153D01*
X190008921Y-144228670D01*
X189994671Y-144247883D01*
X189978607Y-144265607D01*
X189960883Y-144281671D01*
X189941670Y-144295921D01*
X189921153Y-144308218D01*
X189899529Y-144318446D01*
X189877007Y-144326504D01*
X189853803Y-144332316D01*
X189830142Y-144335826D01*
X189806250Y-144337000D01*
X189318750Y-144337000D01*
X189294858Y-144335826D01*
X189271197Y-144332316D01*
X189247993Y-144326504D01*
X189225471Y-144318446D01*
X189203847Y-144308218D01*
X189183330Y-144295921D01*
X189164117Y-144281671D01*
X189146393Y-144265607D01*
X189130329Y-144247883D01*
X189116079Y-144228670D01*
X189103782Y-144208153D01*
X189093554Y-144186529D01*
X189085496Y-144164007D01*
X189079684Y-144140803D01*
X189076174Y-144117142D01*
X189075000Y-144093250D01*
X189075000Y-143180750D01*
X189076174Y-143156858D01*
X189079684Y-143133197D01*
X189085496Y-143109993D01*
X189093554Y-143087471D01*
X189103782Y-143065847D01*
X189116079Y-143045330D01*
X189130329Y-143026117D01*
X189146393Y-143008393D01*
X189164117Y-142992329D01*
X189183330Y-142978079D01*
X189203847Y-142965782D01*
X189225471Y-142955554D01*
X189247993Y-142947496D01*
X189271197Y-142941684D01*
X189294858Y-142938174D01*
X189318750Y-142937000D01*
X189806250Y-142937000D01*
X189830142Y-142938174D01*
X189830142Y-142938174D01*
G37*
D17*
G04 #@! TD*
G04 #@! TO.P,C2,2*
G04 #@! TO.N,GND*
X189562500Y-143637000D03*
D16*
G04 #@! TO.N,+5V*
G04 #@! TO.C,C2*
G36*
X191705142Y-142938174D02*
X191728803Y-142941684D01*
X191752007Y-142947496D01*
X191774529Y-142955554D01*
X191796153Y-142965782D01*
X191816670Y-142978079D01*
X191835883Y-142992329D01*
X191853607Y-143008393D01*
X191869671Y-143026117D01*
X191883921Y-143045330D01*
X191896218Y-143065847D01*
X191906446Y-143087471D01*
X191914504Y-143109993D01*
X191920316Y-143133197D01*
X191923826Y-143156858D01*
X191925000Y-143180750D01*
X191925000Y-144093250D01*
X191923826Y-144117142D01*
X191920316Y-144140803D01*
X191914504Y-144164007D01*
X191906446Y-144186529D01*
X191896218Y-144208153D01*
X191883921Y-144228670D01*
X191869671Y-144247883D01*
X191853607Y-144265607D01*
X191835883Y-144281671D01*
X191816670Y-144295921D01*
X191796153Y-144308218D01*
X191774529Y-144318446D01*
X191752007Y-144326504D01*
X191728803Y-144332316D01*
X191705142Y-144335826D01*
X191681250Y-144337000D01*
X191193750Y-144337000D01*
X191169858Y-144335826D01*
X191146197Y-144332316D01*
X191122993Y-144326504D01*
X191100471Y-144318446D01*
X191078847Y-144308218D01*
X191058330Y-144295921D01*
X191039117Y-144281671D01*
X191021393Y-144265607D01*
X191005329Y-144247883D01*
X190991079Y-144228670D01*
X190978782Y-144208153D01*
X190968554Y-144186529D01*
X190960496Y-144164007D01*
X190954684Y-144140803D01*
X190951174Y-144117142D01*
X190950000Y-144093250D01*
X190950000Y-143180750D01*
X190951174Y-143156858D01*
X190954684Y-143133197D01*
X190960496Y-143109993D01*
X190968554Y-143087471D01*
X190978782Y-143065847D01*
X190991079Y-143045330D01*
X191005329Y-143026117D01*
X191021393Y-143008393D01*
X191039117Y-142992329D01*
X191058330Y-142978079D01*
X191078847Y-142965782D01*
X191100471Y-142955554D01*
X191122993Y-142947496D01*
X191146197Y-142941684D01*
X191169858Y-142938174D01*
X191193750Y-142937000D01*
X191681250Y-142937000D01*
X191705142Y-142938174D01*
X191705142Y-142938174D01*
G37*
D17*
G04 #@! TD*
G04 #@! TO.P,C2,1*
G04 #@! TO.N,+5V*
X191437500Y-143637000D03*
D19*
G04 #@! TO.P,U2,1*
G04 #@! TO.N,Net-(J5-Pad6)*
X166115064Y-137600082D03*
D16*
G04 #@! TD*
G04 #@! TO.N,Net-(J5-Pad6)*
G04 #@! TO.C,U2*
G36*
X165779188Y-138324866D02*
X165390280Y-137935958D01*
X166450940Y-136875298D01*
X166839848Y-137264206D01*
X165779188Y-138324866D01*
X165779188Y-138324866D01*
G37*
D19*
G04 #@! TO.P,U2,2*
G04 #@! TO.N,Net-(J5-Pad7)*
X166680750Y-138165767D03*
D16*
G04 #@! TD*
G04 #@! TO.N,Net-(J5-Pad7)*
G04 #@! TO.C,U2*
G36*
X166344874Y-138890551D02*
X165955966Y-138501643D01*
X167016626Y-137440983D01*
X167405534Y-137829891D01*
X166344874Y-138890551D01*
X166344874Y-138890551D01*
G37*
D19*
G04 #@! TO.P,U2,3*
G04 #@! TO.N,Net-(J5-Pad8)*
X167246435Y-138731452D03*
D16*
G04 #@! TD*
G04 #@! TO.N,Net-(J5-Pad8)*
G04 #@! TO.C,U2*
G36*
X166910559Y-139456236D02*
X166521651Y-139067328D01*
X167582311Y-138006668D01*
X167971219Y-138395576D01*
X166910559Y-139456236D01*
X166910559Y-139456236D01*
G37*
D19*
G04 #@! TO.P,U2,4*
G04 #@! TO.N,Net-(U2-Pad4)*
X167812120Y-139297138D03*
D16*
G04 #@! TD*
G04 #@! TO.N,Net-(U2-Pad4)*
G04 #@! TO.C,U2*
G36*
X167476244Y-140021922D02*
X167087336Y-139633014D01*
X168147996Y-138572354D01*
X168536904Y-138961262D01*
X167476244Y-140021922D01*
X167476244Y-140021922D01*
G37*
D19*
G04 #@! TO.P,U2,5*
G04 #@! TO.N,Net-(U2-Pad5)*
X168377806Y-139862823D03*
D16*
G04 #@! TD*
G04 #@! TO.N,Net-(U2-Pad5)*
G04 #@! TO.C,U2*
G36*
X168041930Y-140587607D02*
X167653022Y-140198699D01*
X168713682Y-139138039D01*
X169102590Y-139526947D01*
X168041930Y-140587607D01*
X168041930Y-140587607D01*
G37*
D19*
G04 #@! TO.P,U2,6*
G04 #@! TO.N,Net-(U2-Pad6)*
X168943491Y-140428509D03*
D16*
G04 #@! TD*
G04 #@! TO.N,Net-(U2-Pad6)*
G04 #@! TO.C,U2*
G36*
X168607615Y-141153293D02*
X168218707Y-140764385D01*
X169279367Y-139703725D01*
X169668275Y-140092633D01*
X168607615Y-141153293D01*
X168607615Y-141153293D01*
G37*
D19*
G04 #@! TO.P,U2,7*
G04 #@! TO.N,Net-(U2-Pad7)*
X169509177Y-140994194D03*
D16*
G04 #@! TD*
G04 #@! TO.N,Net-(U2-Pad7)*
G04 #@! TO.C,U2*
G36*
X169173301Y-141718978D02*
X168784393Y-141330070D01*
X169845053Y-140269410D01*
X170233961Y-140658318D01*
X169173301Y-141718978D01*
X169173301Y-141718978D01*
G37*
D19*
G04 #@! TO.P,U2,8*
G04 #@! TO.N,GND*
X170074862Y-141559880D03*
D16*
G04 #@! TD*
G04 #@! TO.N,GND*
G04 #@! TO.C,U2*
G36*
X169738986Y-142284664D02*
X169350078Y-141895756D01*
X170410738Y-140835096D01*
X170799646Y-141224004D01*
X169738986Y-142284664D01*
X169738986Y-142284664D01*
G37*
D19*
G04 #@! TO.P,U2,9*
G04 #@! TO.N,+3V3*
X170640548Y-142125565D03*
D16*
G04 #@! TD*
G04 #@! TO.N,+3V3*
G04 #@! TO.C,U2*
G36*
X170304672Y-142850349D02*
X169915764Y-142461441D01*
X170976424Y-141400781D01*
X171365332Y-141789689D01*
X170304672Y-142850349D01*
X170304672Y-142850349D01*
G37*
D19*
G04 #@! TO.P,U2,10*
G04 #@! TO.N,Net-(J7-Pad1)*
X171206233Y-142691250D03*
D16*
G04 #@! TD*
G04 #@! TO.N,Net-(J7-Pad1)*
G04 #@! TO.C,U2*
G36*
X170870357Y-143416034D02*
X170481449Y-143027126D01*
X171542109Y-141966466D01*
X171931017Y-142355374D01*
X170870357Y-143416034D01*
X170870357Y-143416034D01*
G37*
D19*
G04 #@! TO.P,U2,11*
G04 #@! TO.N,Net-(J7-Pad2)*
X171771918Y-143256936D03*
D16*
G04 #@! TD*
G04 #@! TO.N,Net-(J7-Pad2)*
G04 #@! TO.C,U2*
G36*
X171436042Y-143981720D02*
X171047134Y-143592812D01*
X172107794Y-142532152D01*
X172496702Y-142921060D01*
X171436042Y-143981720D01*
X171436042Y-143981720D01*
G37*
D19*
G04 #@! TO.P,U2,12*
G04 #@! TO.N,Net-(J7-Pad3)*
X174176082Y-143256936D03*
D16*
G04 #@! TD*
G04 #@! TO.N,Net-(J7-Pad3)*
G04 #@! TO.C,U2*
G36*
X174900866Y-143592812D02*
X174511958Y-143981720D01*
X173451298Y-142921060D01*
X173840206Y-142532152D01*
X174900866Y-143592812D01*
X174900866Y-143592812D01*
G37*
D19*
G04 #@! TO.P,U2,13*
G04 #@! TO.N,Net-(J7-Pad4)*
X174741767Y-142691250D03*
D16*
G04 #@! TD*
G04 #@! TO.N,Net-(J7-Pad4)*
G04 #@! TO.C,U2*
G36*
X175466551Y-143027126D02*
X175077643Y-143416034D01*
X174016983Y-142355374D01*
X174405891Y-141966466D01*
X175466551Y-143027126D01*
X175466551Y-143027126D01*
G37*
D19*
G04 #@! TO.P,U2,14*
G04 #@! TO.N,Net-(J7-Pad5)*
X175307452Y-142125565D03*
D16*
G04 #@! TD*
G04 #@! TO.N,Net-(J7-Pad5)*
G04 #@! TO.C,U2*
G36*
X176032236Y-142461441D02*
X175643328Y-142850349D01*
X174582668Y-141789689D01*
X174971576Y-141400781D01*
X176032236Y-142461441D01*
X176032236Y-142461441D01*
G37*
D19*
G04 #@! TO.P,U2,15*
G04 #@! TO.N,Net-(J7-Pad6)*
X175873138Y-141559880D03*
D16*
G04 #@! TD*
G04 #@! TO.N,Net-(J7-Pad6)*
G04 #@! TO.C,U2*
G36*
X176597922Y-141895756D02*
X176209014Y-142284664D01*
X175148354Y-141224004D01*
X175537262Y-140835096D01*
X176597922Y-141895756D01*
X176597922Y-141895756D01*
G37*
D19*
G04 #@! TO.P,U2,16*
G04 #@! TO.N,Net-(J7-Pad7)*
X176438823Y-140994194D03*
D16*
G04 #@! TD*
G04 #@! TO.N,Net-(J7-Pad7)*
G04 #@! TO.C,U2*
G36*
X177163607Y-141330070D02*
X176774699Y-141718978D01*
X175714039Y-140658318D01*
X176102947Y-140269410D01*
X177163607Y-141330070D01*
X177163607Y-141330070D01*
G37*
D19*
G04 #@! TO.P,U2,17*
G04 #@! TO.N,Net-(J7-Pad8)*
X177004509Y-140428509D03*
D16*
G04 #@! TD*
G04 #@! TO.N,Net-(J7-Pad8)*
G04 #@! TO.C,U2*
G36*
X177729293Y-140764385D02*
X177340385Y-141153293D01*
X176279725Y-140092633D01*
X176668633Y-139703725D01*
X177729293Y-140764385D01*
X177729293Y-140764385D01*
G37*
D19*
G04 #@! TO.P,U2,18*
G04 #@! TO.N,GND*
X177570194Y-139862823D03*
D16*
G04 #@! TD*
G04 #@! TO.N,GND*
G04 #@! TO.C,U2*
G36*
X178294978Y-140198699D02*
X177906070Y-140587607D01*
X176845410Y-139526947D01*
X177234318Y-139138039D01*
X178294978Y-140198699D01*
X178294978Y-140198699D01*
G37*
D19*
G04 #@! TO.P,U2,19*
G04 #@! TO.N,+3V3*
X178135880Y-139297138D03*
D16*
G04 #@! TD*
G04 #@! TO.N,+3V3*
G04 #@! TO.C,U2*
G36*
X178860664Y-139633014D02*
X178471756Y-140021922D01*
X177411096Y-138961262D01*
X177800004Y-138572354D01*
X178860664Y-139633014D01*
X178860664Y-139633014D01*
G37*
D19*
G04 #@! TO.P,U2,20*
G04 #@! TO.N,Net-(U2-Pad20)*
X178701565Y-138731452D03*
D16*
G04 #@! TD*
G04 #@! TO.N,Net-(U2-Pad20)*
G04 #@! TO.C,U2*
G36*
X179426349Y-139067328D02*
X179037441Y-139456236D01*
X177976781Y-138395576D01*
X178365689Y-138006668D01*
X179426349Y-139067328D01*
X179426349Y-139067328D01*
G37*
D19*
G04 #@! TO.P,U2,21*
G04 #@! TO.N,Net-(U2-Pad21)*
X179267250Y-138165767D03*
D16*
G04 #@! TD*
G04 #@! TO.N,Net-(U2-Pad21)*
G04 #@! TO.C,U2*
G36*
X179992034Y-138501643D02*
X179603126Y-138890551D01*
X178542466Y-137829891D01*
X178931374Y-137440983D01*
X179992034Y-138501643D01*
X179992034Y-138501643D01*
G37*
D19*
G04 #@! TO.P,U2,22*
G04 #@! TO.N,Net-(U2-Pad22)*
X179832936Y-137600082D03*
D16*
G04 #@! TD*
G04 #@! TO.N,Net-(U2-Pad22)*
G04 #@! TO.C,U2*
G36*
X180557720Y-137935958D02*
X180168812Y-138324866D01*
X179108152Y-137264206D01*
X179497060Y-136875298D01*
X180557720Y-137935958D01*
X180557720Y-137935958D01*
G37*
D19*
G04 #@! TO.P,U2,23*
G04 #@! TO.N,Net-(U2-Pad23)*
X179832936Y-135195918D03*
D16*
G04 #@! TD*
G04 #@! TO.N,Net-(U2-Pad23)*
G04 #@! TO.C,U2*
G36*
X179497060Y-135920702D02*
X179108152Y-135531794D01*
X180168812Y-134471134D01*
X180557720Y-134860042D01*
X179497060Y-135920702D01*
X179497060Y-135920702D01*
G37*
D19*
G04 #@! TO.P,U2,24*
G04 #@! TO.N,Net-(U2-Pad24)*
X179267250Y-134630233D03*
D16*
G04 #@! TD*
G04 #@! TO.N,Net-(U2-Pad24)*
G04 #@! TO.C,U2*
G36*
X178931374Y-135355017D02*
X178542466Y-134966109D01*
X179603126Y-133905449D01*
X179992034Y-134294357D01*
X178931374Y-135355017D01*
X178931374Y-135355017D01*
G37*
D19*
G04 #@! TO.P,U2,25*
G04 #@! TO.N,Net-(U2-Pad25)*
X178701565Y-134064548D03*
D16*
G04 #@! TD*
G04 #@! TO.N,Net-(U2-Pad25)*
G04 #@! TO.C,U2*
G36*
X178365689Y-134789332D02*
X177976781Y-134400424D01*
X179037441Y-133339764D01*
X179426349Y-133728672D01*
X178365689Y-134789332D01*
X178365689Y-134789332D01*
G37*
D19*
G04 #@! TO.P,U2,26*
G04 #@! TO.N,/USBD-*
X178135880Y-133498862D03*
D16*
G04 #@! TD*
G04 #@! TO.N,/USBD-*
G04 #@! TO.C,U2*
G36*
X177800004Y-134223646D02*
X177411096Y-133834738D01*
X178471756Y-132774078D01*
X178860664Y-133162986D01*
X177800004Y-134223646D01*
X177800004Y-134223646D01*
G37*
D19*
G04 #@! TO.P,U2,27*
G04 #@! TO.N,/USBD+*
X177570194Y-132933177D03*
D16*
G04 #@! TD*
G04 #@! TO.N,/USBD+*
G04 #@! TO.C,U2*
G36*
X177234318Y-133657961D02*
X176845410Y-133269053D01*
X177906070Y-132208393D01*
X178294978Y-132597301D01*
X177234318Y-133657961D01*
X177234318Y-133657961D01*
G37*
D19*
G04 #@! TO.P,U2,28*
G04 #@! TO.N,Net-(U2-Pad28)*
X177004509Y-132367491D03*
D16*
G04 #@! TD*
G04 #@! TO.N,Net-(U2-Pad28)*
G04 #@! TO.C,U2*
G36*
X176668633Y-133092275D02*
X176279725Y-132703367D01*
X177340385Y-131642707D01*
X177729293Y-132031615D01*
X176668633Y-133092275D01*
X176668633Y-133092275D01*
G37*
D19*
G04 #@! TO.P,U2,29*
G04 #@! TO.N,Net-(U2-Pad29)*
X176438823Y-131801806D03*
D16*
G04 #@! TD*
G04 #@! TO.N,Net-(U2-Pad29)*
G04 #@! TO.C,U2*
G36*
X176102947Y-132526590D02*
X175714039Y-132137682D01*
X176774699Y-131077022D01*
X177163607Y-131465930D01*
X176102947Y-132526590D01*
X176102947Y-132526590D01*
G37*
D19*
G04 #@! TO.P,U2,30*
G04 #@! TO.N,GND*
X175873138Y-131236120D03*
D16*
G04 #@! TD*
G04 #@! TO.N,GND*
G04 #@! TO.C,U2*
G36*
X175537262Y-131960904D02*
X175148354Y-131571996D01*
X176209014Y-130511336D01*
X176597922Y-130900244D01*
X175537262Y-131960904D01*
X175537262Y-131960904D01*
G37*
D19*
G04 #@! TO.P,U2,31*
G04 #@! TO.N,+3V3*
X175307452Y-130670435D03*
D16*
G04 #@! TD*
G04 #@! TO.N,+3V3*
G04 #@! TO.C,U2*
G36*
X174971576Y-131395219D02*
X174582668Y-131006311D01*
X175643328Y-129945651D01*
X176032236Y-130334559D01*
X174971576Y-131395219D01*
X174971576Y-131395219D01*
G37*
D19*
G04 #@! TO.P,U2,32*
G04 #@! TO.N,Net-(U2-Pad32)*
X174741767Y-130104750D03*
D16*
G04 #@! TD*
G04 #@! TO.N,Net-(U2-Pad32)*
G04 #@! TO.C,U2*
G36*
X174405891Y-130829534D02*
X174016983Y-130440626D01*
X175077643Y-129379966D01*
X175466551Y-129768874D01*
X174405891Y-130829534D01*
X174405891Y-130829534D01*
G37*
D19*
G04 #@! TO.P,U2,33*
G04 #@! TO.N,Net-(U2-Pad33)*
X174176082Y-129539064D03*
D16*
G04 #@! TD*
G04 #@! TO.N,Net-(U2-Pad33)*
G04 #@! TO.C,U2*
G36*
X173840206Y-130263848D02*
X173451298Y-129874940D01*
X174511958Y-128814280D01*
X174900866Y-129203188D01*
X173840206Y-130263848D01*
X173840206Y-130263848D01*
G37*
D19*
G04 #@! TO.P,U2,34*
G04 #@! TO.N,/PDI_DATA*
X171771918Y-129539064D03*
D16*
G04 #@! TD*
G04 #@! TO.N,/PDI_DATA*
G04 #@! TO.C,U2*
G36*
X172496702Y-129874940D02*
X172107794Y-130263848D01*
X171047134Y-129203188D01*
X171436042Y-128814280D01*
X172496702Y-129874940D01*
X172496702Y-129874940D01*
G37*
D19*
G04 #@! TO.P,U2,35*
G04 #@! TO.N,/RESET*
X171206233Y-130104750D03*
D16*
G04 #@! TD*
G04 #@! TO.N,/RESET*
G04 #@! TO.C,U2*
G36*
X171931017Y-130440626D02*
X171542109Y-130829534D01*
X170481449Y-129768874D01*
X170870357Y-129379966D01*
X171931017Y-130440626D01*
X171931017Y-130440626D01*
G37*
D19*
G04 #@! TO.P,U2,36*
G04 #@! TO.N,/XTAL2*
X170640548Y-130670435D03*
D16*
G04 #@! TD*
G04 #@! TO.N,/XTAL2*
G04 #@! TO.C,U2*
G36*
X171365332Y-131006311D02*
X170976424Y-131395219D01*
X169915764Y-130334559D01*
X170304672Y-129945651D01*
X171365332Y-131006311D01*
X171365332Y-131006311D01*
G37*
D19*
G04 #@! TO.P,U2,37*
G04 #@! TO.N,/XTAL1*
X170074862Y-131236120D03*
D16*
G04 #@! TD*
G04 #@! TO.N,/XTAL1*
G04 #@! TO.C,U2*
G36*
X170799646Y-131571996D02*
X170410738Y-131960904D01*
X169350078Y-130900244D01*
X169738986Y-130511336D01*
X170799646Y-131571996D01*
X170799646Y-131571996D01*
G37*
D19*
G04 #@! TO.P,U2,38*
G04 #@! TO.N,GND*
X169509177Y-131801806D03*
D16*
G04 #@! TD*
G04 #@! TO.N,GND*
G04 #@! TO.C,U2*
G36*
X170233961Y-132137682D02*
X169845053Y-132526590D01*
X168784393Y-131465930D01*
X169173301Y-131077022D01*
X170233961Y-132137682D01*
X170233961Y-132137682D01*
G37*
D19*
G04 #@! TO.P,U2,39*
G04 #@! TO.N,Net-(C7-Pad2)*
X168943491Y-132367491D03*
D16*
G04 #@! TD*
G04 #@! TO.N,Net-(C7-Pad2)*
G04 #@! TO.C,U2*
G36*
X169668275Y-132703367D02*
X169279367Y-133092275D01*
X168218707Y-132031615D01*
X168607615Y-131642707D01*
X169668275Y-132703367D01*
X169668275Y-132703367D01*
G37*
D19*
G04 #@! TO.P,U2,40*
G04 #@! TO.N,Net-(J5-Pad1)*
X168377806Y-132933177D03*
D16*
G04 #@! TD*
G04 #@! TO.N,Net-(J5-Pad1)*
G04 #@! TO.C,U2*
G36*
X169102590Y-133269053D02*
X168713682Y-133657961D01*
X167653022Y-132597301D01*
X168041930Y-132208393D01*
X169102590Y-133269053D01*
X169102590Y-133269053D01*
G37*
D19*
G04 #@! TO.P,U2,41*
G04 #@! TO.N,Net-(J5-Pad2)*
X167812120Y-133498862D03*
D16*
G04 #@! TD*
G04 #@! TO.N,Net-(J5-Pad2)*
G04 #@! TO.C,U2*
G36*
X168536904Y-133834738D02*
X168147996Y-134223646D01*
X167087336Y-133162986D01*
X167476244Y-132774078D01*
X168536904Y-133834738D01*
X168536904Y-133834738D01*
G37*
D19*
G04 #@! TO.P,U2,42*
G04 #@! TO.N,Net-(J5-Pad3)*
X167246435Y-134064548D03*
D16*
G04 #@! TD*
G04 #@! TO.N,Net-(J5-Pad3)*
G04 #@! TO.C,U2*
G36*
X167971219Y-134400424D02*
X167582311Y-134789332D01*
X166521651Y-133728672D01*
X166910559Y-133339764D01*
X167971219Y-134400424D01*
X167971219Y-134400424D01*
G37*
D19*
G04 #@! TO.P,U2,43*
G04 #@! TO.N,Net-(J5-Pad4)*
X166680750Y-134630233D03*
D16*
G04 #@! TD*
G04 #@! TO.N,Net-(J5-Pad4)*
G04 #@! TO.C,U2*
G36*
X167405534Y-134966109D02*
X167016626Y-135355017D01*
X165955966Y-134294357D01*
X166344874Y-133905449D01*
X167405534Y-134966109D01*
X167405534Y-134966109D01*
G37*
D19*
G04 #@! TO.P,U2,44*
G04 #@! TO.N,Net-(J5-Pad5)*
X166115064Y-135195918D03*
D16*
G04 #@! TD*
G04 #@! TO.N,Net-(J5-Pad5)*
G04 #@! TO.C,U2*
G36*
X166839848Y-135531794D02*
X166450940Y-135920702D01*
X165390280Y-134860042D01*
X165779188Y-134471134D01*
X166839848Y-135531794D01*
X166839848Y-135531794D01*
G37*
D20*
G04 #@! TO.P,U1,2*
G04 #@! TO.N,+3V3*
X185318000Y-148907500D03*
D21*
X191618000Y-148907500D03*
G04 #@! TO.P,U1,3*
G04 #@! TO.N,+5V*
X191618000Y-146607500D03*
G04 #@! TO.P,U1,1*
G04 #@! TO.N,GND*
X191618000Y-151207500D03*
G04 #@! TD*
D14*
G04 #@! TO.P,J7,8*
G04 #@! TO.N,Net-(J7-Pad8)*
X178117500Y-148209000D03*
G04 #@! TO.P,J7,7*
G04 #@! TO.N,Net-(J7-Pad7)*
X178117500Y-150749000D03*
G04 #@! TO.P,J7,6*
G04 #@! TO.N,Net-(J7-Pad6)*
X175577500Y-148209000D03*
G04 #@! TO.P,J7,5*
G04 #@! TO.N,Net-(J7-Pad5)*
X175577500Y-150749000D03*
G04 #@! TO.P,J7,4*
G04 #@! TO.N,Net-(J7-Pad4)*
X173037500Y-148209000D03*
G04 #@! TO.P,J7,3*
G04 #@! TO.N,Net-(J7-Pad3)*
X173037500Y-150749000D03*
G04 #@! TO.P,J7,2*
G04 #@! TO.N,Net-(J7-Pad2)*
X170497500Y-148209000D03*
D15*
G04 #@! TO.P,J7,1*
G04 #@! TO.N,Net-(J7-Pad1)*
X170497500Y-150749000D03*
G04 #@! TD*
D14*
G04 #@! TO.P,JP1,2*
G04 #@! TO.N,+3V3*
X182118000Y-148209000D03*
D15*
G04 #@! TO.P,JP1,1*
G04 #@! TO.N,GND*
X182118000Y-150749000D03*
G04 #@! TD*
D22*
G04 #@! TO.P,SW1,1*
G04 #@! TO.N,Net-(R2-Pad2)*
X158369000Y-144988500D03*
G04 #@! TO.P,SW1,2*
G04 #@! TO.N,/RESET*
X158369000Y-135808500D03*
G04 #@! TD*
D16*
G04 #@! TO.N,GND*
G04 #@! TO.C,C5*
G36*
X179106219Y-141212862D02*
X179129880Y-141216372D01*
X179153084Y-141222184D01*
X179175606Y-141230242D01*
X179197230Y-141240470D01*
X179217747Y-141252767D01*
X179236960Y-141267017D01*
X179254684Y-141283081D01*
X179899919Y-141928316D01*
X179915983Y-141946040D01*
X179930233Y-141965253D01*
X179942530Y-141985770D01*
X179952758Y-142007394D01*
X179960816Y-142029916D01*
X179966628Y-142053120D01*
X179970138Y-142076781D01*
X179971312Y-142100673D01*
X179970138Y-142124565D01*
X179966628Y-142148226D01*
X179960816Y-142171430D01*
X179952758Y-142193952D01*
X179942530Y-142215576D01*
X179930233Y-142236093D01*
X179915983Y-142255306D01*
X179899919Y-142273030D01*
X179555204Y-142617745D01*
X179537480Y-142633809D01*
X179518267Y-142648059D01*
X179497750Y-142660356D01*
X179476126Y-142670584D01*
X179453604Y-142678642D01*
X179430400Y-142684454D01*
X179406739Y-142687964D01*
X179382847Y-142689138D01*
X179358955Y-142687964D01*
X179335294Y-142684454D01*
X179312090Y-142678642D01*
X179289568Y-142670584D01*
X179267944Y-142660356D01*
X179247427Y-142648059D01*
X179228214Y-142633809D01*
X179210490Y-142617745D01*
X178565255Y-141972510D01*
X178549191Y-141954786D01*
X178534941Y-141935573D01*
X178522644Y-141915056D01*
X178512416Y-141893432D01*
X178504358Y-141870910D01*
X178498546Y-141847706D01*
X178495036Y-141824045D01*
X178493862Y-141800153D01*
X178495036Y-141776261D01*
X178498546Y-141752600D01*
X178504358Y-141729396D01*
X178512416Y-141706874D01*
X178522644Y-141685250D01*
X178534941Y-141664733D01*
X178549191Y-141645520D01*
X178565255Y-141627796D01*
X178909970Y-141283081D01*
X178927694Y-141267017D01*
X178946907Y-141252767D01*
X178967424Y-141240470D01*
X178989048Y-141230242D01*
X179011570Y-141222184D01*
X179034774Y-141216372D01*
X179058435Y-141212862D01*
X179082327Y-141211688D01*
X179106219Y-141212862D01*
X179106219Y-141212862D01*
G37*
D17*
G04 #@! TD*
G04 #@! TO.P,C5,1*
G04 #@! TO.N,GND*
X179232587Y-141950413D03*
D16*
G04 #@! TO.N,+3V3*
G04 #@! TO.C,C5*
G36*
X180432045Y-139887036D02*
X180455706Y-139890546D01*
X180478910Y-139896358D01*
X180501432Y-139904416D01*
X180523056Y-139914644D01*
X180543573Y-139926941D01*
X180562786Y-139941191D01*
X180580510Y-139957255D01*
X181225745Y-140602490D01*
X181241809Y-140620214D01*
X181256059Y-140639427D01*
X181268356Y-140659944D01*
X181278584Y-140681568D01*
X181286642Y-140704090D01*
X181292454Y-140727294D01*
X181295964Y-140750955D01*
X181297138Y-140774847D01*
X181295964Y-140798739D01*
X181292454Y-140822400D01*
X181286642Y-140845604D01*
X181278584Y-140868126D01*
X181268356Y-140889750D01*
X181256059Y-140910267D01*
X181241809Y-140929480D01*
X181225745Y-140947204D01*
X180881030Y-141291919D01*
X180863306Y-141307983D01*
X180844093Y-141322233D01*
X180823576Y-141334530D01*
X180801952Y-141344758D01*
X180779430Y-141352816D01*
X180756226Y-141358628D01*
X180732565Y-141362138D01*
X180708673Y-141363312D01*
X180684781Y-141362138D01*
X180661120Y-141358628D01*
X180637916Y-141352816D01*
X180615394Y-141344758D01*
X180593770Y-141334530D01*
X180573253Y-141322233D01*
X180554040Y-141307983D01*
X180536316Y-141291919D01*
X179891081Y-140646684D01*
X179875017Y-140628960D01*
X179860767Y-140609747D01*
X179848470Y-140589230D01*
X179838242Y-140567606D01*
X179830184Y-140545084D01*
X179824372Y-140521880D01*
X179820862Y-140498219D01*
X179819688Y-140474327D01*
X179820862Y-140450435D01*
X179824372Y-140426774D01*
X179830184Y-140403570D01*
X179838242Y-140381048D01*
X179848470Y-140359424D01*
X179860767Y-140338907D01*
X179875017Y-140319694D01*
X179891081Y-140301970D01*
X180235796Y-139957255D01*
X180253520Y-139941191D01*
X180272733Y-139926941D01*
X180293250Y-139914644D01*
X180314874Y-139904416D01*
X180337396Y-139896358D01*
X180360600Y-139890546D01*
X180384261Y-139887036D01*
X180408153Y-139885862D01*
X180432045Y-139887036D01*
X180432045Y-139887036D01*
G37*
D17*
G04 #@! TD*
G04 #@! TO.P,C5,2*
G04 #@! TO.N,+3V3*
X180558413Y-140624587D03*
D16*
G04 #@! TO.N,+3V3*
G04 #@! TO.C,C6*
G36*
X176902326Y-127603623D02*
X176925987Y-127607133D01*
X176949191Y-127612945D01*
X176971713Y-127621003D01*
X176993337Y-127631231D01*
X177013854Y-127643528D01*
X177033067Y-127657778D01*
X177050791Y-127673842D01*
X177395506Y-128018557D01*
X177411570Y-128036281D01*
X177425820Y-128055494D01*
X177438117Y-128076011D01*
X177448345Y-128097635D01*
X177456403Y-128120157D01*
X177462215Y-128143361D01*
X177465725Y-128167022D01*
X177466899Y-128190914D01*
X177465725Y-128214806D01*
X177462215Y-128238467D01*
X177456403Y-128261671D01*
X177448345Y-128284193D01*
X177438117Y-128305817D01*
X177425820Y-128326334D01*
X177411570Y-128345547D01*
X177395506Y-128363271D01*
X176750271Y-129008506D01*
X176732547Y-129024570D01*
X176713334Y-129038820D01*
X176692817Y-129051117D01*
X176671193Y-129061345D01*
X176648671Y-129069403D01*
X176625467Y-129075215D01*
X176601806Y-129078725D01*
X176577914Y-129079899D01*
X176554022Y-129078725D01*
X176530361Y-129075215D01*
X176507157Y-129069403D01*
X176484635Y-129061345D01*
X176463011Y-129051117D01*
X176442494Y-129038820D01*
X176423281Y-129024570D01*
X176405557Y-129008506D01*
X176060842Y-128663791D01*
X176044778Y-128646067D01*
X176030528Y-128626854D01*
X176018231Y-128606337D01*
X176008003Y-128584713D01*
X175999945Y-128562191D01*
X175994133Y-128538987D01*
X175990623Y-128515326D01*
X175989449Y-128491434D01*
X175990623Y-128467542D01*
X175994133Y-128443881D01*
X175999945Y-128420677D01*
X176008003Y-128398155D01*
X176018231Y-128376531D01*
X176030528Y-128356014D01*
X176044778Y-128336801D01*
X176060842Y-128319077D01*
X176706077Y-127673842D01*
X176723801Y-127657778D01*
X176743014Y-127643528D01*
X176763531Y-127631231D01*
X176785155Y-127621003D01*
X176807677Y-127612945D01*
X176830881Y-127607133D01*
X176854542Y-127603623D01*
X176878434Y-127602449D01*
X176902326Y-127603623D01*
X176902326Y-127603623D01*
G37*
D17*
G04 #@! TD*
G04 #@! TO.P,C6,2*
G04 #@! TO.N,+3V3*
X176728174Y-128341174D03*
D16*
G04 #@! TO.N,GND*
G04 #@! TO.C,C6*
G36*
X178228152Y-128929449D02*
X178251813Y-128932959D01*
X178275017Y-128938771D01*
X178297539Y-128946829D01*
X178319163Y-128957057D01*
X178339680Y-128969354D01*
X178358893Y-128983604D01*
X178376617Y-128999668D01*
X178721332Y-129344383D01*
X178737396Y-129362107D01*
X178751646Y-129381320D01*
X178763943Y-129401837D01*
X178774171Y-129423461D01*
X178782229Y-129445983D01*
X178788041Y-129469187D01*
X178791551Y-129492848D01*
X178792725Y-129516740D01*
X178791551Y-129540632D01*
X178788041Y-129564293D01*
X178782229Y-129587497D01*
X178774171Y-129610019D01*
X178763943Y-129631643D01*
X178751646Y-129652160D01*
X178737396Y-129671373D01*
X178721332Y-129689097D01*
X178076097Y-130334332D01*
X178058373Y-130350396D01*
X178039160Y-130364646D01*
X178018643Y-130376943D01*
X177997019Y-130387171D01*
X177974497Y-130395229D01*
X177951293Y-130401041D01*
X177927632Y-130404551D01*
X177903740Y-130405725D01*
X177879848Y-130404551D01*
X177856187Y-130401041D01*
X177832983Y-130395229D01*
X177810461Y-130387171D01*
X177788837Y-130376943D01*
X177768320Y-130364646D01*
X177749107Y-130350396D01*
X177731383Y-130334332D01*
X177386668Y-129989617D01*
X177370604Y-129971893D01*
X177356354Y-129952680D01*
X177344057Y-129932163D01*
X177333829Y-129910539D01*
X177325771Y-129888017D01*
X177319959Y-129864813D01*
X177316449Y-129841152D01*
X177315275Y-129817260D01*
X177316449Y-129793368D01*
X177319959Y-129769707D01*
X177325771Y-129746503D01*
X177333829Y-129723981D01*
X177344057Y-129702357D01*
X177356354Y-129681840D01*
X177370604Y-129662627D01*
X177386668Y-129644903D01*
X178031903Y-128999668D01*
X178049627Y-128983604D01*
X178068840Y-128969354D01*
X178089357Y-128957057D01*
X178110981Y-128946829D01*
X178133503Y-128938771D01*
X178156707Y-128932959D01*
X178180368Y-128929449D01*
X178204260Y-128928275D01*
X178228152Y-128929449D01*
X178228152Y-128929449D01*
G37*
D17*
G04 #@! TD*
G04 #@! TO.P,C6,1*
G04 #@! TO.N,GND*
X178054000Y-129667000D03*
D16*
G04 #@! TO.N,GND*
G04 #@! TO.C,C7*
G36*
X168176545Y-129028536D02*
X168200206Y-129032046D01*
X168223410Y-129037858D01*
X168245932Y-129045916D01*
X168267556Y-129056144D01*
X168288073Y-129068441D01*
X168307286Y-129082691D01*
X168325010Y-129098755D01*
X168970245Y-129743990D01*
X168986309Y-129761714D01*
X169000559Y-129780927D01*
X169012856Y-129801444D01*
X169023084Y-129823068D01*
X169031142Y-129845590D01*
X169036954Y-129868794D01*
X169040464Y-129892455D01*
X169041638Y-129916347D01*
X169040464Y-129940239D01*
X169036954Y-129963900D01*
X169031142Y-129987104D01*
X169023084Y-130009626D01*
X169012856Y-130031250D01*
X169000559Y-130051767D01*
X168986309Y-130070980D01*
X168970245Y-130088704D01*
X168625530Y-130433419D01*
X168607806Y-130449483D01*
X168588593Y-130463733D01*
X168568076Y-130476030D01*
X168546452Y-130486258D01*
X168523930Y-130494316D01*
X168500726Y-130500128D01*
X168477065Y-130503638D01*
X168453173Y-130504812D01*
X168429281Y-130503638D01*
X168405620Y-130500128D01*
X168382416Y-130494316D01*
X168359894Y-130486258D01*
X168338270Y-130476030D01*
X168317753Y-130463733D01*
X168298540Y-130449483D01*
X168280816Y-130433419D01*
X167635581Y-129788184D01*
X167619517Y-129770460D01*
X167605267Y-129751247D01*
X167592970Y-129730730D01*
X167582742Y-129709106D01*
X167574684Y-129686584D01*
X167568872Y-129663380D01*
X167565362Y-129639719D01*
X167564188Y-129615827D01*
X167565362Y-129591935D01*
X167568872Y-129568274D01*
X167574684Y-129545070D01*
X167582742Y-129522548D01*
X167592970Y-129500924D01*
X167605267Y-129480407D01*
X167619517Y-129461194D01*
X167635581Y-129443470D01*
X167980296Y-129098755D01*
X167998020Y-129082691D01*
X168017233Y-129068441D01*
X168037750Y-129056144D01*
X168059374Y-129045916D01*
X168081896Y-129037858D01*
X168105100Y-129032046D01*
X168128761Y-129028536D01*
X168152653Y-129027362D01*
X168176545Y-129028536D01*
X168176545Y-129028536D01*
G37*
D17*
G04 #@! TD*
G04 #@! TO.P,C7,1*
G04 #@! TO.N,GND*
X168302913Y-129766087D03*
D16*
G04 #@! TO.N,Net-(C7-Pad2)*
G04 #@! TO.C,C7*
G36*
X166850719Y-130354362D02*
X166874380Y-130357872D01*
X166897584Y-130363684D01*
X166920106Y-130371742D01*
X166941730Y-130381970D01*
X166962247Y-130394267D01*
X166981460Y-130408517D01*
X166999184Y-130424581D01*
X167644419Y-131069816D01*
X167660483Y-131087540D01*
X167674733Y-131106753D01*
X167687030Y-131127270D01*
X167697258Y-131148894D01*
X167705316Y-131171416D01*
X167711128Y-131194620D01*
X167714638Y-131218281D01*
X167715812Y-131242173D01*
X167714638Y-131266065D01*
X167711128Y-131289726D01*
X167705316Y-131312930D01*
X167697258Y-131335452D01*
X167687030Y-131357076D01*
X167674733Y-131377593D01*
X167660483Y-131396806D01*
X167644419Y-131414530D01*
X167299704Y-131759245D01*
X167281980Y-131775309D01*
X167262767Y-131789559D01*
X167242250Y-131801856D01*
X167220626Y-131812084D01*
X167198104Y-131820142D01*
X167174900Y-131825954D01*
X167151239Y-131829464D01*
X167127347Y-131830638D01*
X167103455Y-131829464D01*
X167079794Y-131825954D01*
X167056590Y-131820142D01*
X167034068Y-131812084D01*
X167012444Y-131801856D01*
X166991927Y-131789559D01*
X166972714Y-131775309D01*
X166954990Y-131759245D01*
X166309755Y-131114010D01*
X166293691Y-131096286D01*
X166279441Y-131077073D01*
X166267144Y-131056556D01*
X166256916Y-131034932D01*
X166248858Y-131012410D01*
X166243046Y-130989206D01*
X166239536Y-130965545D01*
X166238362Y-130941653D01*
X166239536Y-130917761D01*
X166243046Y-130894100D01*
X166248858Y-130870896D01*
X166256916Y-130848374D01*
X166267144Y-130826750D01*
X166279441Y-130806233D01*
X166293691Y-130787020D01*
X166309755Y-130769296D01*
X166654470Y-130424581D01*
X166672194Y-130408517D01*
X166691407Y-130394267D01*
X166711924Y-130381970D01*
X166733548Y-130371742D01*
X166756070Y-130363684D01*
X166779274Y-130357872D01*
X166802935Y-130354362D01*
X166826827Y-130353188D01*
X166850719Y-130354362D01*
X166850719Y-130354362D01*
G37*
D17*
G04 #@! TD*
G04 #@! TO.P,C7,2*
G04 #@! TO.N,Net-(C7-Pad2)*
X166977087Y-131091913D03*
D16*
G04 #@! TO.N,+3V3*
G04 #@! TO.C,C11*
G36*
X168985065Y-143054362D02*
X169008726Y-143057872D01*
X169031930Y-143063684D01*
X169054452Y-143071742D01*
X169076076Y-143081970D01*
X169096593Y-143094267D01*
X169115806Y-143108517D01*
X169133530Y-143124581D01*
X169478245Y-143469296D01*
X169494309Y-143487020D01*
X169508559Y-143506233D01*
X169520856Y-143526750D01*
X169531084Y-143548374D01*
X169539142Y-143570896D01*
X169544954Y-143594100D01*
X169548464Y-143617761D01*
X169549638Y-143641653D01*
X169548464Y-143665545D01*
X169544954Y-143689206D01*
X169539142Y-143712410D01*
X169531084Y-143734932D01*
X169520856Y-143756556D01*
X169508559Y-143777073D01*
X169494309Y-143796286D01*
X169478245Y-143814010D01*
X168833010Y-144459245D01*
X168815286Y-144475309D01*
X168796073Y-144489559D01*
X168775556Y-144501856D01*
X168753932Y-144512084D01*
X168731410Y-144520142D01*
X168708206Y-144525954D01*
X168684545Y-144529464D01*
X168660653Y-144530638D01*
X168636761Y-144529464D01*
X168613100Y-144525954D01*
X168589896Y-144520142D01*
X168567374Y-144512084D01*
X168545750Y-144501856D01*
X168525233Y-144489559D01*
X168506020Y-144475309D01*
X168488296Y-144459245D01*
X168143581Y-144114530D01*
X168127517Y-144096806D01*
X168113267Y-144077593D01*
X168100970Y-144057076D01*
X168090742Y-144035452D01*
X168082684Y-144012930D01*
X168076872Y-143989726D01*
X168073362Y-143966065D01*
X168072188Y-143942173D01*
X168073362Y-143918281D01*
X168076872Y-143894620D01*
X168082684Y-143871416D01*
X168090742Y-143848894D01*
X168100970Y-143827270D01*
X168113267Y-143806753D01*
X168127517Y-143787540D01*
X168143581Y-143769816D01*
X168788816Y-143124581D01*
X168806540Y-143108517D01*
X168825753Y-143094267D01*
X168846270Y-143081970D01*
X168867894Y-143071742D01*
X168890416Y-143063684D01*
X168913620Y-143057872D01*
X168937281Y-143054362D01*
X168961173Y-143053188D01*
X168985065Y-143054362D01*
X168985065Y-143054362D01*
G37*
D17*
G04 #@! TD*
G04 #@! TO.P,C11,2*
G04 #@! TO.N,+3V3*
X168810913Y-143791913D03*
D16*
G04 #@! TO.N,GND*
G04 #@! TO.C,C11*
G36*
X167659239Y-141728536D02*
X167682900Y-141732046D01*
X167706104Y-141737858D01*
X167728626Y-141745916D01*
X167750250Y-141756144D01*
X167770767Y-141768441D01*
X167789980Y-141782691D01*
X167807704Y-141798755D01*
X168152419Y-142143470D01*
X168168483Y-142161194D01*
X168182733Y-142180407D01*
X168195030Y-142200924D01*
X168205258Y-142222548D01*
X168213316Y-142245070D01*
X168219128Y-142268274D01*
X168222638Y-142291935D01*
X168223812Y-142315827D01*
X168222638Y-142339719D01*
X168219128Y-142363380D01*
X168213316Y-142386584D01*
X168205258Y-142409106D01*
X168195030Y-142430730D01*
X168182733Y-142451247D01*
X168168483Y-142470460D01*
X168152419Y-142488184D01*
X167507184Y-143133419D01*
X167489460Y-143149483D01*
X167470247Y-143163733D01*
X167449730Y-143176030D01*
X167428106Y-143186258D01*
X167405584Y-143194316D01*
X167382380Y-143200128D01*
X167358719Y-143203638D01*
X167334827Y-143204812D01*
X167310935Y-143203638D01*
X167287274Y-143200128D01*
X167264070Y-143194316D01*
X167241548Y-143186258D01*
X167219924Y-143176030D01*
X167199407Y-143163733D01*
X167180194Y-143149483D01*
X167162470Y-143133419D01*
X166817755Y-142788704D01*
X166801691Y-142770980D01*
X166787441Y-142751767D01*
X166775144Y-142731250D01*
X166764916Y-142709626D01*
X166756858Y-142687104D01*
X166751046Y-142663900D01*
X166747536Y-142640239D01*
X166746362Y-142616347D01*
X166747536Y-142592455D01*
X166751046Y-142568794D01*
X166756858Y-142545590D01*
X166764916Y-142523068D01*
X166775144Y-142501444D01*
X166787441Y-142480927D01*
X166801691Y-142461714D01*
X166817755Y-142443990D01*
X167462990Y-141798755D01*
X167480714Y-141782691D01*
X167499927Y-141768441D01*
X167520444Y-141756144D01*
X167542068Y-141745916D01*
X167564590Y-141737858D01*
X167587794Y-141732046D01*
X167611455Y-141728536D01*
X167635347Y-141727362D01*
X167659239Y-141728536D01*
X167659239Y-141728536D01*
G37*
D17*
G04 #@! TD*
G04 #@! TO.P,C11,1*
G04 #@! TO.N,GND*
X167485087Y-142466087D03*
D23*
G04 #@! TO.P,F1,1*
G04 #@! TO.N,+5V*
X185039000Y-137921000D03*
G04 #@! TO.P,F1,2*
G04 #@! TO.N,Net-(F1-Pad2)*
X185039000Y-134621000D03*
G04 #@! TD*
D16*
G04 #@! TO.N,Net-(C7-Pad2)*
G04 #@! TO.C,L1*
G36*
X165390219Y-128830362D02*
X165413880Y-128833872D01*
X165437084Y-128839684D01*
X165459606Y-128847742D01*
X165481230Y-128857970D01*
X165501747Y-128870267D01*
X165520960Y-128884517D01*
X165538684Y-128900581D01*
X166183919Y-129545816D01*
X166199983Y-129563540D01*
X166214233Y-129582753D01*
X166226530Y-129603270D01*
X166236758Y-129624894D01*
X166244816Y-129647416D01*
X166250628Y-129670620D01*
X166254138Y-129694281D01*
X166255312Y-129718173D01*
X166254138Y-129742065D01*
X166250628Y-129765726D01*
X166244816Y-129788930D01*
X166236758Y-129811452D01*
X166226530Y-129833076D01*
X166214233Y-129853593D01*
X166199983Y-129872806D01*
X166183919Y-129890530D01*
X165839204Y-130235245D01*
X165821480Y-130251309D01*
X165802267Y-130265559D01*
X165781750Y-130277856D01*
X165760126Y-130288084D01*
X165737604Y-130296142D01*
X165714400Y-130301954D01*
X165690739Y-130305464D01*
X165666847Y-130306638D01*
X165642955Y-130305464D01*
X165619294Y-130301954D01*
X165596090Y-130296142D01*
X165573568Y-130288084D01*
X165551944Y-130277856D01*
X165531427Y-130265559D01*
X165512214Y-130251309D01*
X165494490Y-130235245D01*
X164849255Y-129590010D01*
X164833191Y-129572286D01*
X164818941Y-129553073D01*
X164806644Y-129532556D01*
X164796416Y-129510932D01*
X164788358Y-129488410D01*
X164782546Y-129465206D01*
X164779036Y-129441545D01*
X164777862Y-129417653D01*
X164779036Y-129393761D01*
X164782546Y-129370100D01*
X164788358Y-129346896D01*
X164796416Y-129324374D01*
X164806644Y-129302750D01*
X164818941Y-129282233D01*
X164833191Y-129263020D01*
X164849255Y-129245296D01*
X165193970Y-128900581D01*
X165211694Y-128884517D01*
X165230907Y-128870267D01*
X165251424Y-128857970D01*
X165273048Y-128847742D01*
X165295570Y-128839684D01*
X165318774Y-128833872D01*
X165342435Y-128830362D01*
X165366327Y-128829188D01*
X165390219Y-128830362D01*
X165390219Y-128830362D01*
G37*
D17*
G04 #@! TD*
G04 #@! TO.P,L1,1*
G04 #@! TO.N,Net-(C7-Pad2)*
X165516587Y-129567913D03*
D16*
G04 #@! TO.N,+3V3*
G04 #@! TO.C,L1*
G36*
X166716045Y-127504536D02*
X166739706Y-127508046D01*
X166762910Y-127513858D01*
X166785432Y-127521916D01*
X166807056Y-127532144D01*
X166827573Y-127544441D01*
X166846786Y-127558691D01*
X166864510Y-127574755D01*
X167509745Y-128219990D01*
X167525809Y-128237714D01*
X167540059Y-128256927D01*
X167552356Y-128277444D01*
X167562584Y-128299068D01*
X167570642Y-128321590D01*
X167576454Y-128344794D01*
X167579964Y-128368455D01*
X167581138Y-128392347D01*
X167579964Y-128416239D01*
X167576454Y-128439900D01*
X167570642Y-128463104D01*
X167562584Y-128485626D01*
X167552356Y-128507250D01*
X167540059Y-128527767D01*
X167525809Y-128546980D01*
X167509745Y-128564704D01*
X167165030Y-128909419D01*
X167147306Y-128925483D01*
X167128093Y-128939733D01*
X167107576Y-128952030D01*
X167085952Y-128962258D01*
X167063430Y-128970316D01*
X167040226Y-128976128D01*
X167016565Y-128979638D01*
X166992673Y-128980812D01*
X166968781Y-128979638D01*
X166945120Y-128976128D01*
X166921916Y-128970316D01*
X166899394Y-128962258D01*
X166877770Y-128952030D01*
X166857253Y-128939733D01*
X166838040Y-128925483D01*
X166820316Y-128909419D01*
X166175081Y-128264184D01*
X166159017Y-128246460D01*
X166144767Y-128227247D01*
X166132470Y-128206730D01*
X166122242Y-128185106D01*
X166114184Y-128162584D01*
X166108372Y-128139380D01*
X166104862Y-128115719D01*
X166103688Y-128091827D01*
X166104862Y-128067935D01*
X166108372Y-128044274D01*
X166114184Y-128021070D01*
X166122242Y-127998548D01*
X166132470Y-127976924D01*
X166144767Y-127956407D01*
X166159017Y-127937194D01*
X166175081Y-127919470D01*
X166519796Y-127574755D01*
X166537520Y-127558691D01*
X166556733Y-127544441D01*
X166577250Y-127532144D01*
X166598874Y-127521916D01*
X166621396Y-127513858D01*
X166644600Y-127508046D01*
X166668261Y-127504536D01*
X166692153Y-127503362D01*
X166716045Y-127504536D01*
X166716045Y-127504536D01*
G37*
D17*
G04 #@! TD*
G04 #@! TO.P,L1,2*
G04 #@! TO.N,+3V3*
X166842413Y-128242087D03*
D16*
G04 #@! TO.N,/RESET*
G04 #@! TO.C,R1*
G36*
X163929142Y-126020674D02*
X163952803Y-126024184D01*
X163976007Y-126029996D01*
X163998529Y-126038054D01*
X164020153Y-126048282D01*
X164040670Y-126060579D01*
X164059883Y-126074829D01*
X164077607Y-126090893D01*
X164093671Y-126108617D01*
X164107921Y-126127830D01*
X164120218Y-126148347D01*
X164130446Y-126169971D01*
X164138504Y-126192493D01*
X164144316Y-126215697D01*
X164147826Y-126239358D01*
X164149000Y-126263250D01*
X164149000Y-126750750D01*
X164147826Y-126774642D01*
X164144316Y-126798303D01*
X164138504Y-126821507D01*
X164130446Y-126844029D01*
X164120218Y-126865653D01*
X164107921Y-126886170D01*
X164093671Y-126905383D01*
X164077607Y-126923107D01*
X164059883Y-126939171D01*
X164040670Y-126953421D01*
X164020153Y-126965718D01*
X163998529Y-126975946D01*
X163976007Y-126984004D01*
X163952803Y-126989816D01*
X163929142Y-126993326D01*
X163905250Y-126994500D01*
X162992750Y-126994500D01*
X162968858Y-126993326D01*
X162945197Y-126989816D01*
X162921993Y-126984004D01*
X162899471Y-126975946D01*
X162877847Y-126965718D01*
X162857330Y-126953421D01*
X162838117Y-126939171D01*
X162820393Y-126923107D01*
X162804329Y-126905383D01*
X162790079Y-126886170D01*
X162777782Y-126865653D01*
X162767554Y-126844029D01*
X162759496Y-126821507D01*
X162753684Y-126798303D01*
X162750174Y-126774642D01*
X162749000Y-126750750D01*
X162749000Y-126263250D01*
X162750174Y-126239358D01*
X162753684Y-126215697D01*
X162759496Y-126192493D01*
X162767554Y-126169971D01*
X162777782Y-126148347D01*
X162790079Y-126127830D01*
X162804329Y-126108617D01*
X162820393Y-126090893D01*
X162838117Y-126074829D01*
X162857330Y-126060579D01*
X162877847Y-126048282D01*
X162899471Y-126038054D01*
X162921993Y-126029996D01*
X162945197Y-126024184D01*
X162968858Y-126020674D01*
X162992750Y-126019500D01*
X163905250Y-126019500D01*
X163929142Y-126020674D01*
X163929142Y-126020674D01*
G37*
D17*
G04 #@! TD*
G04 #@! TO.P,R1,2*
G04 #@! TO.N,/RESET*
X163449000Y-126507000D03*
D16*
G04 #@! TO.N,+3V3*
G04 #@! TO.C,R1*
G36*
X163929142Y-127895674D02*
X163952803Y-127899184D01*
X163976007Y-127904996D01*
X163998529Y-127913054D01*
X164020153Y-127923282D01*
X164040670Y-127935579D01*
X164059883Y-127949829D01*
X164077607Y-127965893D01*
X164093671Y-127983617D01*
X164107921Y-128002830D01*
X164120218Y-128023347D01*
X164130446Y-128044971D01*
X164138504Y-128067493D01*
X164144316Y-128090697D01*
X164147826Y-128114358D01*
X164149000Y-128138250D01*
X164149000Y-128625750D01*
X164147826Y-128649642D01*
X164144316Y-128673303D01*
X164138504Y-128696507D01*
X164130446Y-128719029D01*
X164120218Y-128740653D01*
X164107921Y-128761170D01*
X164093671Y-128780383D01*
X164077607Y-128798107D01*
X164059883Y-128814171D01*
X164040670Y-128828421D01*
X164020153Y-128840718D01*
X163998529Y-128850946D01*
X163976007Y-128859004D01*
X163952803Y-128864816D01*
X163929142Y-128868326D01*
X163905250Y-128869500D01*
X162992750Y-128869500D01*
X162968858Y-128868326D01*
X162945197Y-128864816D01*
X162921993Y-128859004D01*
X162899471Y-128850946D01*
X162877847Y-128840718D01*
X162857330Y-128828421D01*
X162838117Y-128814171D01*
X162820393Y-128798107D01*
X162804329Y-128780383D01*
X162790079Y-128761170D01*
X162777782Y-128740653D01*
X162767554Y-128719029D01*
X162759496Y-128696507D01*
X162753684Y-128673303D01*
X162750174Y-128649642D01*
X162749000Y-128625750D01*
X162749000Y-128138250D01*
X162750174Y-128114358D01*
X162753684Y-128090697D01*
X162759496Y-128067493D01*
X162767554Y-128044971D01*
X162777782Y-128023347D01*
X162790079Y-128002830D01*
X162804329Y-127983617D01*
X162820393Y-127965893D01*
X162838117Y-127949829D01*
X162857330Y-127935579D01*
X162877847Y-127923282D01*
X162899471Y-127913054D01*
X162921993Y-127904996D01*
X162945197Y-127899184D01*
X162968858Y-127895674D01*
X162992750Y-127894500D01*
X163905250Y-127894500D01*
X163929142Y-127895674D01*
X163929142Y-127895674D01*
G37*
D17*
G04 #@! TD*
G04 #@! TO.P,R1,1*
G04 #@! TO.N,+3V3*
X163449000Y-128382000D03*
D16*
G04 #@! TO.N,GND*
G04 #@! TO.C,R2*
G36*
X161897142Y-140689174D02*
X161920803Y-140692684D01*
X161944007Y-140698496D01*
X161966529Y-140706554D01*
X161988153Y-140716782D01*
X162008670Y-140729079D01*
X162027883Y-140743329D01*
X162045607Y-140759393D01*
X162061671Y-140777117D01*
X162075921Y-140796330D01*
X162088218Y-140816847D01*
X162098446Y-140838471D01*
X162106504Y-140860993D01*
X162112316Y-140884197D01*
X162115826Y-140907858D01*
X162117000Y-140931750D01*
X162117000Y-141419250D01*
X162115826Y-141443142D01*
X162112316Y-141466803D01*
X162106504Y-141490007D01*
X162098446Y-141512529D01*
X162088218Y-141534153D01*
X162075921Y-141554670D01*
X162061671Y-141573883D01*
X162045607Y-141591607D01*
X162027883Y-141607671D01*
X162008670Y-141621921D01*
X161988153Y-141634218D01*
X161966529Y-141644446D01*
X161944007Y-141652504D01*
X161920803Y-141658316D01*
X161897142Y-141661826D01*
X161873250Y-141663000D01*
X160960750Y-141663000D01*
X160936858Y-141661826D01*
X160913197Y-141658316D01*
X160889993Y-141652504D01*
X160867471Y-141644446D01*
X160845847Y-141634218D01*
X160825330Y-141621921D01*
X160806117Y-141607671D01*
X160788393Y-141591607D01*
X160772329Y-141573883D01*
X160758079Y-141554670D01*
X160745782Y-141534153D01*
X160735554Y-141512529D01*
X160727496Y-141490007D01*
X160721684Y-141466803D01*
X160718174Y-141443142D01*
X160717000Y-141419250D01*
X160717000Y-140931750D01*
X160718174Y-140907858D01*
X160721684Y-140884197D01*
X160727496Y-140860993D01*
X160735554Y-140838471D01*
X160745782Y-140816847D01*
X160758079Y-140796330D01*
X160772329Y-140777117D01*
X160788393Y-140759393D01*
X160806117Y-140743329D01*
X160825330Y-140729079D01*
X160845847Y-140716782D01*
X160867471Y-140706554D01*
X160889993Y-140698496D01*
X160913197Y-140692684D01*
X160936858Y-140689174D01*
X160960750Y-140688000D01*
X161873250Y-140688000D01*
X161897142Y-140689174D01*
X161897142Y-140689174D01*
G37*
D17*
G04 #@! TD*
G04 #@! TO.P,R2,1*
G04 #@! TO.N,GND*
X161417000Y-141175500D03*
D16*
G04 #@! TO.N,Net-(R2-Pad2)*
G04 #@! TO.C,R2*
G36*
X161897142Y-142564174D02*
X161920803Y-142567684D01*
X161944007Y-142573496D01*
X161966529Y-142581554D01*
X161988153Y-142591782D01*
X162008670Y-142604079D01*
X162027883Y-142618329D01*
X162045607Y-142634393D01*
X162061671Y-142652117D01*
X162075921Y-142671330D01*
X162088218Y-142691847D01*
X162098446Y-142713471D01*
X162106504Y-142735993D01*
X162112316Y-142759197D01*
X162115826Y-142782858D01*
X162117000Y-142806750D01*
X162117000Y-143294250D01*
X162115826Y-143318142D01*
X162112316Y-143341803D01*
X162106504Y-143365007D01*
X162098446Y-143387529D01*
X162088218Y-143409153D01*
X162075921Y-143429670D01*
X162061671Y-143448883D01*
X162045607Y-143466607D01*
X162027883Y-143482671D01*
X162008670Y-143496921D01*
X161988153Y-143509218D01*
X161966529Y-143519446D01*
X161944007Y-143527504D01*
X161920803Y-143533316D01*
X161897142Y-143536826D01*
X161873250Y-143538000D01*
X160960750Y-143538000D01*
X160936858Y-143536826D01*
X160913197Y-143533316D01*
X160889993Y-143527504D01*
X160867471Y-143519446D01*
X160845847Y-143509218D01*
X160825330Y-143496921D01*
X160806117Y-143482671D01*
X160788393Y-143466607D01*
X160772329Y-143448883D01*
X160758079Y-143429670D01*
X160745782Y-143409153D01*
X160735554Y-143387529D01*
X160727496Y-143365007D01*
X160721684Y-143341803D01*
X160718174Y-143318142D01*
X160717000Y-143294250D01*
X160717000Y-142806750D01*
X160718174Y-142782858D01*
X160721684Y-142759197D01*
X160727496Y-142735993D01*
X160735554Y-142713471D01*
X160745782Y-142691847D01*
X160758079Y-142671330D01*
X160772329Y-142652117D01*
X160788393Y-142634393D01*
X160806117Y-142618329D01*
X160825330Y-142604079D01*
X160845847Y-142591782D01*
X160867471Y-142581554D01*
X160889993Y-142573496D01*
X160913197Y-142567684D01*
X160936858Y-142564174D01*
X160960750Y-142563000D01*
X161873250Y-142563000D01*
X161897142Y-142564174D01*
X161897142Y-142564174D01*
G37*
D17*
G04 #@! TD*
G04 #@! TO.P,R2,2*
G04 #@! TO.N,Net-(R2-Pad2)*
X161417000Y-143050500D03*
D14*
G04 #@! TO.P,REF\002A\002A,2*
G04 #@! TO.N,+5V*
X185845300Y-140738151D03*
D15*
G04 #@! TO.P,REF\002A\002A,1*
G04 #@! TO.N,GND*
X185845300Y-143278151D03*
G04 #@! TD*
D16*
G04 #@! TO.N,GND*
G04 #@! TO.C,LED2*
G36*
X186447691Y-128177053D02*
X186468926Y-128180203D01*
X186489750Y-128185419D01*
X186509962Y-128192651D01*
X186529368Y-128201830D01*
X186547781Y-128212866D01*
X186565024Y-128225654D01*
X186580930Y-128240070D01*
X186595346Y-128255976D01*
X186608134Y-128273219D01*
X186619170Y-128291632D01*
X186628349Y-128311038D01*
X186635581Y-128331250D01*
X186640797Y-128352074D01*
X186643947Y-128373309D01*
X186645000Y-128394750D01*
X186645000Y-128907250D01*
X186643947Y-128928691D01*
X186640797Y-128949926D01*
X186635581Y-128970750D01*
X186628349Y-128990962D01*
X186619170Y-129010368D01*
X186608134Y-129028781D01*
X186595346Y-129046024D01*
X186580930Y-129061930D01*
X186565024Y-129076346D01*
X186547781Y-129089134D01*
X186529368Y-129100170D01*
X186509962Y-129109349D01*
X186489750Y-129116581D01*
X186468926Y-129121797D01*
X186447691Y-129124947D01*
X186426250Y-129126000D01*
X185988750Y-129126000D01*
X185967309Y-129124947D01*
X185946074Y-129121797D01*
X185925250Y-129116581D01*
X185905038Y-129109349D01*
X185885632Y-129100170D01*
X185867219Y-129089134D01*
X185849976Y-129076346D01*
X185834070Y-129061930D01*
X185819654Y-129046024D01*
X185806866Y-129028781D01*
X185795830Y-129010368D01*
X185786651Y-128990962D01*
X185779419Y-128970750D01*
X185774203Y-128949926D01*
X185771053Y-128928691D01*
X185770000Y-128907250D01*
X185770000Y-128394750D01*
X185771053Y-128373309D01*
X185774203Y-128352074D01*
X185779419Y-128331250D01*
X185786651Y-128311038D01*
X185795830Y-128291632D01*
X185806866Y-128273219D01*
X185819654Y-128255976D01*
X185834070Y-128240070D01*
X185849976Y-128225654D01*
X185867219Y-128212866D01*
X185885632Y-128201830D01*
X185905038Y-128192651D01*
X185925250Y-128185419D01*
X185946074Y-128180203D01*
X185967309Y-128177053D01*
X185988750Y-128176000D01*
X186426250Y-128176000D01*
X186447691Y-128177053D01*
X186447691Y-128177053D01*
G37*
D18*
G04 #@! TD*
G04 #@! TO.P,LED2,2*
G04 #@! TO.N,GND*
X186207500Y-128651000D03*
D16*
G04 #@! TO.N,N/C*
G04 #@! TO.C,LED2*
G36*
X184872691Y-128177053D02*
X184893926Y-128180203D01*
X184914750Y-128185419D01*
X184934962Y-128192651D01*
X184954368Y-128201830D01*
X184972781Y-128212866D01*
X184990024Y-128225654D01*
X185005930Y-128240070D01*
X185020346Y-128255976D01*
X185033134Y-128273219D01*
X185044170Y-128291632D01*
X185053349Y-128311038D01*
X185060581Y-128331250D01*
X185065797Y-128352074D01*
X185068947Y-128373309D01*
X185070000Y-128394750D01*
X185070000Y-128907250D01*
X185068947Y-128928691D01*
X185065797Y-128949926D01*
X185060581Y-128970750D01*
X185053349Y-128990962D01*
X185044170Y-129010368D01*
X185033134Y-129028781D01*
X185020346Y-129046024D01*
X185005930Y-129061930D01*
X184990024Y-129076346D01*
X184972781Y-129089134D01*
X184954368Y-129100170D01*
X184934962Y-129109349D01*
X184914750Y-129116581D01*
X184893926Y-129121797D01*
X184872691Y-129124947D01*
X184851250Y-129126000D01*
X184413750Y-129126000D01*
X184392309Y-129124947D01*
X184371074Y-129121797D01*
X184350250Y-129116581D01*
X184330038Y-129109349D01*
X184310632Y-129100170D01*
X184292219Y-129089134D01*
X184274976Y-129076346D01*
X184259070Y-129061930D01*
X184244654Y-129046024D01*
X184231866Y-129028781D01*
X184220830Y-129010368D01*
X184211651Y-128990962D01*
X184204419Y-128970750D01*
X184199203Y-128949926D01*
X184196053Y-128928691D01*
X184195000Y-128907250D01*
X184195000Y-128394750D01*
X184196053Y-128373309D01*
X184199203Y-128352074D01*
X184204419Y-128331250D01*
X184211651Y-128311038D01*
X184220830Y-128291632D01*
X184231866Y-128273219D01*
X184244654Y-128255976D01*
X184259070Y-128240070D01*
X184274976Y-128225654D01*
X184292219Y-128212866D01*
X184310632Y-128201830D01*
X184330038Y-128192651D01*
X184350250Y-128185419D01*
X184371074Y-128180203D01*
X184392309Y-128177053D01*
X184413750Y-128176000D01*
X184851250Y-128176000D01*
X184872691Y-128177053D01*
X184872691Y-128177053D01*
G37*
D18*
G04 #@! TD*
G04 #@! TO.P,LED2,1*
G04 #@! TO.N,N/C*
X184632500Y-128651000D03*
D16*
G04 #@! TO.N,N/C*
G04 #@! TO.C,RLED1*
G36*
X183323142Y-125983674D02*
X183346803Y-125987184D01*
X183370007Y-125992996D01*
X183392529Y-126001054D01*
X183414153Y-126011282D01*
X183434670Y-126023579D01*
X183453883Y-126037829D01*
X183471607Y-126053893D01*
X183487671Y-126071617D01*
X183501921Y-126090830D01*
X183514218Y-126111347D01*
X183524446Y-126132971D01*
X183532504Y-126155493D01*
X183538316Y-126178697D01*
X183541826Y-126202358D01*
X183543000Y-126226250D01*
X183543000Y-127138750D01*
X183541826Y-127162642D01*
X183538316Y-127186303D01*
X183532504Y-127209507D01*
X183524446Y-127232029D01*
X183514218Y-127253653D01*
X183501921Y-127274170D01*
X183487671Y-127293383D01*
X183471607Y-127311107D01*
X183453883Y-127327171D01*
X183434670Y-127341421D01*
X183414153Y-127353718D01*
X183392529Y-127363946D01*
X183370007Y-127372004D01*
X183346803Y-127377816D01*
X183323142Y-127381326D01*
X183299250Y-127382500D01*
X182811750Y-127382500D01*
X182787858Y-127381326D01*
X182764197Y-127377816D01*
X182740993Y-127372004D01*
X182718471Y-127363946D01*
X182696847Y-127353718D01*
X182676330Y-127341421D01*
X182657117Y-127327171D01*
X182639393Y-127311107D01*
X182623329Y-127293383D01*
X182609079Y-127274170D01*
X182596782Y-127253653D01*
X182586554Y-127232029D01*
X182578496Y-127209507D01*
X182572684Y-127186303D01*
X182569174Y-127162642D01*
X182568000Y-127138750D01*
X182568000Y-126226250D01*
X182569174Y-126202358D01*
X182572684Y-126178697D01*
X182578496Y-126155493D01*
X182586554Y-126132971D01*
X182596782Y-126111347D01*
X182609079Y-126090830D01*
X182623329Y-126071617D01*
X182639393Y-126053893D01*
X182657117Y-126037829D01*
X182676330Y-126023579D01*
X182696847Y-126011282D01*
X182718471Y-126001054D01*
X182740993Y-125992996D01*
X182764197Y-125987184D01*
X182787858Y-125983674D01*
X182811750Y-125982500D01*
X183299250Y-125982500D01*
X183323142Y-125983674D01*
X183323142Y-125983674D01*
G37*
D17*
G04 #@! TD*
G04 #@! TO.P,RLED1,2*
G04 #@! TO.N,N/C*
X183055500Y-126682500D03*
D16*
G04 #@! TO.N,Net-(U2-Pad29)*
G04 #@! TO.C,RLED1*
G36*
X181448142Y-125983674D02*
X181471803Y-125987184D01*
X181495007Y-125992996D01*
X181517529Y-126001054D01*
X181539153Y-126011282D01*
X181559670Y-126023579D01*
X181578883Y-126037829D01*
X181596607Y-126053893D01*
X181612671Y-126071617D01*
X181626921Y-126090830D01*
X181639218Y-126111347D01*
X181649446Y-126132971D01*
X181657504Y-126155493D01*
X181663316Y-126178697D01*
X181666826Y-126202358D01*
X181668000Y-126226250D01*
X181668000Y-127138750D01*
X181666826Y-127162642D01*
X181663316Y-127186303D01*
X181657504Y-127209507D01*
X181649446Y-127232029D01*
X181639218Y-127253653D01*
X181626921Y-127274170D01*
X181612671Y-127293383D01*
X181596607Y-127311107D01*
X181578883Y-127327171D01*
X181559670Y-127341421D01*
X181539153Y-127353718D01*
X181517529Y-127363946D01*
X181495007Y-127372004D01*
X181471803Y-127377816D01*
X181448142Y-127381326D01*
X181424250Y-127382500D01*
X180936750Y-127382500D01*
X180912858Y-127381326D01*
X180889197Y-127377816D01*
X180865993Y-127372004D01*
X180843471Y-127363946D01*
X180821847Y-127353718D01*
X180801330Y-127341421D01*
X180782117Y-127327171D01*
X180764393Y-127311107D01*
X180748329Y-127293383D01*
X180734079Y-127274170D01*
X180721782Y-127253653D01*
X180711554Y-127232029D01*
X180703496Y-127209507D01*
X180697684Y-127186303D01*
X180694174Y-127162642D01*
X180693000Y-127138750D01*
X180693000Y-126226250D01*
X180694174Y-126202358D01*
X180697684Y-126178697D01*
X180703496Y-126155493D01*
X180711554Y-126132971D01*
X180721782Y-126111347D01*
X180734079Y-126090830D01*
X180748329Y-126071617D01*
X180764393Y-126053893D01*
X180782117Y-126037829D01*
X180801330Y-126023579D01*
X180821847Y-126011282D01*
X180843471Y-126001054D01*
X180865993Y-125992996D01*
X180889197Y-125987184D01*
X180912858Y-125983674D01*
X180936750Y-125982500D01*
X181424250Y-125982500D01*
X181448142Y-125983674D01*
X181448142Y-125983674D01*
G37*
D17*
G04 #@! TD*
G04 #@! TO.P,RLED1,1*
G04 #@! TO.N,Net-(U2-Pad29)*
X181180500Y-126682500D03*
D24*
G04 #@! TO.N,GND*
X186055000Y-130556000D03*
X166751000Y-141224000D03*
X179451000Y-143700500D03*
X188404500Y-143573500D03*
X161798000Y-139827000D03*
X169354500Y-128905000D03*
X179260500Y-128968500D03*
X191833500Y-126873000D03*
X183642000Y-133350000D03*
X191643000Y-138112500D03*
X188150500Y-151130000D03*
G04 #@! TO.N,+3V3*
X181356000Y-131000500D03*
X162814000Y-129857500D03*
X178943000Y-136461500D03*
X180911500Y-136461500D03*
X169291000Y-144907000D03*
X172974000Y-142113000D03*
X181356000Y-133096000D03*
G04 #@! TO.N,/RESET*
X156654500Y-135699500D03*
X168529000Y-127571500D03*
X167132000Y-126555500D03*
G04 #@! TO.N,Net-(U2-Pad28)*
X182118000Y-130238500D03*
X180213000Y-131064000D03*
G04 #@! TO.N,Net-(U2-Pad29)*
X180022500Y-127254000D03*
X179387500Y-130365500D03*
G04 #@! TO.N,Net-(U2-Pad32)*
X173736000Y-131127500D03*
G04 #@! TO.N,Net-(U2-Pad33)*
X174815500Y-127825500D03*
G04 #@! TO.N,/PDI_DATA*
X172720000Y-130619500D03*
X165290500Y-131430648D03*
G04 #@! TO.N,/XTAL2*
X172131738Y-131682327D03*
G04 #@! TO.N,/XTAL1*
X171323000Y-132270500D03*
G04 #@! TO.N,Net-(J5-Pad2)*
X162496500Y-145478500D03*
G04 #@! TD*
D25*
G04 #@! TO.N,*
X184569000Y-128714500D02*
X184632500Y-128651000D01*
X183055500Y-128714500D02*
X184569000Y-128714500D01*
X183055500Y-126682500D02*
X184632500Y-126682500D01*
G04 #@! TO.N,GND*
X177652997Y-139862823D02*
X177570194Y-139862823D01*
X177442258Y-129667000D02*
X178054000Y-129667000D01*
X175873138Y-131236120D02*
X177442258Y-129667000D01*
X168302913Y-130595542D02*
X168302913Y-129766087D01*
X169509177Y-131801806D02*
X168302913Y-130595542D01*
D26*
X188857000Y-131440000D02*
X187071000Y-131440000D01*
D25*
X187711000Y-131440000D02*
X187706000Y-131445000D01*
X191384000Y-150890000D02*
X191370000Y-150876000D01*
D27*
X191008000Y-151193500D02*
X189758000Y-151193500D01*
D25*
X168302913Y-129766087D02*
X168429913Y-129766087D01*
X169168655Y-142466087D02*
X167485087Y-142466087D01*
X170074862Y-141559880D02*
X169168655Y-142466087D01*
X179232587Y-141525216D02*
X179232587Y-141950413D01*
X177570194Y-139862823D02*
X179232587Y-141525216D01*
X179285413Y-141950413D02*
X179232587Y-141950413D01*
D28*
X161417000Y-140208000D02*
X161798000Y-139827000D01*
X161417000Y-141175500D02*
X161417000Y-140208000D01*
D25*
X178054000Y-129667000D02*
X178181000Y-129667000D01*
D28*
X168493413Y-129766087D02*
X169354500Y-128905000D01*
D25*
X168302913Y-129766087D02*
X168493413Y-129766087D01*
D28*
X166751000Y-141732000D02*
X167485087Y-142466087D01*
X166751000Y-141224000D02*
X166751000Y-141732000D01*
D25*
X179006500Y-142176500D02*
X179232587Y-141950413D01*
X178958000Y-142225000D02*
X179232587Y-141950413D01*
X187071000Y-131440000D02*
X187071000Y-131381500D01*
X187071000Y-131440000D02*
X187066000Y-131440000D01*
D26*
X187066000Y-131440000D02*
X186817000Y-131191000D01*
X178562000Y-129667000D02*
X179324000Y-128905000D01*
D25*
X178054000Y-129667000D02*
X178562000Y-129667000D01*
G04 #@! TO.N,Net-(J7-Pad7)*
X178181000Y-150749000D02*
X176911000Y-149479000D01*
X176911000Y-149479000D02*
X176911000Y-146367500D01*
X177228047Y-146050453D02*
X176911000Y-146367500D01*
X177228047Y-141783418D02*
X177228047Y-146050453D01*
X176438823Y-140994194D02*
X177228047Y-141783418D01*
G04 #@! TO.N,+3V3*
X176728174Y-129249713D02*
X176728174Y-128341174D01*
X175307452Y-130670435D02*
X176728174Y-129249713D01*
X168974200Y-143791913D02*
X168810913Y-143791913D01*
X170640548Y-142125565D02*
X168974200Y-143791913D01*
X168810913Y-143791913D02*
X168628087Y-143791913D01*
X175307452Y-130670435D02*
X175188570Y-130670435D01*
D27*
X185293000Y-148907500D02*
X191593000Y-148907500D01*
D25*
X186334000Y-148590000D02*
X186334000Y-147088000D01*
X163449000Y-128382000D02*
X163950000Y-128382000D01*
X163588913Y-128242087D02*
X163449000Y-128382000D01*
X166842413Y-128242087D02*
X163588913Y-128242087D01*
X163576000Y-128509000D02*
X163449000Y-128382000D01*
X163449000Y-128382000D02*
X163449000Y-129222500D01*
X163449000Y-129222500D02*
X162814000Y-129857500D01*
X167257837Y-127826663D02*
X167257837Y-127699663D01*
X166842413Y-128242087D02*
X167257837Y-127826663D01*
X175233499Y-126846499D02*
X175641000Y-127254000D01*
X168111001Y-126846499D02*
X175233499Y-126846499D01*
X167257837Y-127699663D02*
X168111001Y-126846499D01*
X176728174Y-128341174D02*
X175641000Y-127254000D01*
X175641000Y-127254000D02*
X175323500Y-126936500D01*
X168810913Y-143791913D02*
X168810913Y-144426913D01*
X168810913Y-144426913D02*
X169291000Y-144907000D01*
X173691499Y-141713001D02*
X175831500Y-139573000D01*
X173373999Y-141713001D02*
X173691499Y-141713001D01*
X172974000Y-142113000D02*
X173373999Y-141713001D01*
X174561500Y-140843000D02*
X175831500Y-139573000D01*
X175831500Y-139573000D02*
X178943000Y-136461500D01*
X180759587Y-140624587D02*
X180558413Y-140624587D01*
X178897645Y-140058903D02*
X178736920Y-139898178D01*
X179992729Y-140058903D02*
X178897645Y-140058903D01*
X178736920Y-139898178D02*
X178135880Y-139297138D01*
X180558413Y-140624587D02*
X179992729Y-140058903D01*
D26*
X185318000Y-147690000D02*
X183868500Y-146240500D01*
D25*
X185318000Y-148590000D02*
X185318000Y-147690000D01*
X181389237Y-144096763D02*
X181389237Y-141455411D01*
X180833000Y-144653000D02*
X181389237Y-144096763D01*
D26*
X182916000Y-145288000D02*
X183868500Y-146240500D01*
X180833000Y-145288000D02*
X182916000Y-145288000D01*
X181991000Y-146446000D02*
X180833000Y-145288000D01*
X181991000Y-148209000D02*
X181991000Y-146446000D01*
D25*
X181389237Y-136939237D02*
X180911500Y-136461500D01*
X180911500Y-136461500D02*
X181356000Y-136017000D01*
X180367990Y-129948990D02*
X180956001Y-130537001D01*
X180367990Y-128875988D02*
X180367990Y-129948990D01*
X179267492Y-127775490D02*
X180367990Y-128875988D01*
X180956001Y-130537001D02*
X181356000Y-130937000D01*
X177293858Y-127775490D02*
X179267492Y-127775490D01*
X176728174Y-128341174D02*
X177293858Y-127775490D01*
X181389237Y-135669237D02*
X181356000Y-135636000D01*
X181356000Y-136017000D02*
X181356000Y-135636000D01*
X181389237Y-136939237D02*
X181389237Y-135669237D01*
X181356000Y-135636000D02*
X181356000Y-133096000D01*
X181389237Y-141455411D02*
X181389237Y-136939237D01*
X181389237Y-141455411D02*
X181124097Y-141190271D01*
X181124097Y-141190271D02*
X180558413Y-140624587D01*
G04 #@! TO.N,Net-(R2-Pad2)*
X159542500Y-144925000D02*
X161417000Y-143050500D01*
X158369000Y-144925000D02*
X159542500Y-144925000D01*
G04 #@! TO.N,/RESET*
X158323500Y-135699500D02*
X158369000Y-135745000D01*
X156654500Y-135699500D02*
X158323500Y-135699500D01*
X161529000Y-126507000D02*
X163449000Y-126507000D01*
X160528000Y-127508000D02*
X161529000Y-126507000D01*
X169094685Y-127571500D02*
X168529000Y-127571500D01*
X171206233Y-130104750D02*
X170605193Y-129503710D01*
X163449000Y-126507000D02*
X167083500Y-126507000D01*
X167083500Y-126507000D02*
X167132000Y-126555500D01*
X170605193Y-129503710D02*
X170588210Y-129503710D01*
X170588210Y-129503710D02*
X170370500Y-129286000D01*
X169094685Y-127572183D02*
X169094685Y-127571500D01*
X170370500Y-128847998D02*
X169094685Y-127572183D01*
X170370500Y-129286000D02*
X170370500Y-128847998D01*
D26*
G04 #@! TO.N,+5V*
X185039000Y-139931851D02*
X185845300Y-140738151D01*
X185039000Y-137921000D02*
X185039000Y-139931851D01*
D25*
X191618000Y-143817500D02*
X191437500Y-143637000D01*
D26*
X191618000Y-146607500D02*
X191618000Y-143817500D01*
X188538651Y-140738151D02*
X185845300Y-140738151D01*
X191557349Y-143637000D02*
X188658500Y-140738151D01*
D25*
G04 #@! TO.N,Net-(J5-Pad6)*
X166115064Y-137600082D02*
X164819060Y-138896086D01*
X164819060Y-140806440D02*
X164819057Y-140806443D01*
X164819060Y-140462000D02*
X164819060Y-140806440D01*
X164819060Y-140462000D02*
X164819056Y-140462004D01*
X164819057Y-140081003D02*
X164819060Y-140081000D01*
X164819057Y-146150056D02*
X164819057Y-140081003D01*
X164819060Y-138896086D02*
X164819060Y-140081000D01*
X164819060Y-140081000D02*
X164819060Y-140462000D01*
X164819057Y-146150056D02*
X164819057Y-148209000D01*
G04 #@! TO.N,Net-(J5-Pad7)*
X165269069Y-139577448D02*
X166680750Y-138165767D01*
X165481000Y-145736919D02*
X165269066Y-145524985D01*
X165269066Y-140991434D02*
X165269069Y-140991431D01*
X165481000Y-149479000D02*
X165481000Y-145736919D01*
X166751000Y-150749000D02*
X165481000Y-149479000D01*
X165269066Y-145524985D02*
X165269066Y-140991434D01*
X165269069Y-140991431D02*
X165269069Y-139577448D01*
G04 #@! TO.N,Net-(J5-Pad8)*
X166341387Y-139636500D02*
X165719079Y-140258808D01*
X167246435Y-138731452D02*
X166341387Y-139636500D01*
X165719076Y-140258811D02*
X166341387Y-139636500D01*
X165719076Y-144446576D02*
X165719076Y-140258811D01*
X166751000Y-145478500D02*
X166751000Y-148209000D01*
X165719076Y-144446576D02*
X166751000Y-145478500D01*
G04 #@! TO.N,Net-(U2-Pad5)*
X168377806Y-139862823D02*
X168618475Y-139862823D01*
G04 #@! TO.N,Net-(U2-Pad6)*
X168943491Y-140428509D02*
X169082118Y-140428509D01*
G04 #@! TO.N,Net-(U2-Pad7)*
X169509177Y-140994194D02*
X169647806Y-140994194D01*
G04 #@! TO.N,Net-(J7-Pad1)*
X171206233Y-142691250D02*
X170307000Y-143590483D01*
X170307000Y-143590483D02*
X170307000Y-143637000D01*
X170110990Y-143833010D02*
X170110990Y-145034000D01*
X170307000Y-143637000D02*
X170110990Y-143833010D01*
X170110990Y-144595010D02*
X170110990Y-145034000D01*
X169397500Y-150749000D02*
X169037000Y-150388500D01*
X170497500Y-150749000D02*
X169397500Y-150749000D01*
X169037000Y-150388500D02*
X169037000Y-146939000D01*
X170110990Y-145865010D02*
X170110990Y-145034000D01*
X169037000Y-146939000D02*
X170110990Y-145865010D01*
G04 #@! TO.N,Net-(J7-Pad2)*
X171771918Y-143256936D02*
X170820354Y-144208500D01*
X170561000Y-147006919D02*
X170561000Y-148209000D01*
X170820354Y-144208500D02*
X170820354Y-146171646D01*
X170820354Y-146171646D02*
X170815000Y-146177000D01*
X170628919Y-146939000D02*
X170561000Y-147006919D01*
X170628919Y-146939000D02*
X170628919Y-146934581D01*
X170820354Y-146743146D02*
X170820354Y-146171646D01*
X170628919Y-146934581D02*
X170820354Y-146743146D01*
G04 #@! TO.N,Net-(J7-Pad3)*
X174782476Y-143857976D02*
X174777122Y-143857976D01*
X173101000Y-150749000D02*
X171831000Y-149479000D01*
X171831000Y-149479000D02*
X171831000Y-147739998D01*
X175428007Y-144503507D02*
X174782476Y-143857976D01*
X171831000Y-147739998D02*
X173393998Y-146177000D01*
X173393998Y-146177000D02*
X174555816Y-146177000D01*
X175428007Y-145304809D02*
X175428007Y-144503507D01*
X174777122Y-143857976D02*
X174176082Y-143256936D01*
X174555816Y-146177000D02*
X175428007Y-145304809D01*
G04 #@! TO.N,Net-(J7-Pad4)*
X173101000Y-148209000D02*
X173160226Y-148209000D01*
X174741767Y-142691250D02*
X175878017Y-143827500D01*
X175878017Y-145491209D02*
X175319226Y-146050000D01*
X173160226Y-148209000D02*
X175319226Y-146050000D01*
X175878017Y-143827500D02*
X175878017Y-145491209D01*
X175319226Y-146050000D02*
X175387000Y-145982226D01*
G04 #@! TO.N,Net-(J7-Pad5)*
X174371000Y-149479000D02*
X175641000Y-150749000D01*
X174371000Y-147634636D02*
X174371000Y-149479000D01*
X176328027Y-145677609D02*
X174371000Y-147634636D01*
X176328027Y-143146140D02*
X176328027Y-145677609D01*
X175307452Y-142125565D02*
X176328027Y-143146140D01*
G04 #@! TO.N,Net-(J7-Pad6)*
X176460990Y-146186929D02*
X176460991Y-146181099D01*
X175641000Y-148209000D02*
X175641000Y-147006919D01*
X176460990Y-146186929D02*
X176460990Y-146181056D01*
X176022000Y-146625919D02*
X176460990Y-146186929D01*
X175641000Y-147006919D02*
X176022000Y-146625919D01*
X176778037Y-145864053D02*
X176022000Y-146620090D01*
X176022000Y-146620090D02*
X176022000Y-146625919D01*
X175873138Y-141559880D02*
X176474178Y-142160920D01*
X176474178Y-142160920D02*
X176474178Y-142184178D01*
X176474178Y-142184178D02*
X176778037Y-142488037D01*
X176778037Y-142959740D02*
X176778037Y-143129000D01*
X176778037Y-142488037D02*
X176778037Y-143129000D01*
X176778037Y-143129000D02*
X176778037Y-145864053D01*
G04 #@! TO.N,Net-(J7-Pad8)*
X178181000Y-146928886D02*
X178181000Y-148209000D01*
X177678057Y-146425943D02*
X178181000Y-146928886D01*
X177004509Y-140428509D02*
X177678057Y-141102057D01*
X177678057Y-141102057D02*
X177678057Y-146425943D01*
G04 #@! TO.N,Net-(U2-Pad23)*
X179832936Y-135195918D02*
X179764082Y-135195918D01*
G04 #@! TO.N,Net-(U2-Pad24)*
X179267250Y-134630233D02*
X179267250Y-134665123D01*
G04 #@! TO.N,Net-(U2-Pad25)*
X178701565Y-134064548D02*
X178701565Y-134099435D01*
D29*
G04 #@! TO.N,/USBD-*
X178135880Y-133251376D02*
X178135880Y-133498862D01*
X178347502Y-133039754D02*
X178135880Y-133251376D01*
X179082256Y-132305000D02*
X186266997Y-132305000D01*
X178135880Y-133251376D02*
X179082256Y-132305000D01*
X187251998Y-133290001D02*
X188381001Y-133290001D01*
X186266997Y-132305000D02*
X187251998Y-133290001D01*
X188481000Y-133390000D02*
X188381001Y-133290001D01*
G04 #@! TO.N,/USBD+*
X177817667Y-132933177D02*
X177570194Y-132933177D01*
X177817681Y-132933177D02*
X178895858Y-131855000D01*
X177570194Y-132933177D02*
X177817681Y-132933177D01*
X188467397Y-132740000D02*
X188481000Y-132740000D01*
X186453380Y-131855000D02*
X187338380Y-132740000D01*
X178895858Y-131855000D02*
X186453380Y-131855000D01*
X187338380Y-132740000D02*
X188467397Y-132740000D01*
D25*
G04 #@! TO.N,Net-(U2-Pad28)*
X177004509Y-132367491D02*
X177004509Y-132375286D01*
X181180500Y-128714500D02*
X181180500Y-129174000D01*
X181180500Y-128714500D02*
X181180500Y-129301000D01*
X181180500Y-129301000D02*
X182308500Y-130429000D01*
X177605549Y-131766451D02*
X177004509Y-132367491D01*
X179281325Y-131429990D02*
X177942010Y-131429990D01*
X177942010Y-131429990D02*
X177605549Y-131766451D01*
X179647315Y-131064000D02*
X179281325Y-131429990D01*
X180213000Y-131064000D02*
X179647315Y-131064000D01*
G04 #@! TO.N,Net-(U2-Pad29)*
X176438823Y-131801806D02*
X176427194Y-131801806D01*
X181180500Y-126682500D02*
X181180500Y-126858000D01*
X181180500Y-126682500D02*
X180213000Y-126682500D01*
X180213000Y-126682500D02*
X179768500Y-127127000D01*
X179387500Y-130365500D02*
X178816000Y-130937000D01*
X177303629Y-130937000D02*
X176911000Y-131329629D01*
X178816000Y-130937000D02*
X177303629Y-130937000D01*
X177113129Y-131127500D02*
X176911000Y-131329629D01*
X176911000Y-131329629D02*
X176438823Y-131801806D01*
G04 #@! TO.N,Net-(U2-Pad32)*
X174741767Y-130104750D02*
X174728949Y-130104750D01*
X174741767Y-130104750D02*
X174741767Y-130121733D01*
X174741767Y-130121733D02*
X173736000Y-131127500D01*
X175342807Y-129503710D02*
X175359790Y-129503710D01*
X174741767Y-130104750D02*
X175342807Y-129503710D01*
X175359790Y-129503710D02*
X175641000Y-129222500D01*
G04 #@! TO.N,Net-(U2-Pad33)*
X174176082Y-129539064D02*
X174117936Y-129539064D01*
X174176082Y-129539064D02*
X175064146Y-128651000D01*
X175064146Y-128651000D02*
X175064146Y-128074146D01*
X175064146Y-128074146D02*
X174815500Y-127825500D01*
G04 #@! TO.N,/PDI_DATA*
X160528000Y-132588000D02*
X160528000Y-132016500D01*
X172720000Y-130487146D02*
X171771918Y-129539064D01*
X172720000Y-130619500D02*
X172720000Y-130487146D01*
X165015510Y-131705638D02*
X165290500Y-131430648D01*
X160528000Y-132588000D02*
X161628000Y-132588000D01*
X162510362Y-131705638D02*
X165015510Y-131705638D01*
X161628000Y-132588000D02*
X162510362Y-131705638D01*
X171170878Y-128938024D02*
X171165524Y-128938024D01*
X171771918Y-129539064D02*
X171170878Y-128938024D01*
X171165524Y-128938024D02*
X171005500Y-128778000D01*
G04 #@! TO.N,/XTAL2*
X171720886Y-131271475D02*
X172131738Y-131682327D01*
X170640548Y-130670435D02*
X171241588Y-131271475D01*
X171241588Y-131271475D02*
X171720886Y-131271475D01*
X170640548Y-130670435D02*
X170039508Y-130069395D01*
X170039508Y-130034508D02*
X170039508Y-130069395D01*
X170039508Y-130034508D02*
X169926000Y-129921000D01*
G04 #@! TO.N,/XTAL1*
X170074862Y-131236120D02*
X170288620Y-131236120D01*
X170288620Y-131236120D02*
X171323000Y-132270500D01*
X169473822Y-130635080D02*
X169473822Y-130611822D01*
X170074862Y-131236120D02*
X169473822Y-130635080D01*
X169473822Y-130611822D02*
X169354500Y-130492500D01*
G04 #@! TO.N,Net-(C7-Pad2)*
X166977087Y-131091913D02*
X166850087Y-131091913D01*
X167667913Y-131091913D02*
X166977087Y-131091913D01*
X168943491Y-132367491D02*
X167667913Y-131091913D01*
X166977087Y-131028413D02*
X165516587Y-129567913D01*
X166977087Y-131091913D02*
X166977087Y-131028413D01*
G04 #@! TO.N,Net-(J5-Pad1)*
X168377806Y-132933177D02*
X167600277Y-132155648D01*
X162569010Y-132978010D02*
X163086020Y-132461000D01*
X163391372Y-132155648D02*
X163086020Y-132461000D01*
X167600277Y-132155648D02*
X163391372Y-132155648D01*
X163086020Y-132461000D02*
X163214883Y-132332137D01*
X162569010Y-138293990D02*
X162569010Y-137287000D01*
X162569010Y-137287000D02*
X162569010Y-132978010D01*
X162569010Y-137287000D02*
X162569010Y-137814840D01*
X162569010Y-137814840D02*
X162560000Y-137823850D01*
X162560000Y-137823850D02*
X162560000Y-144272000D01*
X160210500Y-146621500D02*
X160528000Y-146304000D01*
X158686500Y-146621500D02*
X160210500Y-146621500D01*
X160528000Y-146304000D02*
X162560000Y-144272000D01*
X158031000Y-150749000D02*
X157955999Y-150673999D01*
X157955999Y-150673999D02*
X157955999Y-147352001D01*
X160428499Y-146403501D02*
X160528000Y-146304000D01*
X159131000Y-150749000D02*
X158031000Y-150749000D01*
X157955999Y-147352001D02*
X158686500Y-146621500D01*
G04 #@! TO.N,Net-(J5-Pad2)*
X166918916Y-132605658D02*
X163685342Y-132605658D01*
X167812120Y-133498862D02*
X166918916Y-132605658D01*
X163685342Y-132605658D02*
X163019020Y-133271980D01*
X163019020Y-133271980D02*
X163019020Y-134620000D01*
X163019020Y-134620000D02*
X163019020Y-135001000D01*
X163019020Y-138669480D02*
X163010010Y-138678490D01*
X163019020Y-135001000D02*
X163019020Y-138669480D01*
X163019020Y-138669480D02*
X163019020Y-142381521D01*
X163019020Y-142381521D02*
X163019020Y-144955980D01*
X163019020Y-144955980D02*
X162496500Y-145478500D01*
G04 #@! TO.N,Net-(J5-Pad3)*
X163871742Y-133055668D02*
X166237555Y-133055668D01*
X163469030Y-133458380D02*
X163871742Y-133055668D01*
X159131000Y-148209000D02*
X160268490Y-147071510D01*
X162814000Y-146304000D02*
X163469029Y-145648971D01*
X166237555Y-133055668D02*
X167246435Y-134064548D01*
X160268490Y-147071510D02*
X160776490Y-147071510D01*
X160776490Y-147071510D02*
X161544000Y-146304000D01*
X163469029Y-145648971D02*
X163469030Y-133458380D01*
X161544000Y-146304000D02*
X162814000Y-146304000D01*
G04 #@! TO.N,Net-(J5-Pad4)*
X166079710Y-134029193D02*
X166680750Y-134630233D01*
X165509678Y-133505678D02*
X166033193Y-134029193D01*
X161671000Y-148209000D02*
X163919038Y-145960962D01*
X163919038Y-145960962D02*
X163919040Y-133768960D01*
X164182322Y-133505678D02*
X165509678Y-133505678D01*
X163919040Y-133768960D02*
X164182322Y-133505678D01*
X166033193Y-134029193D02*
X166079710Y-134029193D01*
G04 #@! TO.N,Net-(J5-Pad5)*
X164874834Y-133955688D02*
X166115064Y-135195918D01*
X164369047Y-146147361D02*
X164369050Y-133955688D01*
X162941000Y-149479000D02*
X162941000Y-147739998D01*
X164211000Y-150749000D02*
X162941000Y-149479000D01*
X164369050Y-133955688D02*
X164874834Y-133955688D01*
X162941000Y-147739998D02*
X163832126Y-146848872D01*
X163832126Y-146848872D02*
X163832126Y-146684284D01*
X163832126Y-146684284D02*
X164369047Y-146147361D01*
D26*
G04 #@! TO.N,Net-(F1-Pad2)*
X185620000Y-134040000D02*
X185039000Y-134621000D01*
X188481000Y-134040000D02*
X185620000Y-134040000D01*
G04 #@! TD*
D30*
G04 #@! TO.N,GND*
G36*
X179426335Y-141936271D02*
X179412192Y-141950413D01*
X180154124Y-142692345D01*
X180378630Y-142692345D01*
X180610603Y-142460372D01*
X180629238Y-142415384D01*
X180629237Y-143781961D01*
X180441187Y-143970012D01*
X180248206Y-144008398D01*
X179959084Y-144201584D01*
X179958293Y-144202767D01*
X179805198Y-144049673D01*
X179571809Y-143953000D01*
X179243750Y-143953000D01*
X179085000Y-144111750D01*
X179085000Y-145161000D01*
X179105000Y-145161000D01*
X179105000Y-145415000D01*
X179085000Y-145415000D01*
X179085000Y-146464250D01*
X179243750Y-146623000D01*
X179571809Y-146623000D01*
X179805198Y-146526327D01*
X179958293Y-146373233D01*
X179959084Y-146374416D01*
X180248206Y-146567602D01*
X180589250Y-146635440D01*
X180999572Y-146635440D01*
X181156001Y-146791869D01*
X181156001Y-147065794D01*
X181047375Y-147138375D01*
X180719161Y-147629582D01*
X180603908Y-148209000D01*
X180719161Y-148788418D01*
X181047375Y-149279625D01*
X181069033Y-149294096D01*
X180908302Y-149360673D01*
X180729673Y-149539301D01*
X180633000Y-149772690D01*
X180633000Y-150463250D01*
X180791750Y-150622000D01*
X181991000Y-150622000D01*
X181991000Y-150602000D01*
X182245000Y-150602000D01*
X182245000Y-150622000D01*
X183444250Y-150622000D01*
X183603000Y-150463250D01*
X183603000Y-149772690D01*
X183506327Y-149539301D01*
X183327698Y-149360673D01*
X183166967Y-149294096D01*
X183188625Y-149279625D01*
X183516839Y-148788418D01*
X183632092Y-148209000D01*
X183516839Y-147629582D01*
X183188625Y-147138375D01*
X182826000Y-146896077D01*
X182826000Y-146528232D01*
X182842357Y-146445999D01*
X182829750Y-146382618D01*
X183336215Y-146889084D01*
X183336221Y-146889088D01*
X183670560Y-147223427D01*
X183670560Y-150807500D01*
X183719843Y-151055265D01*
X183860191Y-151265309D01*
X184070235Y-151405657D01*
X184318000Y-151454940D01*
X186318000Y-151454940D01*
X186565765Y-151405657D01*
X186775809Y-151265309D01*
X186916157Y-151055265D01*
X186965440Y-150807500D01*
X186965440Y-150292500D01*
X189999026Y-150292500D01*
X189983000Y-150331190D01*
X189983000Y-150921750D01*
X190141750Y-151080500D01*
X191491000Y-151080500D01*
X191491000Y-151060500D01*
X191745000Y-151060500D01*
X191745000Y-151080500D01*
X191765000Y-151080500D01*
X191765000Y-151334500D01*
X191745000Y-151334500D01*
X191745000Y-151354500D01*
X191491000Y-151354500D01*
X191491000Y-151334500D01*
X190141750Y-151334500D01*
X189983000Y-151493250D01*
X189983000Y-152083810D01*
X189988049Y-152096000D01*
X183369025Y-152096000D01*
X183506327Y-151958699D01*
X183603000Y-151725310D01*
X183603000Y-151034750D01*
X183444250Y-150876000D01*
X182245000Y-150876000D01*
X182245000Y-150896000D01*
X181991000Y-150896000D01*
X181991000Y-150876000D01*
X180791750Y-150876000D01*
X180633000Y-151034750D01*
X180633000Y-151725310D01*
X180729673Y-151958699D01*
X180866975Y-152096000D01*
X178774501Y-152096000D01*
X179188125Y-151819625D01*
X179516339Y-151328418D01*
X179631592Y-150749000D01*
X179516339Y-150169582D01*
X179188125Y-149678375D01*
X178889739Y-149479000D01*
X179188125Y-149279625D01*
X179516339Y-148788418D01*
X179631592Y-148209000D01*
X179516339Y-147629582D01*
X179188125Y-147138375D01*
X178946352Y-146976827D01*
X178955888Y-146928886D01*
X178941000Y-146854038D01*
X178941000Y-146854034D01*
X178898491Y-146640329D01*
X178896904Y-146632348D01*
X178803176Y-146492074D01*
X178831000Y-146464250D01*
X178831000Y-145415000D01*
X178811000Y-145415000D01*
X178811000Y-145161000D01*
X178831000Y-145161000D01*
X178831000Y-144111750D01*
X178672250Y-143953000D01*
X178438057Y-143953000D01*
X178438057Y-142721690D01*
X178640915Y-142721690D01*
X178640915Y-142946196D01*
X179023149Y-143328430D01*
X179256538Y-143425103D01*
X179509157Y-143425102D01*
X179742546Y-143328429D01*
X179974519Y-143096456D01*
X179974519Y-142871950D01*
X179232587Y-142130018D01*
X178640915Y-142721690D01*
X178438057Y-142721690D01*
X178438057Y-142542085D01*
X178461310Y-142542085D01*
X179052982Y-141950413D01*
X179038840Y-141936271D01*
X179218445Y-141756666D01*
X179232587Y-141770808D01*
X179246730Y-141756666D01*
X179426335Y-141936271D01*
X179426335Y-141936271D01*
G37*
X179426335Y-141936271D02*
X179412192Y-141950413D01*
X180154124Y-142692345D01*
X180378630Y-142692345D01*
X180610603Y-142460372D01*
X180629238Y-142415384D01*
X180629237Y-143781961D01*
X180441187Y-143970012D01*
X180248206Y-144008398D01*
X179959084Y-144201584D01*
X179958293Y-144202767D01*
X179805198Y-144049673D01*
X179571809Y-143953000D01*
X179243750Y-143953000D01*
X179085000Y-144111750D01*
X179085000Y-145161000D01*
X179105000Y-145161000D01*
X179105000Y-145415000D01*
X179085000Y-145415000D01*
X179085000Y-146464250D01*
X179243750Y-146623000D01*
X179571809Y-146623000D01*
X179805198Y-146526327D01*
X179958293Y-146373233D01*
X179959084Y-146374416D01*
X180248206Y-146567602D01*
X180589250Y-146635440D01*
X180999572Y-146635440D01*
X181156001Y-146791869D01*
X181156001Y-147065794D01*
X181047375Y-147138375D01*
X180719161Y-147629582D01*
X180603908Y-148209000D01*
X180719161Y-148788418D01*
X181047375Y-149279625D01*
X181069033Y-149294096D01*
X180908302Y-149360673D01*
X180729673Y-149539301D01*
X180633000Y-149772690D01*
X180633000Y-150463250D01*
X180791750Y-150622000D01*
X181991000Y-150622000D01*
X181991000Y-150602000D01*
X182245000Y-150602000D01*
X182245000Y-150622000D01*
X183444250Y-150622000D01*
X183603000Y-150463250D01*
X183603000Y-149772690D01*
X183506327Y-149539301D01*
X183327698Y-149360673D01*
X183166967Y-149294096D01*
X183188625Y-149279625D01*
X183516839Y-148788418D01*
X183632092Y-148209000D01*
X183516839Y-147629582D01*
X183188625Y-147138375D01*
X182826000Y-146896077D01*
X182826000Y-146528232D01*
X182842357Y-146445999D01*
X182829750Y-146382618D01*
X183336215Y-146889084D01*
X183336221Y-146889088D01*
X183670560Y-147223427D01*
X183670560Y-150807500D01*
X183719843Y-151055265D01*
X183860191Y-151265309D01*
X184070235Y-151405657D01*
X184318000Y-151454940D01*
X186318000Y-151454940D01*
X186565765Y-151405657D01*
X186775809Y-151265309D01*
X186916157Y-151055265D01*
X186965440Y-150807500D01*
X186965440Y-150292500D01*
X189999026Y-150292500D01*
X189983000Y-150331190D01*
X189983000Y-150921750D01*
X190141750Y-151080500D01*
X191491000Y-151080500D01*
X191491000Y-151060500D01*
X191745000Y-151060500D01*
X191745000Y-151080500D01*
X191765000Y-151080500D01*
X191765000Y-151334500D01*
X191745000Y-151334500D01*
X191745000Y-151354500D01*
X191491000Y-151354500D01*
X191491000Y-151334500D01*
X190141750Y-151334500D01*
X189983000Y-151493250D01*
X189983000Y-152083810D01*
X189988049Y-152096000D01*
X183369025Y-152096000D01*
X183506327Y-151958699D01*
X183603000Y-151725310D01*
X183603000Y-151034750D01*
X183444250Y-150876000D01*
X182245000Y-150876000D01*
X182245000Y-150896000D01*
X181991000Y-150896000D01*
X181991000Y-150876000D01*
X180791750Y-150876000D01*
X180633000Y-151034750D01*
X180633000Y-151725310D01*
X180729673Y-151958699D01*
X180866975Y-152096000D01*
X178774501Y-152096000D01*
X179188125Y-151819625D01*
X179516339Y-151328418D01*
X179631592Y-150749000D01*
X179516339Y-150169582D01*
X179188125Y-149678375D01*
X178889739Y-149479000D01*
X179188125Y-149279625D01*
X179516339Y-148788418D01*
X179631592Y-148209000D01*
X179516339Y-147629582D01*
X179188125Y-147138375D01*
X178946352Y-146976827D01*
X178955888Y-146928886D01*
X178941000Y-146854038D01*
X178941000Y-146854034D01*
X178898491Y-146640329D01*
X178896904Y-146632348D01*
X178803176Y-146492074D01*
X178831000Y-146464250D01*
X178831000Y-145415000D01*
X178811000Y-145415000D01*
X178811000Y-145161000D01*
X178831000Y-145161000D01*
X178831000Y-144111750D01*
X178672250Y-143953000D01*
X178438057Y-143953000D01*
X178438057Y-142721690D01*
X178640915Y-142721690D01*
X178640915Y-142946196D01*
X179023149Y-143328430D01*
X179256538Y-143425103D01*
X179509157Y-143425102D01*
X179742546Y-143328429D01*
X179974519Y-143096456D01*
X179974519Y-142871950D01*
X179232587Y-142130018D01*
X178640915Y-142721690D01*
X178438057Y-142721690D01*
X178438057Y-142542085D01*
X178461310Y-142542085D01*
X179052982Y-141950413D01*
X179038840Y-141936271D01*
X179218445Y-141756666D01*
X179232587Y-141770808D01*
X179246730Y-141756666D01*
X179426335Y-141936271D01*
G36*
X186127551Y-133205000D02*
X185702232Y-133205000D01*
X185619999Y-133188643D01*
X185537766Y-133205000D01*
X185537763Y-133205000D01*
X185294199Y-133253448D01*
X185017999Y-133437999D01*
X184971414Y-133507718D01*
X184955572Y-133523560D01*
X184439000Y-133523560D01*
X184191235Y-133572843D01*
X183981191Y-133713191D01*
X183840843Y-133923235D01*
X183791560Y-134171000D01*
X183791560Y-135071000D01*
X183840843Y-135318765D01*
X183981191Y-135528809D01*
X184191235Y-135669157D01*
X184439000Y-135718440D01*
X185639000Y-135718440D01*
X185886765Y-135669157D01*
X186096809Y-135528809D01*
X186237157Y-135318765D01*
X186286440Y-135071000D01*
X186286440Y-134875000D01*
X186983560Y-134875000D01*
X186983560Y-136715000D01*
X187032843Y-136962765D01*
X187173191Y-137172809D01*
X187383235Y-137313157D01*
X187631000Y-137362440D01*
X189131000Y-137362440D01*
X189378765Y-137313157D01*
X189588809Y-137172809D01*
X189729157Y-136962765D01*
X189778440Y-136715000D01*
X189778440Y-135075629D01*
X189782843Y-135097765D01*
X189923191Y-135307809D01*
X190133235Y-135448157D01*
X190312788Y-135483872D01*
X190173953Y-135691654D01*
X190089744Y-136115000D01*
X190173953Y-136538346D01*
X190413759Y-136897241D01*
X190772654Y-137137047D01*
X191089139Y-137200000D01*
X192002861Y-137200000D01*
X192319346Y-137137047D01*
X192482000Y-137028365D01*
X192482001Y-142805881D01*
X192311416Y-142550584D01*
X192022294Y-142357398D01*
X191681250Y-142289560D01*
X191390777Y-142289560D01*
X189190783Y-140089567D01*
X188984300Y-139951599D01*
X188658500Y-139886794D01*
X188576267Y-139903151D01*
X187073365Y-139903151D01*
X186915925Y-139667526D01*
X186424718Y-139339312D01*
X185991556Y-139253151D01*
X185874000Y-139253151D01*
X185874000Y-138971696D01*
X185886765Y-138969157D01*
X186096809Y-138828809D01*
X186237157Y-138618765D01*
X186286440Y-138371000D01*
X186286440Y-137471000D01*
X186237157Y-137223235D01*
X186096809Y-137013191D01*
X185886765Y-136872843D01*
X185639000Y-136823560D01*
X184439000Y-136823560D01*
X184191235Y-136872843D01*
X183981191Y-137013191D01*
X183840843Y-137223235D01*
X183791560Y-137471000D01*
X183791560Y-138371000D01*
X183840843Y-138618765D01*
X183981191Y-138828809D01*
X184191235Y-138969157D01*
X184204001Y-138971696D01*
X184204001Y-139849613D01*
X184187643Y-139931851D01*
X184252448Y-140257651D01*
X184335970Y-140382650D01*
X184386792Y-140458710D01*
X184331208Y-140738151D01*
X184446461Y-141317569D01*
X184774675Y-141808776D01*
X184796333Y-141823247D01*
X184635602Y-141889824D01*
X184456973Y-142068452D01*
X184360300Y-142301841D01*
X184360300Y-142992401D01*
X184519050Y-143151151D01*
X185718300Y-143151151D01*
X185718300Y-143131151D01*
X185972300Y-143131151D01*
X185972300Y-143151151D01*
X187171550Y-143151151D01*
X187330300Y-142992401D01*
X187330300Y-142301841D01*
X187233627Y-142068452D01*
X187054998Y-141889824D01*
X186894267Y-141823247D01*
X186915925Y-141808776D01*
X187073365Y-141573151D01*
X188312633Y-141573151D01*
X189041482Y-142302000D01*
X188948691Y-142302000D01*
X188715302Y-142398673D01*
X188536673Y-142577301D01*
X188440000Y-142810690D01*
X188440000Y-143351250D01*
X188598750Y-143510000D01*
X189435500Y-143510000D01*
X189435500Y-143490000D01*
X189689500Y-143490000D01*
X189689500Y-143510000D01*
X189709500Y-143510000D01*
X189709500Y-143764000D01*
X189689500Y-143764000D01*
X189689500Y-144813250D01*
X189848250Y-144972000D01*
X190176309Y-144972000D01*
X190409698Y-144875327D01*
X190562793Y-144722233D01*
X190563584Y-144723416D01*
X190783001Y-144870026D01*
X190783001Y-145210060D01*
X190618000Y-145210060D01*
X190370235Y-145259343D01*
X190160191Y-145399691D01*
X190019843Y-145609735D01*
X189970560Y-145857500D01*
X189970560Y-147357500D01*
X190003380Y-147522500D01*
X187094000Y-147522500D01*
X187094000Y-147013148D01*
X187049904Y-146791463D01*
X186881929Y-146540071D01*
X186630537Y-146372096D01*
X186334000Y-146313111D01*
X186097973Y-146360060D01*
X185168927Y-146360060D01*
X184517088Y-145708221D01*
X184517084Y-145708215D01*
X183564587Y-144755720D01*
X183518001Y-144685999D01*
X183241801Y-144501448D01*
X182998237Y-144453000D01*
X182998233Y-144453000D01*
X182916000Y-144436643D01*
X182833767Y-144453000D01*
X182065251Y-144453000D01*
X182105141Y-144393300D01*
X182149237Y-144171615D01*
X182149237Y-144171610D01*
X182164125Y-144096763D01*
X182149237Y-144021916D01*
X182149237Y-143563901D01*
X184360300Y-143563901D01*
X184360300Y-144254461D01*
X184456973Y-144487850D01*
X184635602Y-144666478D01*
X184868991Y-144763151D01*
X185559550Y-144763151D01*
X185718300Y-144604401D01*
X185718300Y-143405151D01*
X185972300Y-143405151D01*
X185972300Y-144604401D01*
X186131050Y-144763151D01*
X186821609Y-144763151D01*
X187054998Y-144666478D01*
X187233627Y-144487850D01*
X187330300Y-144254461D01*
X187330300Y-143922750D01*
X188440000Y-143922750D01*
X188440000Y-144463310D01*
X188536673Y-144696699D01*
X188715302Y-144875327D01*
X188948691Y-144972000D01*
X189276750Y-144972000D01*
X189435500Y-144813250D01*
X189435500Y-143764000D01*
X188598750Y-143764000D01*
X188440000Y-143922750D01*
X187330300Y-143922750D01*
X187330300Y-143563901D01*
X187171550Y-143405151D01*
X185972300Y-143405151D01*
X185718300Y-143405151D01*
X184519050Y-143405151D01*
X184360300Y-143563901D01*
X182149237Y-143563901D01*
X182149237Y-141530259D01*
X182164125Y-141455411D01*
X182149237Y-141380563D01*
X182149237Y-137014083D01*
X182164125Y-136939236D01*
X182149237Y-136864389D01*
X182149237Y-135744083D01*
X182164125Y-135669236D01*
X182149237Y-135594389D01*
X182149237Y-135594385D01*
X182116000Y-135427292D01*
X182116000Y-133799711D01*
X182233431Y-133682280D01*
X182391000Y-133301874D01*
X182391000Y-133040000D01*
X185962551Y-133040000D01*
X186127551Y-133205000D01*
X186127551Y-133205000D01*
G37*
X186127551Y-133205000D02*
X185702232Y-133205000D01*
X185619999Y-133188643D01*
X185537766Y-133205000D01*
X185537763Y-133205000D01*
X185294199Y-133253448D01*
X185017999Y-133437999D01*
X184971414Y-133507718D01*
X184955572Y-133523560D01*
X184439000Y-133523560D01*
X184191235Y-133572843D01*
X183981191Y-133713191D01*
X183840843Y-133923235D01*
X183791560Y-134171000D01*
X183791560Y-135071000D01*
X183840843Y-135318765D01*
X183981191Y-135528809D01*
X184191235Y-135669157D01*
X184439000Y-135718440D01*
X185639000Y-135718440D01*
X185886765Y-135669157D01*
X186096809Y-135528809D01*
X186237157Y-135318765D01*
X186286440Y-135071000D01*
X186286440Y-134875000D01*
X186983560Y-134875000D01*
X186983560Y-136715000D01*
X187032843Y-136962765D01*
X187173191Y-137172809D01*
X187383235Y-137313157D01*
X187631000Y-137362440D01*
X189131000Y-137362440D01*
X189378765Y-137313157D01*
X189588809Y-137172809D01*
X189729157Y-136962765D01*
X189778440Y-136715000D01*
X189778440Y-135075629D01*
X189782843Y-135097765D01*
X189923191Y-135307809D01*
X190133235Y-135448157D01*
X190312788Y-135483872D01*
X190173953Y-135691654D01*
X190089744Y-136115000D01*
X190173953Y-136538346D01*
X190413759Y-136897241D01*
X190772654Y-137137047D01*
X191089139Y-137200000D01*
X192002861Y-137200000D01*
X192319346Y-137137047D01*
X192482000Y-137028365D01*
X192482001Y-142805881D01*
X192311416Y-142550584D01*
X192022294Y-142357398D01*
X191681250Y-142289560D01*
X191390777Y-142289560D01*
X189190783Y-140089567D01*
X188984300Y-139951599D01*
X188658500Y-139886794D01*
X188576267Y-139903151D01*
X187073365Y-139903151D01*
X186915925Y-139667526D01*
X186424718Y-139339312D01*
X185991556Y-139253151D01*
X185874000Y-139253151D01*
X185874000Y-138971696D01*
X185886765Y-138969157D01*
X186096809Y-138828809D01*
X186237157Y-138618765D01*
X186286440Y-138371000D01*
X186286440Y-137471000D01*
X186237157Y-137223235D01*
X186096809Y-137013191D01*
X185886765Y-136872843D01*
X185639000Y-136823560D01*
X184439000Y-136823560D01*
X184191235Y-136872843D01*
X183981191Y-137013191D01*
X183840843Y-137223235D01*
X183791560Y-137471000D01*
X183791560Y-138371000D01*
X183840843Y-138618765D01*
X183981191Y-138828809D01*
X184191235Y-138969157D01*
X184204001Y-138971696D01*
X184204001Y-139849613D01*
X184187643Y-139931851D01*
X184252448Y-140257651D01*
X184335970Y-140382650D01*
X184386792Y-140458710D01*
X184331208Y-140738151D01*
X184446461Y-141317569D01*
X184774675Y-141808776D01*
X184796333Y-141823247D01*
X184635602Y-141889824D01*
X184456973Y-142068452D01*
X184360300Y-142301841D01*
X184360300Y-142992401D01*
X184519050Y-143151151D01*
X185718300Y-143151151D01*
X185718300Y-143131151D01*
X185972300Y-143131151D01*
X185972300Y-143151151D01*
X187171550Y-143151151D01*
X187330300Y-142992401D01*
X187330300Y-142301841D01*
X187233627Y-142068452D01*
X187054998Y-141889824D01*
X186894267Y-141823247D01*
X186915925Y-141808776D01*
X187073365Y-141573151D01*
X188312633Y-141573151D01*
X189041482Y-142302000D01*
X188948691Y-142302000D01*
X188715302Y-142398673D01*
X188536673Y-142577301D01*
X188440000Y-142810690D01*
X188440000Y-143351250D01*
X188598750Y-143510000D01*
X189435500Y-143510000D01*
X189435500Y-143490000D01*
X189689500Y-143490000D01*
X189689500Y-143510000D01*
X189709500Y-143510000D01*
X189709500Y-143764000D01*
X189689500Y-143764000D01*
X189689500Y-144813250D01*
X189848250Y-144972000D01*
X190176309Y-144972000D01*
X190409698Y-144875327D01*
X190562793Y-144722233D01*
X190563584Y-144723416D01*
X190783001Y-144870026D01*
X190783001Y-145210060D01*
X190618000Y-145210060D01*
X190370235Y-145259343D01*
X190160191Y-145399691D01*
X190019843Y-145609735D01*
X189970560Y-145857500D01*
X189970560Y-147357500D01*
X190003380Y-147522500D01*
X187094000Y-147522500D01*
X187094000Y-147013148D01*
X187049904Y-146791463D01*
X186881929Y-146540071D01*
X186630537Y-146372096D01*
X186334000Y-146313111D01*
X186097973Y-146360060D01*
X185168927Y-146360060D01*
X184517088Y-145708221D01*
X184517084Y-145708215D01*
X183564587Y-144755720D01*
X183518001Y-144685999D01*
X183241801Y-144501448D01*
X182998237Y-144453000D01*
X182998233Y-144453000D01*
X182916000Y-144436643D01*
X182833767Y-144453000D01*
X182065251Y-144453000D01*
X182105141Y-144393300D01*
X182149237Y-144171615D01*
X182149237Y-144171610D01*
X182164125Y-144096763D01*
X182149237Y-144021916D01*
X182149237Y-143563901D01*
X184360300Y-143563901D01*
X184360300Y-144254461D01*
X184456973Y-144487850D01*
X184635602Y-144666478D01*
X184868991Y-144763151D01*
X185559550Y-144763151D01*
X185718300Y-144604401D01*
X185718300Y-143405151D01*
X185972300Y-143405151D01*
X185972300Y-144604401D01*
X186131050Y-144763151D01*
X186821609Y-144763151D01*
X187054998Y-144666478D01*
X187233627Y-144487850D01*
X187330300Y-144254461D01*
X187330300Y-143922750D01*
X188440000Y-143922750D01*
X188440000Y-144463310D01*
X188536673Y-144696699D01*
X188715302Y-144875327D01*
X188948691Y-144972000D01*
X189276750Y-144972000D01*
X189435500Y-144813250D01*
X189435500Y-143764000D01*
X188598750Y-143764000D01*
X188440000Y-143922750D01*
X187330300Y-143922750D01*
X187330300Y-143563901D01*
X187171550Y-143405151D01*
X185972300Y-143405151D01*
X185718300Y-143405151D01*
X184519050Y-143405151D01*
X184360300Y-143563901D01*
X182149237Y-143563901D01*
X182149237Y-141530259D01*
X182164125Y-141455411D01*
X182149237Y-141380563D01*
X182149237Y-137014083D01*
X182164125Y-136939236D01*
X182149237Y-136864389D01*
X182149237Y-135744083D01*
X182164125Y-135669236D01*
X182149237Y-135594389D01*
X182149237Y-135594385D01*
X182116000Y-135427292D01*
X182116000Y-133799711D01*
X182233431Y-133682280D01*
X182391000Y-133301874D01*
X182391000Y-133040000D01*
X185962551Y-133040000D01*
X186127551Y-133205000D01*
G36*
X192482000Y-128401635D02*
X192319346Y-128292953D01*
X192002861Y-128230000D01*
X191089139Y-128230000D01*
X190772654Y-128292953D01*
X190413759Y-128532759D01*
X190173953Y-128891654D01*
X190089744Y-129315000D01*
X190173953Y-129738346D01*
X190303942Y-129932888D01*
X190133235Y-129966843D01*
X189923191Y-130107191D01*
X189782843Y-130317235D01*
X189758440Y-130439918D01*
X189758440Y-128715000D01*
X189709157Y-128467235D01*
X189568809Y-128257191D01*
X189358765Y-128116843D01*
X189111000Y-128067560D01*
X187611000Y-128067560D01*
X187363235Y-128116843D01*
X187280000Y-128172459D01*
X187280000Y-128049690D01*
X187183327Y-127816301D01*
X187033775Y-127666750D01*
X187183327Y-127517199D01*
X187280000Y-127283810D01*
X187280000Y-126968250D01*
X187121250Y-126809500D01*
X186334500Y-126809500D01*
X186334500Y-127633750D01*
X186367500Y-127666750D01*
X186334500Y-127699750D01*
X186334500Y-128524000D01*
X186354500Y-128524000D01*
X186354500Y-128778000D01*
X186334500Y-128778000D01*
X186334500Y-129602250D01*
X186493250Y-129761000D01*
X186771309Y-129761000D01*
X186963560Y-129681367D01*
X186963560Y-130715000D01*
X187012843Y-130962765D01*
X187056470Y-131028057D01*
X187021000Y-131113690D01*
X187021000Y-131181250D01*
X187152748Y-131312998D01*
X187021000Y-131312998D01*
X187021000Y-131381540D01*
X186983285Y-131325095D01*
X186740163Y-131162646D01*
X186525768Y-131120000D01*
X186525764Y-131120000D01*
X186453380Y-131105602D01*
X186380996Y-131120000D01*
X182694457Y-131120000D01*
X182704280Y-131115931D01*
X182816809Y-131003402D01*
X182856429Y-130976929D01*
X182882902Y-130937309D01*
X182995431Y-130824780D01*
X183153000Y-130444374D01*
X183153000Y-130061940D01*
X183299250Y-130061940D01*
X183640294Y-129994102D01*
X183929416Y-129800916D01*
X184019747Y-129665727D01*
X184082273Y-129707505D01*
X184413750Y-129773440D01*
X184851250Y-129773440D01*
X185182727Y-129707505D01*
X185345031Y-129599057D01*
X185410302Y-129664327D01*
X185643691Y-129761000D01*
X185921750Y-129761000D01*
X186080500Y-129602250D01*
X186080500Y-128778000D01*
X186060500Y-128778000D01*
X186060500Y-128524000D01*
X186080500Y-128524000D01*
X186080500Y-127699750D01*
X186047500Y-127666750D01*
X186080500Y-127633750D01*
X186080500Y-126809500D01*
X186060500Y-126809500D01*
X186060500Y-126555500D01*
X186080500Y-126555500D01*
X186080500Y-126535500D01*
X186334500Y-126535500D01*
X186334500Y-126555500D01*
X187121250Y-126555500D01*
X187280000Y-126396750D01*
X187280000Y-126161000D01*
X192482000Y-126161000D01*
X192482000Y-128401635D01*
X192482000Y-128401635D01*
G37*
X192482000Y-128401635D02*
X192319346Y-128292953D01*
X192002861Y-128230000D01*
X191089139Y-128230000D01*
X190772654Y-128292953D01*
X190413759Y-128532759D01*
X190173953Y-128891654D01*
X190089744Y-129315000D01*
X190173953Y-129738346D01*
X190303942Y-129932888D01*
X190133235Y-129966843D01*
X189923191Y-130107191D01*
X189782843Y-130317235D01*
X189758440Y-130439918D01*
X189758440Y-128715000D01*
X189709157Y-128467235D01*
X189568809Y-128257191D01*
X189358765Y-128116843D01*
X189111000Y-128067560D01*
X187611000Y-128067560D01*
X187363235Y-128116843D01*
X187280000Y-128172459D01*
X187280000Y-128049690D01*
X187183327Y-127816301D01*
X187033775Y-127666750D01*
X187183327Y-127517199D01*
X187280000Y-127283810D01*
X187280000Y-126968250D01*
X187121250Y-126809500D01*
X186334500Y-126809500D01*
X186334500Y-127633750D01*
X186367500Y-127666750D01*
X186334500Y-127699750D01*
X186334500Y-128524000D01*
X186354500Y-128524000D01*
X186354500Y-128778000D01*
X186334500Y-128778000D01*
X186334500Y-129602250D01*
X186493250Y-129761000D01*
X186771309Y-129761000D01*
X186963560Y-129681367D01*
X186963560Y-130715000D01*
X187012843Y-130962765D01*
X187056470Y-131028057D01*
X187021000Y-131113690D01*
X187021000Y-131181250D01*
X187152748Y-131312998D01*
X187021000Y-131312998D01*
X187021000Y-131381540D01*
X186983285Y-131325095D01*
X186740163Y-131162646D01*
X186525768Y-131120000D01*
X186525764Y-131120000D01*
X186453380Y-131105602D01*
X186380996Y-131120000D01*
X182694457Y-131120000D01*
X182704280Y-131115931D01*
X182816809Y-131003402D01*
X182856429Y-130976929D01*
X182882902Y-130937309D01*
X182995431Y-130824780D01*
X183153000Y-130444374D01*
X183153000Y-130061940D01*
X183299250Y-130061940D01*
X183640294Y-129994102D01*
X183929416Y-129800916D01*
X184019747Y-129665727D01*
X184082273Y-129707505D01*
X184413750Y-129773440D01*
X184851250Y-129773440D01*
X185182727Y-129707505D01*
X185345031Y-129599057D01*
X185410302Y-129664327D01*
X185643691Y-129761000D01*
X185921750Y-129761000D01*
X186080500Y-129602250D01*
X186080500Y-128778000D01*
X186060500Y-128778000D01*
X186060500Y-128524000D01*
X186080500Y-128524000D01*
X186080500Y-127699750D01*
X186047500Y-127666750D01*
X186080500Y-127633750D01*
X186080500Y-126809500D01*
X186060500Y-126809500D01*
X186060500Y-126555500D01*
X186080500Y-126555500D01*
X186080500Y-126535500D01*
X186334500Y-126535500D01*
X186334500Y-126555500D01*
X187121250Y-126555500D01*
X187280000Y-126396750D01*
X187280000Y-126161000D01*
X192482000Y-126161000D01*
X192482000Y-128401635D01*
G36*
X179607990Y-129190790D02*
X179607990Y-129336554D01*
X179593374Y-129330500D01*
X179503865Y-129330500D01*
X179432016Y-129157041D01*
X179200043Y-128925068D01*
X178997664Y-128925068D01*
X178999228Y-128901380D01*
X179087792Y-128812816D01*
X179010201Y-128735225D01*
X179019011Y-128601810D01*
X179607990Y-129190790D01*
X179607990Y-129190790D01*
G37*
X179607990Y-129190790D02*
X179607990Y-129336554D01*
X179593374Y-129330500D01*
X179503865Y-129330500D01*
X179432016Y-129157041D01*
X179200043Y-128925068D01*
X178997664Y-128925068D01*
X178999228Y-128901380D01*
X179087792Y-128812816D01*
X179010201Y-128735225D01*
X179019011Y-128601810D01*
X179607990Y-129190790D01*
G04 #@! TD*
M02*
